<svg id="Capa_1" data-name="Capa 1" xmlns="http://www.w3.org/2000/svg" xmlns:xlink="http://www.w3.org/1999/xlink" viewBox="0 0 255.48 98"><defs><style>.cls-1,.cls-4,.cls-5{fill:none;}.cls-2{clip-path:url(#clip-path);}.cls-3{clip-path:url(#clip-path-2);}.cls-4{stroke:#1ab3a3;}.cls-4,.cls-5{stroke-miterlimit:10;stroke-width:2px;}.cls-5{stroke:#e6b64c;}.cls-6{fill:#1ab3a3;}.cls-7{fill:#e6b64c;}.cls-8{fill:#211915;}</style><clipPath id="clip-path"><rect class="cls-1" x="-2.36" y="-864" width="820" height="759.11"/></clipPath><clipPath id="clip-path-2"><rect class="cls-1" x="-2" y="-863.44" width="981.21" height="758.56"/></clipPath></defs><title>Mesa de trabajo 4</title><g class="cls-2"><g class="cls-3"><polyline class="cls-4" points="-199.07 180.73 473.46 -149.31 481.14 -1250.84"/><polyline class="cls-5" points="-241.24 153.07 431.29 -176.97 438.96 -1278.5"/><polyline class="cls-4" points="-282.43 125.94 390.1 -204.1 397.78 -1305.63"/><polyline class="cls-5" points="-324.27 98.45 348.26 -231.59 355.94 -1333.11"/><polyline class="cls-4" points="-365.51 71.36 307.02 -258.68 314.7 -1360.21"/><polyline class="cls-5" points="693.05 -1021.53 20.52 -691.49 12.84 410.04"/><polyline class="cls-4" points="733.72 -995.82 61.19 -665.78 53.51 435.75"/><polyline class="cls-5" points="775.28 -967.57 102.75 -637.53 95.07 464"/><polyline class="cls-4" points="815.95 -941.01 143.42 -610.97 135.74 490.56"/><polyline class="cls-5" points="858.23 -913.48 185.69 -583.44 178.02 518.09"/></g></g><path class="cls-6" d="M86.94,63.28l5.76,13-5.78,12.8L51.54,10.73h12.1L86.92,63.33Z"/><path class="cls-6" d="M122.24,10.86,92.64,76.4,86.86,63.46l23.27-52.61Z"/><path class="cls-6" d="M122.21,36.65l-5.76-13,5.78-12.8L157.61,89.2H145.46L122.23,36.59Z"/><polygon class="cls-7" points="49.07 55.47 11.83 55.47 11.83 44.54 56.42 44.54 49.07 55.47"/><polygon class="cls-6" points="3.46 10.73 57.03 10.73 57.03 21.66 10.81 21.66 3.46 10.73"/><polygon class="cls-6" points="10.2 78.27 56.42 78.27 56.42 89.2 2.85 89.2 10.2 78.27"/><polygon class="cls-7" points="117.29 44.54 137.44 44.54 142.37 55.47 124.63 55.47 117.29 44.54"/><path class="cls-8" d="M174.68,9.05v1h-7.91v7.4h7.91v1h-7.91v7.4h7.91v1h-8.91V9.05Z"/><path class="cls-8" d="M182.33,17a7.51,7.51,0,0,1-3-1.73,3.77,3.77,0,0,1,0-5.33,3.78,3.78,0,0,1,5.35,0,3.27,3.27,0,0,1,.84,1.32l-.91.35a2.77,2.77,0,0,0-.66-1,2.77,2.77,0,0,0-4.73,2,2.7,2.7,0,0,0,.81,2,7.39,7.39,0,0,0,2.09,1.36,8.86,8.86,0,0,1,3.61,2.16,5.29,5.29,0,0,1,0,7.46,5.24,5.24,0,0,1-7.46,0,5,5,0,0,1-1.49-2.87l.95-.34A4.05,4.05,0,0,0,179,24.84,4.29,4.29,0,1,0,185,18.77,8.14,8.14,0,0,0,182.33,17Z"/><path class="cls-8" d="M190.39,20.7v6.18h-1V9.05h4.68a5.89,5.89,0,0,1,3.47,1.7,5.63,5.63,0,0,1,1.7,4.11,5.64,5.64,0,0,1-1.7,4.13,5.59,5.59,0,0,1-4.11,1.71Zm0-10.63v9.61h3a4.81,4.81,0,0,0,4.8-4.82,4.6,4.6,0,0,0-1.41-3.39,4.65,4.65,0,0,0-3.39-1.4Z"/><path class="cls-8" d="M206,9.05l6.47,17.83h-1.06L208.53,19h-6.17l-2.9,7.84H198.4l6.54-17.83Zm2.19,9-2.71-7.48L202.73,18Z"/><path class="cls-8" d="M227.91,24l.77.68A9.12,9.12,0,0,1,213.41,18a8.81,8.81,0,0,1,2.67-6.45,9.12,9.12,0,0,1,12.6-.3l-.77.68A8.11,8.11,0,0,0,214.44,18,8.11,8.11,0,0,0,227.91,24Z"/><path class="cls-8" d="M232,9.05V26.88h-1V9.05Z"/><path class="cls-8" d="M249.95,11.48a8.81,8.81,0,0,1,2.68,6.46,8.82,8.82,0,0,1-2.68,6.47,9.15,9.15,0,0,1-12.94,0,8.82,8.82,0,0,1-2.68-6.47A8.81,8.81,0,0,1,237,11.48a9.15,9.15,0,0,1,12.94,0Zm-6.47-1.66a7.82,7.82,0,0,0-5.74,2.38,7.82,7.82,0,0,0-2.38,5.74,7.83,7.83,0,0,0,2.38,5.75,8.11,8.11,0,0,0,11.49,0,7.83,7.83,0,0,0,2.38-5.75,8.14,8.14,0,0,0-8.13-8.12Z"/><path class="cls-8" d="M176.72,40h1.06l-6.41,17.83h-.62L164.35,40h1.06l5.66,16Z"/><path class="cls-8" d="M180.33,40V57.87h-1V40Z"/><path class="cls-8" d="M187.62,51.69h-3.33v6.18h-1V40H188a5.89,5.89,0,0,1,3.47,1.7,5.85,5.85,0,0,1-2.71,9.78l4.11,6.34h-1.24Zm-3.33-10.63v9.61h3a4.8,4.8,0,1,0,0-9.61Z"/><path class="cls-8" d="M199.87,41V57.87h-1V41h-4.51V40h10v1Z"/><path class="cls-8" d="M216.83,40h1V52.85a5.89,5.89,0,0,1-1.7,3.47,5.82,5.82,0,0,1-9.94-4.11V40h1V52.21a4.81,4.81,0,0,0,9.62,0Z"/><path class="cls-8" d="M226.82,40l6.47,17.83h-1.06L229.38,50h-6.17l-2.9,7.84h-1.07L225.78,40ZM229,49l-2.71-7.48L223.58,49Z"/><path class="cls-8" d="M234.74,57.87V40h1V56.86h6.8v1Z"/><path class="cls-8" d="M171.92,71l6.47,17.83h-1.06L174.48,81h-6.17l-2.9,7.84h-1.07L170.89,71Zm2.19,9-2.71-7.48L168.68,80Z"/><path class="cls-8" d="M184.18,82.68h-3.33v6.18h-1V71h4.68a5.89,5.89,0,0,1,3.47,1.7,5.85,5.85,0,0,1-2.71,9.78l4.11,6.34h-1.24ZM180.85,72v9.61h3a4.8,4.8,0,1,0,0-9.61Z"/><path class="cls-8" d="M193.06,71V88.85h-1V71Z"/><path class="cls-8" d="M211,73.45a9.15,9.15,0,1,1-6.47-2.68A8.81,8.81,0,0,1,211,73.45Zm-6.47-1.66a8.14,8.14,0,1,0,5.75,2.38A7.82,7.82,0,0,0,204.53,71.8Z"/><path class="cls-8" d="M220.7,79a7.51,7.51,0,0,1-3-1.73A3.78,3.78,0,0,1,223,71.92a3.27,3.27,0,0,1,.84,1.32l-.91.35a2.77,2.77,0,0,0-.66-1,2.77,2.77,0,0,0-4.73,2,2.7,2.7,0,0,0,.81,2,7.39,7.39,0,0,0,2.09,1.36,8.86,8.86,0,0,1,3.61,2.16,5.27,5.27,0,1,1-7.46,7.45,5,5,0,0,1-1.49-2.87l.95-.34a4.05,4.05,0,0,0,1.24,2.52,4.29,4.29,0,1,0,6.08-6.06A8.14,8.14,0,0,0,220.7,79Z"/></svg>