<svg id="Capa_1" data-name="Capa 1" xmlns="http://www.w3.org/2000/svg" xmlns:xlink="http://www.w3.org/1999/xlink" viewBox="0 0 40 40"><defs><style>.cls-1,.cls-5,.cls-6{fill:none;}.cls-2{fill:#ffffff;}.cls-3{clip-path:url(#clip-path);}.cls-4{clip-path:url(#clip-path-2);}.cls-5{stroke:#ffffff;}.cls-5,.cls-6{stroke-miterlimit:10;stroke-width:2px;}.cls-6{stroke:#e6b64c;}</style><clipPath id="clip-path"><rect class="cls-1" x="2.17" y="88.44" width="820" height="759.11"/></clipPath><clipPath id="clip-path-2"><rect class="cls-1" x="2.53" y="89" width="981.21" height="758.56"/></clipPath></defs><title>Mesa de trabajo 2</title><path class="cls-2" d="M4.83,2.21v.45H1.27V6H4.83v.45H1.27V9.79H4.83v.45h-4v-8Z"/><path class="cls-2" d="M8.28,5.79A3.38,3.38,0,0,1,6.92,5a1.64,1.64,0,0,1-.5-1.21,1.7,1.7,0,0,1,1.7-1.69,1.65,1.65,0,0,1,1.2.5,1.47,1.47,0,0,1,.38.6l-.41.16A1.25,1.25,0,0,0,9,2.92a1.25,1.25,0,0,0-2.13.89,1.22,1.22,0,0,0,.36.89,3.33,3.33,0,0,0,.94.61,4,4,0,0,1,1.62,1,2.38,2.38,0,0,1,0,3.36,2.36,2.36,0,0,1-3.36,0,2.24,2.24,0,0,1-.67-1.29l.43-.15a1.82,1.82,0,0,0,.56,1.14,1.93,1.93,0,0,0,2.74,0,1.93,1.93,0,0,0,0-2.73A3.67,3.67,0,0,0,8.28,5.79Z"/><path class="cls-2" d="M11.9,7.46v2.78h-.45v-8h2.11A2.65,2.65,0,0,1,15.12,3a2.53,2.53,0,0,1,.77,1.85,2.54,2.54,0,0,1-.77,1.86,2.52,2.52,0,0,1-1.85.77Zm0-4.79V7h1.36a2.17,2.17,0,0,0,2.16-2.17,2.07,2.07,0,0,0-.64-1.53,2.09,2.09,0,0,0-1.53-.63Z"/><path class="cls-2" d="M18.92,2.21l2.91,8h-.48L20.08,6.71H17.3L16,10.24h-.48l2.95-8Zm1,4L18.69,2.89,17.46,6.26Z"/><path class="cls-2" d="M28.8,9l.35.31a4.12,4.12,0,0,1-5.68-.13,4,4,0,0,1-1.2-2.91,4,4,0,0,1,1.2-2.9,4.11,4.11,0,0,1,5.68-.13l-.35.31a3.65,3.65,0,0,0-6.07,2.73A3.51,3.51,0,0,0,23.8,8.81a3.66,3.66,0,0,0,5,.15Z"/><path class="cls-2" d="M30.65,2.21v8H30.2v-8Z"/><path class="cls-2" d="M38.73,3.3a4,4,0,0,1,1.21,2.91,4,4,0,0,1-1.21,2.92,4.12,4.12,0,0,1-5.83,0,4,4,0,0,1-1.21-2.92A4,4,0,0,1,32.9,3.3a4.12,4.12,0,0,1,5.83,0Zm-2.92-.75a3.52,3.52,0,0,0-2.58,1.07,3.52,3.52,0,0,0-1.07,2.58A3.53,3.53,0,0,0,33.23,8.8a3.65,3.65,0,0,0,5.17,0,3.53,3.53,0,0,0,1.07-2.59A3.52,3.52,0,0,0,38.4,3.63,3.53,3.53,0,0,0,35.81,2.56Z"/><path class="cls-2" d="M6.36,16.17h.48L4,24.2H3.68l-2.88-8h.48l2.55,7.21Z"/><path class="cls-2" d="M8,16.17v8H7.53v-8Z"/><path class="cls-2" d="M11.27,21.41H9.77V24.2H9.32v-8h2.11a2.65,2.65,0,0,1,1.56.77,2.63,2.63,0,0,1-1.22,4.41l1.85,2.86h-.56Zm-1.5-4.79V21h1.36a2.16,2.16,0,1,0,0-4.33Z"/><path class="cls-2" d="M16.79,16.62V24.2h-.45V16.62h-2v-.45h4.51v.45Z"/><path class="cls-2" d="M24.43,16.17h.45v5.77a2.65,2.65,0,0,1-.77,1.56,2.62,2.62,0,0,1-4.47-1.85V16.17h.45v5.48a2.17,2.17,0,0,0,4.33,0Z"/><path class="cls-2" d="M28.92,16.17l2.91,8h-.48l-1.28-3.53H27.3L26,24.2h-.48l2.95-8Zm1,4-1.22-3.37-1.23,3.37Z"/><path class="cls-2" d="M32.49,24.2v-8h.45v7.58H36v.45Z"/><path class="cls-2" d="M4.2,30.12l2.91,8H6.64L5.36,34.62H2.58L1.27,38.15H.79l2.95-8Zm1,4L4,30.8,2.75,34.17Z"/><path class="cls-2" d="M9.72,35.37H8.23v2.78H7.77v-8H9.88a2.65,2.65,0,0,1,1.56.77,2.63,2.63,0,0,1-1.22,4.41l1.85,2.86h-.56Zm-1.5-4.79v4.33H9.59a2.16,2.16,0,1,0,0-4.33Z"/><path class="cls-2" d="M13.73,30.12v8h-.45v-8Z"/><path class="cls-2" d="M21.81,31.21a4.12,4.12,0,0,1-2.92,7,4.12,4.12,0,1,1,2.92-7Zm-2.92-.75a3.66,3.66,0,1,0,3.66,3.66,3.66,3.66,0,0,0-3.66-3.66Z"/><path class="cls-2" d="M26.18,33.71a3.38,3.38,0,0,1-1.35-.78,1.7,1.7,0,0,1,2.41-2.4,1.47,1.47,0,0,1,.38.6l-.41.16a1.25,1.25,0,0,0-.3-.45,1.25,1.25,0,0,0-2.13.89,1.22,1.22,0,0,0,.36.89,3.33,3.33,0,0,0,.94.61,4,4,0,0,1,1.62,1,2.38,2.38,0,1,1-3.36,3.36,2.24,2.24,0,0,1-.67-1.29l.43-.15a1.82,1.82,0,0,0,.56,1.14A1.93,1.93,0,1,0,27.4,34.5,3.67,3.67,0,0,0,26.18,33.71Z"/><g class="cls-3"><g class="cls-4"><polyline class="cls-5" points="-194.54 1133.17 477.99 803.13 485.67 -298.4"/><polyline class="cls-6" points="-236.71 1105.52 435.82 775.47 443.5 -326.05"/><polyline class="cls-5" points="-277.89 1078.38 394.64 748.34 402.31 -353.19"/><polyline class="cls-6" points="-319.74 1050.9 352.79 720.86 360.47 -380.67"/><polyline class="cls-5" points="-360.98 1023.8 311.55 693.76 319.23 -407.76"/><polyline class="cls-6" points="-145.78 103.5 480.18 515.09 1432.85 -37.94"/><polyline class="cls-5" points="-144.4 53.66 480.44 464.51 1434.23 -87.78"/><polyline class="cls-6" points="-145.11 4.41 480.85 416 1433.52 -137.03"/><polyline class="cls-5" points="-144.97 -43.07 480.98 368.52 1433.66 -184.51"/><polyline class="cls-6" points="697.58 -69.08 25.05 260.96 17.37 1362.49"/><polyline class="cls-5" points="-145.78 148.87 480.18 560.46 1432.85 7.43"/></g></g></svg>