<svg id="Capa_1" data-name="Capa 1" xmlns="http://www.w3.org/2000/svg" xmlns:xlink="http://www.w3.org/1999/xlink" viewBox="0 0 166.75 59.5"><defs><style>.cls-1,.cls-4,.cls-5,.cls-7{fill:none;}.cls-2{clip-path:url(#clip-path);}.cls-3{clip-path:url(#clip-path-2);}.cls-4{stroke:#1ab3a3;}.cls-4,.cls-5{stroke-miterlimit:10;stroke-width:2px;}.cls-5{stroke:#e6b64c;}.cls-6,.cls-8{fill:#fff;}.cls-6,.cls-7{fill-rule:evenodd;}</style><clipPath id="clip-path"><rect class="cls-1" x="-9" y="-1022.89" width="820" height="759.11"/></clipPath><clipPath id="clip-path-2"><rect class="cls-1" x="-8.64" y="-1022.33" width="981.21" height="758.56"/></clipPath></defs><title>Mesa de trabajo 6</title><g class="cls-2"><g class="cls-3"><polyline class="cls-4" points="-205.71 21.84 466.82 -308.2 474.5 -1409.73"/><polyline class="cls-5" points="686.41 -1180.42 13.88 -850.38 6.21 251.15"/><polyline class="cls-4" points="727.09 -1154.71 54.55 -824.67 46.88 276.86"/><polyline class="cls-5" points="768.65 -1126.46 96.12 -796.42 88.44 305.11"/><polyline class="cls-4" points="809.32 -1099.9 136.79 -769.86 129.11 331.67"/></g></g><path class="cls-6" d="M24.64,30.77H23.36l3.29-12.06,2,0,3.21,12.07H30.56a2.76,2.76,0,0,0-1.1-1.27,3.23,3.23,0,0,0-4.52.94c-.18.23-.09.22-.31.34Zm8.08-8.14c.18-.66-.26-.61-.88-.61s-.92,0-.75.63a3.42,3.42,0,0,0,1.62,0Zm-8.52-.49A2.5,2.5,0,0,0,23.06,22c-.48,0-.61.18-.48.63a3.23,3.23,0,0,0,1.62,0v-.49Zm9-1.46a5,5,0,0,0-1.67-.11c-.61,0-1.23-.12-1,.63a7.84,7.84,0,0,0,2.68,0v-.51Zm-8.52.51c.22-.84-.66-.61-1.36-.61s-1.54-.22-1.32.61a7.84,7.84,0,0,0,2.68,0Zm-1.67-4.06a23.27,23.27,0,0,0,0,2.47c.18.35.66.35.7-.28a5.47,5.47,0,0,1,0-1.2l7.77,0c.09.48-.13,1.14.09,1.57.26.18.31.17.57,0a12.23,12.23,0,0,0,0-2.53ZM12,19.39c.48-.29,1.93-1.37,3-2a25.29,25.29,0,0,1,25.82.25c.44.26,1.19.83,1.58,1a14.87,14.87,0,0,0-2.81-2.83,19.16,19.16,0,0,0-12.78-4.25,18.88,18.88,0,0,0-8.82,2.5,20.09,20.09,0,0,0-3.34,2.37,18,18,0,0,0-2.68,3ZM6,28.78a2.34,2.34,0,0,0-1.49,1,3.37,3.37,0,0,0,0,2.27c.26.32.53.71,1.05.72,2.28.08,4.65,0,6.94,0H54.05l-.22-.26c-.18-.18-.09-.14-.22-.31a23.9,23.9,0,0,0-2.33-1.92,8.66,8.66,0,0,0-2.11-1.09,23.32,23.32,0,0,0-1.8-6.57,24.61,24.61,0,0,0-1.23-2.37,16.8,16.8,0,0,0-1.62-2.33A20.73,20.73,0,0,0,43,16.17c-.48-.49-1.05-1-1.49-1.44a24.93,24.93,0,0,0-8.91-4.62,20.82,20.82,0,0,0-7-.57,20.59,20.59,0,0,0-4.79,1.06,21,21,0,0,0-5.49,2.72l-1.32,1a23.31,23.31,0,0,0-6.59,8.8l-.31.81a1.5,1.5,0,0,1-.13.48,7.85,7.85,0,0,0-.57,1.81c0,.28-.09.2-.13.46A10.7,10.7,0,0,0,6,28.78Z"/><path class="cls-6" d="M29.69,50.68a2.08,2.08,0,0,1,0,.74,22.16,22.16,0,0,1-3.64,0c0-1-.18-.68,1.45-.66.75,0,1.49-.09,2.2-.06ZM18.53,48.22c.26,0,1.32.68,1.62.8.53.26,1.14.43,1.67.71l-.22.61a5.67,5.67,0,0,1-1.8-.66,9.38,9.38,0,0,1-1.58-.86l.31-.6ZM34,49.68c.4-.23,1.19-.49,1.67-.72s1.14-.68,1.54-.8l.31.6a11.45,11.45,0,0,1-3.34,1.61,1.65,1.65,0,0,1-.18-.69Zm-21.25-7c.22.18.83,1.09,1.1,1.4L15,45.46a.79.79,0,0,1-.48.54,13.77,13.77,0,0,1-2.33-2.92l.53-.35Zm27.92,2.66c.44-.48.79-.83,1.19-1.31l1.05-1.38a.83.83,0,0,1,.61.4,17.07,17.07,0,0,1-2.33,2.83.82.82,0,0,1-.53-.54Zm-15.24,2,0-4.25a1,1,0,0,0-.7-.94,4.6,4.6,0,0,0-1.49-.11c-.09.09-1,2.17-2.63.81-.22-.18-.13-.09-.31-.37a1.6,1.6,0,0,1,.22-1.89,1.45,1.45,0,0,1,.88-.52,1.48,1.48,0,0,1,1.67,1c1.19-.11,2.28-.09,3,1a4,4,0,0,0,.18.41,20,20,0,0,1,.13,4.35c0,.54-.13.63.35.68,0-2,0-4.72,0-6.74,0-1.32-1.27-1.14-2-1.12-3.29,0-6.76-.06-10,0a14.74,14.74,0,0,0,7.2,6.73,15.15,15.15,0,0,0,3.51,1ZM10.72,38.72a1.1,1.1,0,0,1-.66.29,14.34,14.34,0,0,1-1-3.67l.7,0a12.24,12.24,0,0,0,.4,1.8c.18.54.4,1.17.53,1.63Zm34.29,0A14.56,14.56,0,0,1,45.49,37a13.24,13.24,0,0,0,.44-1.83c.7,0,.75,0,.61.58a15,15,0,0,1-.92,3.2L45,38.72ZM6.06,34.31a17.25,17.25,0,0,0,.79,4.53A21,21,0,0,0,11,46.49a3.31,3.31,0,0,1,.31.4c.09.12.18.2.26.32.48.49.83.81,1.27,1.29l1.45,1.23a21.71,21.71,0,0,0,27-.09,22.72,22.72,0,0,0,5.88-7.11,21,21,0,0,0,2-5.85c.18-.84.18-1.52.31-2.37H42.46c-.26.17-.09-.06-.18.34l-.13,1c-.09.43-.22.86-.31,1.29a15.88,15.88,0,0,1-2.06,4.35,14.11,14.11,0,0,1-5,4.56,14.3,14.3,0,0,1-4.7,1.61c0-1,0-2.27,0-3.36s1.23-1.23,2.24-1l.13.31a1.68,1.68,0,0,0,1.89.84L35,43.8a1.09,1.09,0,0,0,.4-1V42c-.26-.23-.22-.31-.61-.65a1.08,1.08,0,0,0-.92-.28c-.61,0-.53.06-.88.34s-.26.23-.57.68c-1.19-.09-2.46-.08-3,1.32a21.17,21.17,0,0,0-.13,4.1l-.31,0c-.09-2.38,0-4.85,0-7.25,0-1.09.22-2.46-.35-3.23-1-1.32-2.24-.75-2.72-.84-.26-.12-.31-.49-.75-.78a1.55,1.55,0,0,0-2.41,1.41A1.74,1.74,0,0,0,24,38.42a1.59,1.59,0,0,0,1.1-.35,1.46,1.46,0,0,0,.57-.91c.57,0,2.15-.29,2.24,1,.09,1.09,0,6.36,0,8,0,.57.09,1.34-.13,1.46-.22-.08-.13,0-.18-.23V42.09c0-1.46.18-3.35-2.33-3.33-1.05,0-10.32-.08-11.06,0a28.13,28.13,0,0,1-1-3.27c0-.32-.09-.84-.18-1.23Z"/><path class="cls-6" d="M119.82,28.38a6.08,6.08,0,0,1,1.58-3.73c1.54-1.55,2.5-1.74,4.57-1.74a5.29,5.29,0,0,1,3.51,1.78A6.18,6.18,0,0,1,131,29.22a6,6,0,0,1-3,5,5.71,5.71,0,0,1-5.14,0A4.61,4.61,0,0,1,121.4,33a5.87,5.87,0,0,1-1.58-4.65ZM114,29.44a11.64,11.64,0,0,0,2.2,6.31,15,15,0,0,0,1.49,1.7l.61.48a9.42,9.42,0,0,0,2.59,1.58,11.05,11.05,0,0,0,10.19-.61,11.17,11.17,0,0,0,2.37-1.8,12.26,12.26,0,0,0,3-5.42A12.08,12.08,0,0,0,134,21.13a11.37,11.37,0,0,0-18.92,2.76A11.75,11.75,0,0,0,114,29.44Z"/><path class="cls-6" d="M89.4,22.28a16.94,16.94,0,0,1,4.13.23,2.84,2.84,0,0,1,1.67,2.57,2.64,2.64,0,0,1-1.76,2.57,21.4,21.4,0,0,1-4,.17V22.28Zm8.21,9c.22-.25.7-.45,1.27-1A7.18,7.18,0,0,0,101.16,26a7.31,7.31,0,0,0-1.27-5.28c-.22-.28-.35-.4-.53-.61l-.53-.54a4.81,4.81,0,0,0-.61-.54c-1.89-1.52-4-1.4-6.28-1.4H85.4c-.57,0-1.58-.18-1.8.35s0,17.23,0,20S83,40.11,88,40.13c.79,0,1.36.09,1.41-.8V32.66h2.37l2.63,5.05A11,11,0,0,0,95.06,39c.26.49.35,1,.79,1.11a29.37,29.37,0,0,0,3.73.06c3.38,0,2.63.2-.7-6.33Z"/><path class="cls-6" d="M67.58,31.57c.13-.52.4-1.18.57-1.72.44-1.37,1.19-4,1.67-5.05L72,31.57Zm-3.91,8.56c1.05,0,1.1-.65,1.41-1.52.22-.63.61-1.49.79-2.12l7.9,0c.09.49.57,1.63.75,2.15.44,1.12.35,1.51,1.41,1.51,5.18,0,5.18.4,4.3-1.84-1.76-4.41-3.47-9.09-5.18-13.53-.35-1-.75-2-1.14-3-1.84-4.93-1.1-4.18-4-4.18-2.46,0-2.46-.31-3,1.14-1.93,4.93-3.78,10.06-5.71,15-.35,1-.79,2.06-1.14,3.06-.18.48-.35,1-.57,1.47a5,5,0,0,0-.48,1.58c.4.25.35.22.92.22.35,0,.75,0,1.05,0Z"/><path class="cls-6" d="M154.64,20.87c.18-.49-.44-1-.66-1.24a10.58,10.58,0,0,0-11.06-1.8,5.85,5.85,0,0,0-3.69,4.53,6.64,6.64,0,0,0,.44,3.49c1.1,2.7,4.48,4.19,7.16,5.1,1.45.49,3.38,1.35,2.5,3.13-.75,1.43-3.16,1.21-4.57.51a9.94,9.94,0,0,1-2.33-1.75c-.92-.78-1.19-.34-2.37.91-.26.25-.35.26-.61.49s-.31.32-.48.49c-1.23,1.24-.79,1.14.26,2.37a3.58,3.58,0,0,0,.53.54c4.35,3.81,11.85,3.82,14.84-1,1.05-1.72,1.36-4.78.22-6.59-2.85-4.55-10.19-3.73-9.83-6.54.13-1.14,1.62-1.41,2.81-1.29,2.46.26,3.34,3.26,4.52,1.46C152.75,23,154.42,21.62,154.64,20.87Z"/><path class="cls-6" d="M110.25,39.79c.13-.23.09-18.43.09-21.3,0-.75-.22-.89-.83-.89H106c-.61,0-1.19-.12-1.41.29S104.5,30.37,104.5,32c0,2.37,0,4.78,0,7.14,0,1.18.53.94,2.59.94C108,40.13,109.94,40.3,110.25,39.79Z"/><path class="cls-7" d="M12,19.39c.48-.29,1.93-1.37,3-2a25.29,25.29,0,0,1,25.82.25c.44.26,1.19.83,1.58,1a14.87,14.87,0,0,0-2.81-2.83,19.16,19.16,0,0,0-12.78-4.25,18.88,18.88,0,0,0-8.82,2.5,20.09,20.09,0,0,0-3.34,2.37A18,18,0,0,0,12,19.39Z"/><path class="cls-6" d="M35.09,38.85c.4-.49.26-.32.26-1.14a1.49,1.49,0,0,0-1.4-1.47c-1.14-.06-1.49,1-1.62,1.24-.88-.09-1.76.2-2.11-.6a12.07,12.07,0,0,1-.13-2.57l-.88,0a8.2,8.2,0,0,0,0,1.8,2,2,0,0,0,.4,1.47c.79,1.09,1.71.84,2.81.84A1.52,1.52,0,0,0,35.09,38.85Z"/><path class="cls-6" d="M50.63,4.88c-.4-.23-.75-.4-1.19-.63a20.45,20.45,0,0,0-2.77-1,.71.71,0,0,0-.83.94c.26.43.4.32.88.46a16.49,16.49,0,0,1,5.74,3.17,22.91,22.91,0,0,1,3.39,4,23.16,23.16,0,0,1,1.46,2.76A18.85,18.85,0,0,1,58.64,19a30.77,30.77,0,0,1,.11,3.62c0,.85.56.85,1,.72s.36-.78.41-1.4a15.55,15.55,0,0,0-.31-3.86,32.53,32.53,0,0,0-1.09-3.81A36.38,36.38,0,0,0,56.18,9.8,18.36,18.36,0,0,0,50.63,4.88Z"/><path class="cls-7" d="M23.06,17.13a23.27,23.27,0,0,0,0,2.47c.18.35.66.35.7-.28a5.47,5.47,0,0,1,0-1.2l7.77,0c.09.48-.13,1.14.09,1.57.26.18.31.17.57,0a12.23,12.23,0,0,0,0-2.53Z"/><path class="cls-6" d="M29.9,27.78l0-1.29a34.68,34.68,0,0,0-4.57,0c-.09,1.71-.13,1.35,1.58,1.35A23.22,23.22,0,0,0,29.9,27.78Z"/><path class="cls-6" d="M54.36,20.79c0,.52,0,1.09,0,1.64,0,.29.07.71.51.74a.7.7,0,0,0,.72-.25,6.53,6.53,0,0,0,.15-1.49A15.91,15.91,0,0,0,54,15c-2.09-3.82-4-5.62-8.26-7.09-.38-.11-.64-.26-1,.14a.74.74,0,0,0,.18,1,11.28,11.28,0,0,1,4,1.78,14.85,14.85,0,0,1,5,7.27A13.22,13.22,0,0,1,54.36,20.79Z"/><path class="cls-6" d="M45.27,12.42c-.39-.07-1-.3-1.16.23-.11.32-.06.63.47.85s1.44.72,1.95,1a6.75,6.75,0,0,1,2.84,3.28,7.3,7.3,0,0,1,.83,3.61c0,.83,0,1.32.92,1.32a.7.7,0,0,0,.44-.66A12.59,12.59,0,0,0,50.92,18a11.11,11.11,0,0,0-2.39-3.62A9.75,9.75,0,0,0,45.27,12.42Z"/><path class="cls-6" d="M26.08,24.46V25a24,24,0,0,0,3.16,0v-1c-.35-.08-2.06,0-2.68,0S26.08,24,26.08,24.46Z"/><path class="cls-7" d="M40.66,45.38a.82.82,0,0,0,.53.54,17.07,17.07,0,0,0,2.33-2.83.83.83,0,0,0-.61-.4l-1.05,1.38C41.45,44.55,41.1,44.91,40.66,45.38Z"/><path class="cls-7" d="M34,49.68a1.65,1.65,0,0,0,.18.69,11.45,11.45,0,0,0,3.34-1.61l-.31-.6c-.4.12-1.1.6-1.54.8S34.38,49.45,34,49.68Z"/><path class="cls-7" d="M18.23,48.82a9.38,9.38,0,0,0,1.58.86,5.67,5.67,0,0,0,1.8.66l.22-.61c-.53-.28-1.14-.45-1.67-.71-.31-.12-1.36-.75-1.62-.8Z"/><path class="cls-7" d="M45,38.72l.61.25a15,15,0,0,0,.92-3.2c.13-.6.09-.57-.61-.58A13.24,13.24,0,0,1,45.49,37,14.56,14.56,0,0,0,45,38.72Z"/><path class="cls-7" d="M12.21,43.08A13.77,13.77,0,0,0,14.54,46a.79.79,0,0,0,.48-.54l-1.19-1.34c-.26-.31-.88-1.21-1.1-1.4Z"/><path class="cls-7" d="M9.09,35.34a14.34,14.34,0,0,0,1,3.67,1.1,1.1,0,0,0,.66-.29c-.13-.46-.35-1.09-.53-1.63a12.24,12.24,0,0,1-.4-1.8Z"/><path class="cls-7" d="M27.49,50.74c-1.62,0-1.4-.31-1.45.66a22.16,22.16,0,0,0,3.64,0,2.08,2.08,0,0,0,0-.74C29,50.65,28.24,50.76,27.49,50.74Z"/><polygon class="cls-6" points="26.52 22.66 28.72 22.68 28.76 21.74 26.57 21.74 26.52 22.66"/><path class="cls-7" d="M24.72,21.19c.22-.84-.66-.61-1.36-.61s-1.54-.22-1.32.61A7.84,7.84,0,0,0,24.72,21.19Z"/><path class="cls-7" d="M31.57,20.57c-.61,0-1.23-.12-1,.63a7.84,7.84,0,0,0,2.68,0v-.51A5,5,0,0,0,31.57,20.57Z"/><path class="cls-7" d="M32.71,22.63c.18-.66-.26-.61-.88-.61s-.92,0-.75.63A3.42,3.42,0,0,0,32.71,22.63Z"/><path class="cls-7" d="M23.06,22c-.48,0-.61.18-.48.63a3.23,3.23,0,0,0,1.62,0v-.49A2.5,2.5,0,0,0,23.06,22Z"/><path class="cls-6" d="M27,20.38h1.23c.09-.43.13-.55-.26-.6-.18,0-.75,0-.92,0Z"/><rect class="cls-8" x="59.07" y="45.13" width="0.6" height="6.01"/><path class="cls-6" d="M62.89,46.69h.57v.8a2.39,2.39,0,0,1,.76-.68,1.9,1.9,0,0,1,.91-.22,1.58,1.58,0,0,1,.89.25,1.51,1.51,0,0,1,.57.68,3.59,3.59,0,0,1,.18,1.33v2.29H66.2V49a5.09,5.09,0,0,0-.07-1A1,1,0,0,0,65,47.11a1.41,1.41,0,0,0-.93.34,1.59,1.59,0,0,0-.54.85,5.86,5.86,0,0,0-.08,1.21v1.63h-.57Z"/><path class="cls-6" d="M73.8,46.69h.57v3.54a4.18,4.18,0,0,1-.16,1.37,1.77,1.77,0,0,1-.78.94,2.56,2.56,0,0,1-1.33.33,3.07,3.07,0,0,1-1-.16,2.07,2.07,0,0,1-.74-.44,2.6,2.6,0,0,1-.53-.8h.62a1.64,1.64,0,0,0,.65.66,2.09,2.09,0,0,0,1,.21,2.07,2.07,0,0,0,1-.22,1.34,1.34,0,0,0,.57-.54,2.43,2.43,0,0,0,.17-1.06v-.23a2.16,2.16,0,0,1-.79.63,2.29,2.29,0,0,1-1,.22,2.31,2.31,0,0,1-1.15-.3A2.17,2.17,0,0,1,70,50a2.23,2.23,0,0,1-.29-1.13,2.31,2.31,0,0,1,2.3-2.3,2.16,2.16,0,0,1,.93.2,2.51,2.51,0,0,1,.83.68v-.77Zm-1.69.44a1.81,1.81,0,0,0-.9.23,1.7,1.7,0,0,0-.65.65,1.78,1.78,0,0,0-.24.9,1.62,1.62,0,0,0,.49,1.21,1.93,1.93,0,0,0,2.54,0,1.68,1.68,0,0,0,.48-1.25,1.81,1.81,0,0,0-.22-.9,1.61,1.61,0,0,0-.63-.62A1.74,1.74,0,0,0,72.11,47.14Z"/><path class="cls-6" d="M81.6,49.67l.48.25a2.63,2.63,0,0,1-.55.75,2.2,2.2,0,0,1-.7.43,2.46,2.46,0,0,1-.88.15,2.13,2.13,0,0,1-1.71-.71,2.39,2.39,0,0,1-.62-1.61,2.36,2.36,0,0,1,.52-1.5,2.13,2.13,0,0,1,1.77-.84,2.21,2.21,0,0,1,1.82.86A2.39,2.39,0,0,1,82.23,49h-4a1.8,1.8,0,0,0,.5,1.26,1.59,1.59,0,0,0,1.19.49,1.93,1.93,0,0,0,.66-.12,1.74,1.74,0,0,0,.55-.31,2.63,2.63,0,0,0,.49-.63Zm0-1.2a1.89,1.89,0,0,0-.34-.73,1.59,1.59,0,0,0-.58-.44,1.79,1.79,0,0,0-.76-.17,1.64,1.64,0,0,0-1.13.42,1.9,1.9,0,0,0-.52.92Z"/><path class="cls-6" d="M85.06,46.69h.57v.8a2.39,2.39,0,0,1,.76-.68,1.9,1.9,0,0,1,.91-.22,1.58,1.58,0,0,1,.89.25,1.51,1.51,0,0,1,.57.68,3.59,3.59,0,0,1,.18,1.33v2.29h-.57V49a5.09,5.09,0,0,0-.07-1,1,1,0,0,0-1.12-.88,1.41,1.41,0,0,0-.93.34,1.59,1.59,0,0,0-.54.85,5.87,5.87,0,0,0-.08,1.21v1.63h-.57Z"/><path class="cls-6" d="M92.38,44.87a.45.45,0,0,1,.33.14.47.47,0,0,1,0,.67.46.46,0,0,1-.66,0A.47.47,0,0,1,92,45a.44.44,0,0,1,.33-.14Zm-.28,1.82h.57v4.45H92.1Z"/><path class="cls-6" d="M99.94,49.67l.48.25a2.63,2.63,0,0,1-.55.75,2.21,2.21,0,0,1-.7.43,2.46,2.46,0,0,1-.88.15,2.13,2.13,0,0,1-1.71-.71A2.39,2.39,0,0,1,96,48.93a2.36,2.36,0,0,1,.52-1.5,2.13,2.13,0,0,1,1.77-.84,2.21,2.21,0,0,1,1.82.86,2.39,2.39,0,0,1,.49,1.52h-4a1.8,1.8,0,0,0,.5,1.26,1.59,1.59,0,0,0,1.19.49,1.93,1.93,0,0,0,.66-.12,1.74,1.74,0,0,0,.55-.31,2.63,2.63,0,0,0,.49-.63Zm0-1.2a1.89,1.89,0,0,0-.33-.73A1.59,1.59,0,0,0,99,47.3a1.79,1.79,0,0,0-.76-.17,1.64,1.64,0,0,0-1.13.42,1.9,1.9,0,0,0-.52.92Z"/><path class="cls-6" d="M104.23,46.69h.59v.65a2,2,0,0,1,.55-.57,1.11,1.11,0,0,1,.61-.19,1,1,0,0,1,.51.15l-.3.48a.8.8,0,0,0-.3-.08.83.83,0,0,0-.55.23,1.49,1.49,0,0,0-.41.73,7,7,0,0,0-.11,1.53v1.5h-.59Z"/><path class="cls-6" d="M110,46.69h.57v4.45H110V46.69Zm.57-2.08h.88l-1.2,1.26h-.56Z"/><path class="cls-6" d="M118.42,46.69v4.45h-.57v-.76A2.42,2.42,0,0,1,117,51a2.2,2.2,0,0,1-1,.22,2.17,2.17,0,0,1-1.61-.68,2.29,2.29,0,0,1-.67-1.66,2.24,2.24,0,0,1,.67-1.64,2.19,2.19,0,0,1,1.62-.68,2.11,2.11,0,0,1,1,.23,2.23,2.23,0,0,1,.78.7v-.82Zm-2.29.44a1.73,1.73,0,0,0-1.52.89,1.79,1.79,0,0,0,0,1.79,1.74,1.74,0,0,0,.65.66,1.69,1.69,0,0,0,.87.24,1.78,1.78,0,0,0,.89-.24,1.64,1.64,0,0,0,.65-.64,1.82,1.82,0,0,0,.23-.91,1.76,1.76,0,0,0-.51-1.28A1.68,1.68,0,0,0,116.13,47.14Z"/><path class="cls-6" d="M127,50l.51-.31q.54,1,1.25,1a1.2,1.2,0,0,0,.57-.14,1,1,0,0,0,.4-.38,1,1,0,0,0,.14-.5,1,1,0,0,0-.21-.59,4.87,4.87,0,0,0-1-1,5.3,5.3,0,0,1-.94-.82,1.5,1.5,0,0,1-.32-.92,1.39,1.39,0,0,1,.19-.71,1.34,1.34,0,0,1,.53-.51,1.53,1.53,0,0,1,.74-.19,1.58,1.58,0,0,1,.8.21,2.73,2.73,0,0,1,.79.77l-.49.37a2.35,2.35,0,0,0-.58-.59,1,1,0,0,0-.52-.14.84.84,0,0,0-.6.22.72.72,0,0,0-.23.54.93.93,0,0,0,.08.38,1.4,1.4,0,0,0,.3.4c.08.08.34.28.78.6a4.42,4.42,0,0,1,1.07,1,1.65,1.65,0,0,1,.29.9,1.53,1.53,0,0,1-.5,1.14,1.67,1.67,0,0,1-1.21.48,1.77,1.77,0,0,1-1-.29A2.69,2.69,0,0,1,127,50Z"/><path class="cls-6" d="M134.61,50.24a.49.49,0,0,1,.36.15.51.51,0,0,1,0,.72.5.5,0,0,1-.71,0,.51.51,0,0,1,.36-.86Z"/><path class="cls-6" d="M141.17,45.24l2.8,6h-.65l-.94-2h-2.6l-.93,2h-.67l2.84-6Zm-.08,1.26-1,2.19h2.06Z"/><path class="cls-6" d="M147.75,50.24a.49.49,0,0,1,.36.15.51.51,0,0,1,0,.72.5.5,0,0,1-.71,0,.51.51,0,0,1,.36-.86Z"/><path class="cls-6" d="M151.23,50l.51-.31q.54,1,1.25,1a1.2,1.2,0,0,0,.57-.14,1,1,0,0,0,.4-.38,1,1,0,0,0,.14-.5,1,1,0,0,0-.21-.59,4.87,4.87,0,0,0-1-1,5.3,5.3,0,0,1-.94-.82,1.5,1.5,0,0,1-.32-.92,1.39,1.39,0,0,1,.19-.71,1.34,1.34,0,0,1,.53-.51,1.53,1.53,0,0,1,.74-.19,1.58,1.58,0,0,1,.8.21,2.73,2.73,0,0,1,.79.77l-.49.37a2.35,2.35,0,0,0-.58-.59,1,1,0,0,0-.52-.14.84.84,0,0,0-.6.22.72.72,0,0,0-.23.54.93.93,0,0,0,.08.38,1.41,1.41,0,0,0,.3.4c.08.08.34.28.78.6a4.42,4.42,0,0,1,1.07,1,1.65,1.65,0,0,1,.29.9,1.53,1.53,0,0,1-.5,1.14,1.67,1.67,0,0,1-1.21.48,1.77,1.77,0,0,1-1-.29A2.68,2.68,0,0,1,151.23,50Z"/><path class="cls-6" d="M157.35,50.24a.49.49,0,0,1,.36.15.51.51,0,0,1,0,.72.5.5,0,0,1-.71,0,.51.51,0,0,1,.36-.86Z"/></svg>