<svg id="Capa_1" data-name="Capa 1" xmlns="http://www.w3.org/2000/svg" xmlns:xlink="http://www.w3.org/1999/xlink" viewBox="0 0 40 40"><defs><style>.cls-1,.cls-7,.cls-8{fill:none;}.cls-2{fill:#fff;}.cls-3{fill:#1ab3a3;}.cls-4{fill:#e6b64c;}.cls-5{clip-path:url(#clip-path);}.cls-6{clip-path:url(#clip-path-2);}.cls-7{stroke:#1ab3a3;}.cls-7,.cls-8{stroke-miterlimit:10;stroke-width:2px;}.cls-8{stroke:#e6b64c;}</style><clipPath id="clip-path"><rect class="cls-1" x="6" y="157.11" width="820" height="759.11"/></clipPath><clipPath id="clip-path-2"><rect class="cls-1" x="6.36" y="157.67" width="981.21" height="758.56"/></clipPath></defs><title>Mesa de trabajo 1</title><circle class="cls-2" cx="20" cy="20" r="20"/><path class="cls-3" d="M22,23.4l1.23,2.78L22,28.92,14.46,12.16H17l5,11.25Z"/><path class="cls-3" d="M29.58,12.19l-6.33,14L22,23.44l5-11.25Z"/><path class="cls-3" d="M29.57,17.71l-1.23-2.78,1.24-2.74,7.57,16.75h-2.6l-5-11.25Z"/><polygon class="cls-4" points="13.93 21.73 5.97 21.73 5.97 19.39 15.5 19.39 13.93 21.73"/><polygon class="cls-3" points="4.18 12.16 15.63 12.16 15.63 14.5 5.75 14.5 4.18 12.16"/><polygon class="cls-3" points="5.62 26.61 15.5 26.61 15.5 28.95 4.05 28.95 5.62 26.61"/><polygon class="cls-4" points="28.52 19.39 32.83 19.39 33.88 21.73 30.09 21.73 28.52 19.39"/><g class="cls-5"><g class="cls-6"><polyline class="cls-7" points="-190.71 1201.84 481.82 871.8 489.5 -229.73"/><polyline class="cls-8" points="-232.88 1174.18 439.65 844.14 447.33 -257.39"/><polyline class="cls-7" points="-274.06 1147.05 398.47 817.01 406.15 -284.52"/><polyline class="cls-8" points="-315.9 1119.57 356.63 789.52 364.3 -312"/><polyline class="cls-7" points="-357.14 1092.47 315.39 762.43 323.06 -339.1"/><polyline class="cls-8" points="-141.94 172.17 484.01 583.76 1436.68 30.73"/><polyline class="cls-7" points="-140.56 122.33 484.27 533.18 1438.06 -19.11"/><polyline class="cls-8" points="-141.27 73.08 484.68 484.67 1437.36 -68.36"/><polyline class="cls-7" points="-141.14 25.6 484.82 437.19 1437.49 -115.84"/><polyline class="cls-8" points="701.41 -0.42 28.89 329.63 21.21 1431.15"/></g></g></svg>