<svg id="Capa_1" data-name="Capa 1" xmlns="http://www.w3.org/2000/svg" xmlns:xlink="http://www.w3.org/1999/xlink" viewBox="0 0 153.37 320"><defs><style>.cls-1,.cls-4{fill:none;}.cls-2{clip-path:url(#clip-path);}.cls-3{clip-path:url(#clip-path-2);}.cls-4{stroke:#3b9f9b;stroke-miterlimit:10;stroke-width:0.75px;}.cls-5{clip-path:url(#clip-path-3);}.cls-6{opacity:0.4;}.cls-7{fill:#3c9590;}.cls-8{fill:#ddb04e;}</style><clipPath id="clip-path"><rect class="cls-1" x="-1064.59" y="-1100.44" width="820" height="759.11"/></clipPath><clipPath id="clip-path-2"><rect class="cls-1" x="-87.4" y="389.65" width="320" height="155.25"/></clipPath><clipPath id="clip-path-3"><rect class="cls-1" y="1.64" width="154.05" height="318.36"/></clipPath></defs><title>FONDO MENÚ</title><g class="cls-3"><polyline class="cls-4" points="239.8 345.31 93.12 441.76 -130.11 312.17"/></g><g class="cls-5"><g class="cls-6"><path class="cls-7" d="M-54.14,209l-7.2-17-7.3-16.95-3.66-8.47-1.83-4.23c-.27-.71-.68-1.31-1-2.06a3.22,3.22,0,0,1-.32-1.24,2,2,0,0,1,.49-1.29,1.63,1.63,0,0,1,1.32-.5,6.53,6.53,0,0,1,1.2.21,18.15,18.15,0,0,0,2.24.25l4.6.38,9.19.76,36.76,3.2,18.38,1.6,4.6.4,2.32.21a9.74,9.74,0,0,1,1.24.2,3.08,3.08,0,0,1,.74.29,2.3,2.3,0,0,1,.4.33,1.66,1.66,0,0,1,.28.5,2.71,2.71,0,0,1-.06,1.6c-.12.41-.26.79-.4,1.16l-.89,2.15-1.78,4.25c-9.49,22.7-18.88,45.44-28.6,68l-3.68,8.46L-29,255.48l-.45,1c-.12.31-.24.67-.36,1a7.11,7.11,0,0,1-.51,1.21,2.23,2.23,0,0,1-1.34,1.15,1.91,1.91,0,0,1-1.86-.51,3.63,3.63,0,0,1-.74-1.29c-.15-.4-.25-.79-.36-1.14a9.07,9.07,0,0,0-.37-1l-1.73-4.28-3.46-8.55L-47.08,226Zm.18-.08,7.35,16.93,7.47,16.87,3.74,8.43,1.87,4.22a10.75,10.75,0,0,1,.45,1.14c.13.38.24.73.36,1a2.27,2.27,0,0,0,.4.7.24.24,0,0,0,.26.07c.11.05.48-.59.67-1.29.11-.35.22-.73.38-1.14l.45-1.09,1.76-4.26,3.52-8.53c9.47-22.7,19.27-45.27,29-67.88l1.82-4.24.89-2.11c.14-.35.27-.69.36-1a1.72,1.72,0,0,0,.1-.67s0,0,0,0,0,0,0,0a1.77,1.77,0,0,0-.33-.13,8.51,8.51,0,0,0-1-.17l-2.28-.23-4.59-.44-18.37-1.75-36.74-3.5-9.18-.91-4.59-.45a18.46,18.46,0,0,1-2.34-.3c-.75-.2-1.48-.37-1.83,0a1.27,1.27,0,0,0-.32.81,2.57,2.57,0,0,0,.24,1c.29.65.72,1.35,1,2.08l1.77,4.26,3.53,8.52,7.1,17Z"/></g><g class="cls-6"><path class="cls-8" d="M-78.75,206.64l.1-24.81V157l0-12.4v-9.3c0-1-.19-2-.15-3.11a3.19,3.19,0,0,1,.45-1.67,1.83,1.83,0,0,1,1.67-.81,3,3,0,0,1,1.55.82c.41.36.76.75,1.12,1.09,1.52,1.28,3.23,2.55,4.83,3.82l9.77,7.64,39,30.68L-1,189.13l9.75,7.67,4.88,3.84a17.49,17.49,0,0,1,2.43,2.18,3.22,3.22,0,0,1,.52.9,2.43,2.43,0,0,1,.12.61,2.83,2.83,0,0,1-.08.63,4,4,0,0,1-1.06,1.6c-1.58,1.54-3.16,2.76-4.74,4.13l-4.73,4-9.47,8-18.93,16-38,31.93-9.55,7.91-2.39,2-1.19,1c-.2.17-.4.33-.55.47l-.52.52a11.81,11.81,0,0,1-1.22,1.15,3.73,3.73,0,0,1-.87.52,2.3,2.3,0,0,1-1.23.13A2.62,2.62,0,0,1-79.53,283a4.27,4.27,0,0,1-.38-1.88c0-1.15.21-2.18.22-3.11l0-3.1.1-6.2.19-12.4.37-24.81Zm.2,0,.06,24.81.2,24.81.11,12.4.05,6.2,0,3.1c0,1.14-.19,2.16-.16,3.08a2.7,2.7,0,0,0,.22,1.14,1,1,0,0,0,.58.48.62.62,0,0,0,.29,0,2.1,2.1,0,0,0,.45-.28,10.5,10.5,0,0,0,1-1c.18-.19.37-.39.57-.59s.43-.38.62-.54l1.18-1,2.36-2,9.44-8,38-31.92,19.05-15.89L5,213.39l4.76-4c1.56-1.33,3.26-2.64,4.65-4a2.73,2.73,0,0,0,.69-.93.45.45,0,0,0,0-.28,1.74,1.74,0,0,0-.26-.43,16.76,16.76,0,0,0-2.18-2L7.85,198l-9.7-7.73-19.41-15.46-38.81-30.91-9.68-7.76c-1.62-1.32-3.22-2.53-4.85-3.93-.38-.37-.72-.75-1.09-1.08a2.28,2.28,0,0,0-1.12-.65,1.1,1.1,0,0,0-1,.49,2.52,2.52,0,0,0-.34,1.29c0,1,.13,2,.12,3.08l0,3.1-.06,6.2-.12,12.4-.21,24.81Z"/></g><g class="cls-6"><path class="cls-7" d="M-54.14,107.35l-7.2-17-7.3-16.95-3.66-8.47-1.83-4.23c-.27-.71-.68-1.31-1-2.06a3.22,3.22,0,0,1-.32-1.24A2,2,0,0,1-75,56.12a1.63,1.63,0,0,1,1.32-.5,6.53,6.53,0,0,1,1.2.21,18.15,18.15,0,0,0,2.24.25l4.6.38,9.19.76,36.76,3.2L-1.29,62l4.6.4,2.32.21a9.76,9.76,0,0,1,1.24.2,3.08,3.08,0,0,1,.74.29,2.3,2.3,0,0,1,.4.33,1.66,1.66,0,0,1,.28.5,2.71,2.71,0,0,1-.06,1.6c-.12.41-.26.79-.4,1.16l-.89,2.15L5.16,73.11c-9.49,22.7-18.88,45.44-28.6,68l-3.68,8.46L-29,153.84l-.45,1c-.12.31-.24.67-.36,1a7.11,7.11,0,0,1-.51,1.21,2.23,2.23,0,0,1-1.34,1.15,1.91,1.91,0,0,1-1.86-.51,3.63,3.63,0,0,1-.74-1.29c-.15-.4-.25-.79-.36-1.14a9.06,9.06,0,0,0-.37-1L-36.66,150l-3.46-8.55-6.95-17.1Zm.18-.08,7.35,16.93,7.47,16.87,3.74,8.43,1.87,4.22a10.77,10.77,0,0,1,.45,1.14c.13.38.24.73.36,1a2.27,2.27,0,0,0,.4.7.24.24,0,0,0,.26.07c.11.05.48-.59.67-1.29.11-.35.22-.73.38-1.14l.45-1.09,1.76-4.26,3.52-8.53c9.47-22.7,19.27-45.27,29-67.88L5.5,68.24l.89-2.11c.14-.35.27-.69.36-1a1.72,1.72,0,0,0,.1-.67s0,0,0,0,0,0,0,0a1.76,1.76,0,0,0-.33-.13,8.52,8.52,0,0,0-1-.17l-2.28-.23-4.59-.44-18.37-1.75-36.74-3.5-9.18-.91-4.59-.45a18.48,18.48,0,0,1-2.34-.3c-.75-.2-1.48-.37-1.83,0a1.27,1.27,0,0,0-.32.81,2.57,2.57,0,0,0,.24,1c.29.65.72,1.35,1,2.08l1.77,4.26,3.53,8.52,7.1,17Z"/></g><g class="cls-6"><path class="cls-8" d="M-78.75,105l.1-24.81V55.39l0-12.4v-9.3c0-1-.19-2-.15-3.11a3.19,3.19,0,0,1,.45-1.67,1.83,1.83,0,0,1,1.67-.81,3,3,0,0,1,1.55.82c.41.36.76.75,1.12,1.09,1.52,1.28,3.23,2.55,4.83,3.82l9.77,7.64,39,30.68L-1,87.49l9.75,7.67L13.67,99a17.49,17.49,0,0,1,2.43,2.18,3.21,3.21,0,0,1,.52.9,2.43,2.43,0,0,1,.12.61,2.83,2.83,0,0,1-.08.63,4,4,0,0,1-1.06,1.6c-1.58,1.54-3.16,2.76-4.74,4.13l-4.73,4-9.47,8-18.93,16-38,31.93-9.55,7.91-2.39,2-1.19,1c-.2.17-.4.33-.55.47l-.52.52A11.81,11.81,0,0,1-75.66,182a3.73,3.73,0,0,1-.87.52,2.3,2.3,0,0,1-1.23.13,2.62,2.62,0,0,1-1.77-1.38,4.27,4.27,0,0,1-.38-1.88c0-1.15.21-2.18.22-3.11l0-3.1.1-6.2.19-12.4.37-24.81Zm.2,0,.06,24.81.2,24.81.11,12.4.05,6.2,0,3.1c0,1.14-.19,2.16-.16,3.08a2.7,2.7,0,0,0,.22,1.14,1,1,0,0,0,.58.48.62.62,0,0,0,.29,0,2.11,2.11,0,0,0,.45-.28,10.48,10.48,0,0,0,1-1c.18-.19.37-.39.57-.59s.43-.38.62-.54l1.18-1,2.36-2,9.44-8,38-31.92L-4.49,119.7,5,111.75l4.76-4c1.56-1.33,3.26-2.64,4.65-4a2.73,2.73,0,0,0,.69-.93.45.45,0,0,0,0-.28,1.74,1.74,0,0,0-.26-.43,16.76,16.76,0,0,0-2.18-2L7.85,96.35l-9.7-7.73L-21.26,73.17-60.07,42.25l-9.68-7.76C-71.37,33.18-73,32-74.6,30.56c-.38-.37-.72-.75-1.09-1.08a2.28,2.28,0,0,0-1.12-.65,1.1,1.1,0,0,0-1,.49,2.51,2.51,0,0,0-.34,1.29c0,1,.13,2,.12,3.08l0,3.1-.06,6.2-.12,12.4-.21,24.81Z"/></g><g class="cls-6"><path class="cls-7" d="M-10.07,158.35l-7.2-17-7.3-16.95-3.66-8.47-1.83-4.23c-.27-.71-.68-1.31-1-2.06a3.22,3.22,0,0,1-.32-1.24,2,2,0,0,1,.49-1.29,1.63,1.63,0,0,1,1.32-.5,6.53,6.53,0,0,1,1.2.21,18.15,18.15,0,0,0,2.24.25l4.6.38,9.19.76,36.76,3.2L42.79,113l4.6.4,2.32.21a9.79,9.79,0,0,1,1.24.2,3.08,3.08,0,0,1,.74.29,2.3,2.3,0,0,1,.4.33,1.66,1.66,0,0,1,.28.5,2.71,2.71,0,0,1-.06,1.6c-.12.41-.26.79-.4,1.16L51,119.85l-1.78,4.26c-9.49,22.7-18.88,45.44-28.6,68L17,200.61l-1.84,4.23-.45,1c-.12.31-.24.67-.36,1a7.1,7.1,0,0,1-.51,1.21,2.23,2.23,0,0,1-1.34,1.15,1.91,1.91,0,0,1-1.86-.51,3.63,3.63,0,0,1-.74-1.29c-.15-.4-.25-.79-.36-1.14a9,9,0,0,0-.37-1L7.41,201l-3.47-8.55L-3,175.4Zm.18-.08,7.35,16.93,7.47,16.87,3.74,8.43,1.87,4.22a10.75,10.75,0,0,1,.45,1.14c.13.38.24.73.36,1a2.27,2.27,0,0,0,.4.7.24.24,0,0,0,.26.07c.11.05.48-.59.67-1.29.11-.35.22-.73.38-1.14l.45-1.09,1.76-4.26,3.52-8.53c9.47-22.7,19.27-45.27,29-67.88l1.82-4.24.89-2.11c.14-.35.27-.69.36-1a1.72,1.72,0,0,0,.1-.67s0,0,0,0,0,0,0,0a1.77,1.77,0,0,0-.33-.13,8.51,8.51,0,0,0-1-.17l-2.28-.23-4.59-.44-18.37-1.75-36.74-3.5-9.18-.91-4.59-.45a18.51,18.51,0,0,1-2.34-.3c-.75-.2-1.48-.37-1.83,0a1.27,1.27,0,0,0-.32.81,2.57,2.57,0,0,0,.24,1c.29.65.72,1.35,1,2.08l1.77,4.26,3.53,8.52,7.1,17Z"/></g><g class="cls-6"><path class="cls-8" d="M-34.67,156l.1-24.81V106.39l0-12.4v-9.3c0-1-.19-2-.15-3.11a3.19,3.19,0,0,1,.45-1.67,1.83,1.83,0,0,1,1.67-.81,3,3,0,0,1,1.55.82c.41.36.76.75,1.12,1.09,1.52,1.28,3.23,2.55,4.83,3.82l9.77,7.64,39,30.68,19.5,15.34,9.75,7.67L57.74,150a17.49,17.49,0,0,1,2.43,2.18,3.21,3.21,0,0,1,.52.9,2.43,2.43,0,0,1,.12.61,2.83,2.83,0,0,1-.08.63,4,4,0,0,1-1.06,1.6c-1.58,1.54-3.16,2.76-4.74,4.13l-4.73,4-9.47,8-18.93,16-38,31.93-9.55,7.91-2.39,2-1.19,1c-.2.17-.4.33-.55.47l-.52.52a11.8,11.8,0,0,1-1.22,1.15,3.73,3.73,0,0,1-.87.52,2.3,2.3,0,0,1-1.23.13,2.62,2.62,0,0,1-1.77-1.38,4.27,4.27,0,0,1-.38-1.88c0-1.15.21-2.18.22-3.11l0-3.1.1-6.2.19-12.4.37-24.81Zm.2,0,.06,24.81.2,24.81.11,12.4.05,6.2,0,3.1c0,1.14-.19,2.16-.16,3.08a2.7,2.7,0,0,0,.22,1.14,1,1,0,0,0,.58.48.62.62,0,0,0,.29,0,2.11,2.11,0,0,0,.45-.28,10.48,10.48,0,0,0,1-1c.18-.19.37-.39.57-.59s.43-.38.62-.54l1.18-1,2.36-2,9.44-8,38-31.92L39.59,170.7l9.53-7.94,4.76-4c1.56-1.33,3.26-2.64,4.65-4a2.74,2.74,0,0,0,.69-.93.45.45,0,0,0,0-.28,1.74,1.74,0,0,0-.26-.43,16.75,16.75,0,0,0-2.18-2l-4.85-3.86-9.7-7.73L22.81,124.17-16,93.25l-9.68-7.76c-1.62-1.32-3.22-2.53-4.85-3.93-.38-.37-.72-.75-1.09-1.08a2.28,2.28,0,0,0-1.12-.65,1.1,1.1,0,0,0-1,.49,2.51,2.51,0,0,0-.34,1.29c0,1,.13,2,.12,3.08l0,3.1L-34,94l-.12,12.4-.21,24.81Z"/></g><g class="cls-6"><path class="cls-8" d="M241.46,222.18l-.1-24.81-.21-24.81-.12-12.4L241,154l0-3.1c0-1.07.16-2.1.12-3.08a2.52,2.52,0,0,0-.34-1.29,1.1,1.1,0,0,0-1-.49,2.28,2.28,0,0,0-1.12.65c-.36.33-.71.71-1.09,1.08-1.62,1.4-3.23,2.62-4.85,3.93L223,159.43l-38.81,30.91L164.78,205.8l-9.7,7.73-4.85,3.86a16.77,16.77,0,0,0-2.18,2,1.74,1.74,0,0,0-.26.43.45.45,0,0,0,0,.28,2.73,2.73,0,0,0,.69.93c1.39,1.34,3.09,2.65,4.65,4l4.76,4,9.53,7.94,19.05,15.89,38,31.92,9.44,8,2.36,2,1.18,1c.19.16.39.33.62.54s.4.4.57.59a10.48,10.48,0,0,0,1,1,2.11,2.11,0,0,0,.45.28.62.62,0,0,0,.29,0,1,1,0,0,0,.58-.48,2.7,2.7,0,0,0,.22-1.14c0-.92-.17-1.94-.16-3.08l0-3.1.05-6.2.11-12.4.2-24.81Zm.2,0L241.9,247l.37,24.81.19,12.4.1,6.2,0,3.1c0,.93.22,2,.22,3.11a4.27,4.27,0,0,1-.38,1.88,2.62,2.62,0,0,1-1.77,1.38,2.3,2.3,0,0,1-1.23-.13,3.73,3.73,0,0,1-.87-.52,11.8,11.8,0,0,1-1.22-1.15l-.52-.52c-.15-.14-.35-.3-.55-.47l-1.19-1-2.39-2-9.55-7.91-38-31.93-18.93-16-9.47-8-4.73-4c-1.57-1.37-3.16-2.59-4.74-4.13a4,4,0,0,1-1.06-1.6,2.82,2.82,0,0,1-.08-.63,2.42,2.42,0,0,1,.12-.61,3.21,3.21,0,0,1,.52-.9,17.49,17.49,0,0,1,2.43-2.18l4.88-3.84,9.75-7.67,19.5-15.34,39-30.68,9.77-7.64c1.6-1.28,3.31-2.54,4.83-3.82.36-.35.72-.73,1.12-1.09a3,3,0,0,1,1.55-.82,1.83,1.83,0,0,1,1.67.81,3.19,3.19,0,0,1,.45,1.67c0,1.09-.16,2.12-.15,3.11v9.3l0,12.4v24.81Z"/></g><g class="cls-6"><path class="cls-8" d="M241.46,120.54l-.1-24.81-.21-24.81L241,58.52l-.06-6.2,0-3.1c0-1.07.16-2.1.12-3.08a2.52,2.52,0,0,0-.34-1.29,1.1,1.1,0,0,0-1-.49,2.28,2.28,0,0,0-1.12.65c-.36.33-.71.71-1.09,1.08-1.62,1.4-3.23,2.62-4.85,3.93L223,57.79,184.18,88.7l-19.41,15.46-9.7,7.73-4.85,3.86a16.76,16.76,0,0,0-2.18,2,1.74,1.74,0,0,0-.26.43.45.45,0,0,0,0,.28,2.74,2.74,0,0,0,.69.93c1.39,1.34,3.09,2.65,4.65,4l4.76,4,9.53,7.94,19.05,15.89,38,31.92,9.44,8,2.36,2,1.18,1c.19.16.39.33.62.54s.4.4.57.59a10.51,10.51,0,0,0,1,1,2.11,2.11,0,0,0,.45.28.62.62,0,0,0,.29,0,1,1,0,0,0,.58-.48,2.7,2.7,0,0,0,.22-1.14c0-.92-.17-1.94-.16-3.08l0-3.1.05-6.2.11-12.4.2-24.81Zm.2,0,.24,24.81.37,24.81.19,12.4.1,6.2,0,3.1c0,.93.22,2,.22,3.11a4.27,4.27,0,0,1-.38,1.88,2.62,2.62,0,0,1-1.77,1.38,2.3,2.3,0,0,1-1.23-.13,3.73,3.73,0,0,1-.87-.52,11.79,11.79,0,0,1-1.22-1.15l-.52-.52c-.15-.14-.35-.3-.55-.47l-1.19-1-2.39-2-9.55-7.91-38-31.93-18.93-16-9.47-8-4.73-4c-1.57-1.37-3.16-2.59-4.74-4.13a4,4,0,0,1-1.06-1.6,2.82,2.82,0,0,1-.08-.63,2.42,2.42,0,0,1,.12-.61,3.21,3.21,0,0,1,.52-.9,17.49,17.49,0,0,1,2.43-2.18l4.88-3.84,9.75-7.67,19.5-15.34,39-30.68,9.77-7.64c1.6-1.28,3.31-2.54,4.83-3.82.36-.35.72-.73,1.12-1.09a3,3,0,0,1,1.55-.82,1.83,1.83,0,0,1,1.67.81,3.19,3.19,0,0,1,.45,1.67c0,1.09-.16,2.12-.15,3.11v9.3l0,12.4V95.73Z"/></g><g class="cls-6"><path class="cls-7" d="M172.81,173.81l7.2-17,7.1-17,3.53-8.52,1.77-4.26c.27-.73.71-1.43,1-2.08a2.57,2.57,0,0,0,.24-1,1.27,1.27,0,0,0-.32-.81c-.35-.42-1.08-.24-1.83,0a18.48,18.48,0,0,1-2.34.3l-4.59.45-9.18.91-36.74,3.5L120.26,130l-4.59.44-2.28.23a8.53,8.53,0,0,0-1,.17,1.75,1.75,0,0,0-.33.13s0,0,0,0,0,0,0,0a1.72,1.72,0,0,0,.1.67c.1.32.23.67.36,1l.89,2.11,1.82,4.24c9.69,22.61,19.49,45.18,29,67.88l3.52,8.53,1.76,4.26.45,1.09c.16.41.26.79.38,1.14.19.7.56,1.34.67,1.29a.24.24,0,0,0,.26-.07,2.28,2.28,0,0,0,.4-.7c.13-.32.24-.67.36-1a10.77,10.77,0,0,1,.45-1.14l1.87-4.22,3.74-8.43,7.47-16.87Zm.18.08-7.07,17L159,208l-3.47,8.55-1.73,4.28a9.07,9.07,0,0,0-.37,1c-.11.36-.21.74-.36,1.14a3.63,3.63,0,0,1-.74,1.29,1.91,1.91,0,0,1-1.86.51,2.23,2.23,0,0,1-1.34-1.15,7.11,7.11,0,0,1-.51-1.21c-.13-.38-.24-.74-.36-1l-.45-1L146,216.15l-3.68-8.46c-9.72-22.6-19.1-45.34-28.6-68l-1.78-4.25-.89-2.15c-.14-.37-.28-.75-.4-1.16a2.71,2.71,0,0,1-.06-1.6,1.66,1.66,0,0,1,.28-.5,2.29,2.29,0,0,1,.4-.33,3.08,3.08,0,0,1,.74-.29,9.76,9.76,0,0,1,1.24-.2l2.31-.21,4.6-.4,18.38-1.6,36.76-3.2,9.19-.76,4.6-.38a18.2,18.2,0,0,0,2.24-.25,6.52,6.52,0,0,1,1.2-.21,1.63,1.63,0,0,1,1.32.5,2,2,0,0,1,.49,1.29,3.22,3.22,0,0,1-.32,1.24c-.35.75-.75,1.35-1,2.06l-1.83,4.23L187.48,140l-7.3,16.95Z"/></g><g class="cls-6"><path class="cls-8" d="M197.39,171.54l-.1-24.81-.21-24.81-.12-12.4-.06-6.2,0-3.1c0-1.07.16-2.1.12-3.08a2.52,2.52,0,0,0-.34-1.29,1.1,1.1,0,0,0-1-.49,2.28,2.28,0,0,0-1.12.65c-.36.33-.71.71-1.09,1.08-1.62,1.4-3.23,2.62-4.85,3.93l-9.68,7.76L140.11,139.7,120.7,155.16l-9.7,7.73-4.85,3.86a16.76,16.76,0,0,0-2.18,2,1.74,1.74,0,0,0-.26.43.45.45,0,0,0,0,.28,2.74,2.74,0,0,0,.69.93c1.39,1.34,3.09,2.65,4.65,4l4.76,4,9.53,7.94,19.05,15.89,38,31.92,9.44,8,2.36,2,1.18,1c.19.16.39.33.62.54s.4.4.57.59a10.51,10.51,0,0,0,1,1,2.1,2.1,0,0,0,.45.28.62.62,0,0,0,.29,0,1,1,0,0,0,.58-.48,2.7,2.7,0,0,0,.22-1.14c0-.92-.17-1.94-.16-3.08l0-3.1.05-6.2.11-12.4.2-24.81Zm.2,0,.24,24.81.37,24.81.19,12.4.1,6.2,0,3.1c0,.93.22,2,.22,3.11a4.27,4.27,0,0,1-.38,1.88,2.62,2.62,0,0,1-1.77,1.38,2.3,2.3,0,0,1-1.23-.13,3.72,3.72,0,0,1-.87-.52,11.79,11.79,0,0,1-1.22-1.15l-.52-.52c-.15-.14-.35-.3-.55-.47l-1.19-1-2.39-2-9.55-7.91-38-31.93-18.93-16-9.47-8-4.73-4c-1.57-1.37-3.16-2.59-4.74-4.13a4,4,0,0,1-1.06-1.6,2.83,2.83,0,0,1-.08-.63,2.43,2.43,0,0,1,.12-.61,3.21,3.21,0,0,1,.52-.9,17.5,17.5,0,0,1,2.43-2.18l4.88-3.84L119.8,154l19.5-15.34,39-30.68,9.77-7.64c1.6-1.28,3.31-2.54,4.83-3.82.36-.35.72-.73,1.12-1.09a3,3,0,0,1,1.55-.82,1.83,1.83,0,0,1,1.67.81,3.19,3.19,0,0,1,.45,1.67c0,1.09-.16,2.12-.15,3.11v9.3l0,12.4v24.81Z"/></g><g class="cls-6"><path class="cls-7" d="M120.56,290.6l-14.34,7.56-14.29,7.66-7.14,3.85-1.78,1a19.87,19.87,0,0,1-1.77,1.06,1.49,1.49,0,0,1-2.06-.93,5,5,0,0,1,.13-2.16l1.06-16.15,2.22-32.36,1.11-16.18.55-8.09.28-4a13.46,13.46,0,0,1,.27-2.15,2.26,2.26,0,0,1,.28-.69,1.42,1.42,0,0,1,.88-.64,2.48,2.48,0,0,1,1.45.22c1.37.59,2.48,1.24,3.7,1.85l3.6,1.87,7.19,3.74,14.39,7.48L130.64,251l14.33,7.6,7.13,3.86,3.57,1.93,1.78,1,.89.48a6.4,6.4,0,0,0,.83.4,10.26,10.26,0,0,1,1,.45,2.61,2.61,0,0,1,1.06,1,2.09,2.09,0,0,1,.14,1.6,2.17,2.17,0,0,1-1,1.17c-.75.44-1.42.57-1.91.83l-1.81.91-7.24,3.65L135,283.16Zm-.09-.18,14.27-7.71,14.21-7.83L156,271l1.77-1c.7-.38,1.37-.55,1.78-.83.2-.14.29-.25.3-.35a.54.54,0,0,0,0-.36,3,3,0,0,0-1.29-.69,8.23,8.23,0,0,1-1-.46l-.9-.46-1.8-.93-3.61-1.85L144,260.35l-14.36-7.53-14.32-7.61L101,237.57l-7.15-3.82-3.57-1.91c-1.18-.62-2.41-1.33-3.52-1.82a2.1,2.1,0,0,0-.51-.16c.05,0,.13-.1.1-.05a.81.81,0,0,0-.09.24,12.69,12.69,0,0,0-.24,1.86l-.32,4L85.12,244,83.86,260.2l-2.52,32.34c-.45,5.4-.86,10.74-1.35,16.19a4.72,4.72,0,0,0-.18,1.85.85.85,0,0,0,.46.55.86.86,0,0,0,.72,0c.55-.21,1.08-.67,1.72-1l1.8-.93,7.21-3.72,14.4-7.47Z"/></g><g class="cls-6"><path class="cls-8" d="M118.66,315.12,96.94,315H75.21l-10.86,0H61.64c-.86,0-1.75.22-2.74.14a1.88,1.88,0,0,1-1.8-2.22,6.33,6.33,0,0,1,1.48-2.43c3.86-6,7.69-12.25,11.54-18.36L93.3,255.4,104.9,237l5.8-9.19,2.9-4.59a21.43,21.43,0,0,1,1.61-2.33l.27-.3.35-.3a3.31,3.31,0,0,1,.49-.27A1.75,1.75,0,0,1,117,220a1.51,1.51,0,0,1,.6.17,1.71,1.71,0,0,1,.43.27,4.42,4.42,0,0,1,.6.58c1.24,1.53,2.14,3,3.19,4.51l3.06,4.49,6.12,9,12.23,18,12.2,18,12.12,18,6,9.05,3,4.53,1.5,2.26.75,1.13c.13.2.25.37.36.52l.4.5a12.32,12.32,0,0,1,.89,1.16,3.13,3.13,0,0,1,.55,1.72,2.56,2.56,0,0,1-.81,1.77,2.75,2.75,0,0,1-1.73.65c-1.08,0-2-.23-2.75-.22l-2.72,0-10.86-.2-21.72-.38Zm0-.2,21.72-.06,21.72-.19,10.86-.1,2.72,0c1,0,1.93.21,2.66.15a1.21,1.21,0,0,0,.76-.28,1,1,0,0,0,.28-.64c0-.44-.51-1.12-1.11-1.79-.15-.17-.3-.36-.46-.56s-.3-.41-.42-.59l-.77-1.12-1.54-2.24L172,303l-6.15-9-12.19-18-12.11-18L129.5,240l-6-9-3-4.51c-1-1.48-2-3.09-3-4.38a2,2,0,0,0-.55-.48c.08-.06-.22.08-.46.4a20.62,20.62,0,0,0-1.49,2.13L112,228.66l-5.86,9.15L94.4,256.09,71,292.68c-3.95,6.09-7.8,12.16-11.83,18.26a6,6,0,0,0-1.38,2.11,1.27,1.27,0,0,0,.25,1,1.3,1.3,0,0,0,1,.46c.82.09,1.73-.12,2.68-.1l2.72,0,10.86.13,21.72.22Z"/></g><g class="cls-6"><path class="cls-7" d="M39.22,290.6l-14.34,7.56-14.29,7.66-7.14,3.85-1.78,1a19.88,19.88,0,0,1-1.77,1.06,1.51,1.51,0,0,1-1.24,0,1.52,1.52,0,0,1-.82-.94A5,5,0,0,1-2,308.61L-1,292.46,1.23,260.1l1.11-16.18.55-8.09.28-4a13.47,13.47,0,0,1,.27-2.15,2.27,2.27,0,0,1,.28-.69,1.42,1.42,0,0,1,.88-.64,2.48,2.48,0,0,1,1.45.22c1.37.59,2.48,1.24,3.7,1.85l3.6,1.87L20.54,236l14.39,7.48L49.3,251l14.33,7.6,7.13,3.86,3.57,1.93,1.78,1,.89.48a6.4,6.4,0,0,0,.83.4,10.26,10.26,0,0,1,1,.45,2.61,2.61,0,0,1,1.06,1,2.09,2.09,0,0,1,.14,1.6,2.17,2.17,0,0,1-1,1.17c-.75.44-1.42.57-1.91.83l-1.81.91-7.24,3.65-14.47,7.33Zm-.09-.18,14.27-7.71,14.21-7.83,7.1-3.92,1.77-1c.7-.38,1.37-.55,1.78-.83.2-.14.29-.25.3-.35a.54.54,0,0,0,0-.36,3,3,0,0,0-1.29-.69,8.23,8.23,0,0,1-1-.46l-.9-.46-1.8-.93-3.61-1.85-7.21-3.71-14.36-7.53L34,245.21l-14.3-7.65-7.15-3.82L9,231.83c-1.18-.62-2.41-1.33-3.52-1.82a2.1,2.1,0,0,0-.51-.16c.05,0,.13-.1.1-.05A.8.8,0,0,0,5,230a12.67,12.67,0,0,0-.24,1.86l-.32,4L3.78,244,2.52,260.2,0,292.53c-.45,5.4-.86,10.74-1.35,16.19a4.72,4.72,0,0,0-.18,1.85.85.85,0,0,0,.46.55.86.86,0,0,0,.72,0c.55-.21,1.08-.67,1.72-1l1.8-.93,7.21-3.72L24.78,298Z"/></g><g class="cls-6"><path class="cls-8" d="M37.32,315.12,15.6,315H-6.13L-17,315H-19.7c-.86,0-1.75.22-2.74.14a1.94,1.94,0,0,1-1.41-.69,1.94,1.94,0,0,1-.39-1.54,6.33,6.33,0,0,1,1.48-2.43c3.86-6,7.69-12.25,11.54-18.36L12,255.4,23.55,237l5.8-9.19,2.9-4.59a21.44,21.44,0,0,1,1.61-2.33l.27-.3.35-.3a3.31,3.31,0,0,1,.49-.27,1.75,1.75,0,0,1,.67-.08,1.51,1.51,0,0,1,.6.17,1.71,1.71,0,0,1,.43.27,4.42,4.42,0,0,1,.6.58c1.24,1.53,2.14,3,3.19,4.51L43.52,230l6.12,9,12.23,18,12.2,18,12.12,18,6,9.05,3,4.53,1.5,2.26.75,1.13c.13.2.25.37.36.52l.4.5a12.32,12.32,0,0,1,.89,1.16,3.13,3.13,0,0,1,.55,1.72,2.56,2.56,0,0,1-.81,1.77,2.75,2.75,0,0,1-1.73.65c-1.08,0-2-.23-2.75-.22l-2.72,0-10.86-.2L59,315.36Zm0-.2L59,314.86l21.72-.19,10.86-.1,2.72,0c1,0,1.93.21,2.66.15a1.21,1.21,0,0,0,.76-.28,1,1,0,0,0,.28-.64c0-.44-.51-1.12-1.11-1.79-.15-.17-.3-.36-.46-.56s-.3-.41-.42-.59l-.77-1.12-1.54-2.24L90.68,303l-6.15-9-12.19-18L60.23,258,48.16,240l-6-9-3-4.51c-1-1.48-2-3.09-3-4.38a2,2,0,0,0-.55-.48c.08-.06-.22.08-.46.4a20.6,20.6,0,0,0-1.49,2.13l-2.93,4.57-5.86,9.15L13.06,256.09l-23.44,36.58c-3.95,6.09-7.8,12.16-11.83,18.26a6,6,0,0,0-1.38,2.11,1.27,1.27,0,0,0,.25,1,1.3,1.3,0,0,0,1,.46c.82.09,1.73-.12,2.68-.1l2.72,0,10.86.13,21.72.22Z"/></g><g class="cls-6"><path class="cls-7" d="M80,246.69l-14.34,7.56-14.29,7.66-7.14,3.85-1.78,1a20,20,0,0,1-1.77,1.06,1.49,1.49,0,0,1-2.06-.93,5,5,0,0,1,.13-2.16l1.06-16.15L42,216.19,43.15,200l.55-8.09.28-4a13.47,13.47,0,0,1,.27-2.15,2.27,2.27,0,0,1,.28-.69,1.42,1.42,0,0,1,.88-.64,2.48,2.48,0,0,1,1.45.22c1.37.59,2.48,1.24,3.7,1.85l3.6,1.87,7.19,3.74,14.39,7.48,14.37,7.52,14.33,7.6,7.13,3.86,3.57,1.93,1.78,1,.89.48a6.37,6.37,0,0,0,.83.4,10.29,10.29,0,0,1,1,.45,2.61,2.61,0,0,1,1.06,1,2.09,2.09,0,0,1,.14,1.6,2.16,2.16,0,0,1-1,1.17c-.75.44-1.42.57-1.91.83l-1.81.91-7.24,3.65-14.47,7.33Zm-.09-.18,14.27-7.71L108.41,231l7.1-3.92,1.77-1c.7-.38,1.37-.55,1.78-.83.2-.14.29-.25.3-.35a.54.54,0,0,0,0-.36,3,3,0,0,0-1.29-.69,8.21,8.21,0,0,1-1-.46l-.9-.46-1.8-.93-3.61-1.85-7.21-3.71-14.36-7.53L74.82,201.3l-14.3-7.65-7.15-3.82-3.57-1.91c-1.18-.62-2.41-1.33-3.52-1.82a2.09,2.09,0,0,0-.51-.16c.05,0,.13-.1.1-.05a.8.8,0,0,0-.09.24,12.66,12.66,0,0,0-.24,1.86l-.32,4-.63,8.08-1.26,16.17-2.52,32.34c-.45,5.4-.86,10.74-1.35,16.19a4.72,4.72,0,0,0-.18,1.85.85.85,0,0,0,.46.55.86.86,0,0,0,.72,0c.55-.21,1.08-.67,1.72-1l1.8-.93,7.21-3.72,14.4-7.47Z"/></g><g class="cls-6"><path class="cls-8" d="M78.14,271.2l-21.72-.11H34.69l-10.86,0H21.11c-.86,0-1.75.22-2.74.14a1.88,1.88,0,0,1-1.8-2.22A6.33,6.33,0,0,1,18,266.59c3.86-6,7.69-12.25,11.54-18.36l23.19-36.75,11.59-18.37,5.8-9.19,2.9-4.59A21.44,21.44,0,0,1,74.68,177l.27-.3.35-.3a3.3,3.3,0,0,1,.49-.27,1.74,1.74,0,0,1,.67-.08,1.51,1.51,0,0,1,.6.17,1.71,1.71,0,0,1,.43.27,4.42,4.42,0,0,1,.6.58c1.24,1.53,2.14,3,3.19,4.51l3.06,4.49,6.12,9,12.23,18,12.2,18L127,249l6,9.05,3,4.53,1.5,2.26.75,1.13c.13.2.25.37.36.52l.4.5a12.34,12.34,0,0,1,.89,1.16,3.13,3.13,0,0,1,.55,1.72,2.57,2.57,0,0,1-.81,1.77,2.75,2.75,0,0,1-1.73.65c-1.08,0-2-.23-2.75-.22l-2.72,0-10.86-.2-21.72-.38Zm0-.2,21.72-.06,21.72-.19,10.86-.1,2.72,0c1,0,1.93.21,2.66.15a1.21,1.21,0,0,0,.76-.28,1,1,0,0,0,.28-.64c0-.44-.51-1.12-1.11-1.79-.15-.17-.3-.36-.46-.56s-.3-.41-.42-.59l-.77-1.12-1.54-2.24-3.07-4.48-6.15-9-12.19-18-12.11-18L89,196.06l-6-9-3-4.51c-1-1.48-2-3.09-3-4.38a2,2,0,0,0-.55-.48c.08-.06-.22.08-.46.4a20.57,20.57,0,0,0-1.49,2.13l-2.93,4.57-5.86,9.15L53.87,212.18,30.44,248.76c-3.95,6.09-7.8,12.16-11.83,18.26a6,6,0,0,0-1.38,2.11,1.27,1.27,0,0,0,.25,1,1.3,1.3,0,0,0,1,.46c.82.09,1.73-.12,2.68-.1l2.72,0,10.86.13,21.72.22Z"/></g><g class="cls-6"><path class="cls-7" d="M131.65,30.39l-14.5-8L102.6,14.52,95.32,10.6c-.61-.34-1.2-.62-1.83-1a4.47,4.47,0,0,0-1.67-.88.77.77,0,0,0-.64.3,1.13,1.13,0,0,0-.23.75c0,.61.22,1.27.29,2l1.3,16.5,2.46,33,1.23,16.5L96.85,86l.31,4.13.16,2c0,.33.07.67.12,1a1.85,1.85,0,0,0,.15.54c0-.05-.16-.07-.11-.07a.87.87,0,0,0,.25-.06,6.6,6.6,0,0,0,.83-.37c.58-.31,1.19-.65,1.79-1l3.61-2,7.23-4,14.45-8.06,14.47-8,14.52-7.94,14.63-7.84a8,8,0,0,0,1.64-.78.49.49,0,0,0,.2-.37.5.5,0,0,0-.11-.41,4.75,4.75,0,0,0-1.52-.82c-.37-.17-.67-.36-1-.53l-.9-.52-7.17-4.13-14.35-8.24Zm.1-.18,14.57,7.86,14.63,7.74,7.32,3.86.91.48c.32.16.61.33.86.43a5.48,5.48,0,0,1,2.08,1.14,2.05,2.05,0,0,1,.53,1.5,2.09,2.09,0,0,1-.66,1.45,7.36,7.36,0,0,1-2,1.11l-14.38,8.1-14.48,8L126.6,79.84l-14.54,7.9-7.27,3.95-3.64,2c-.61.33-1.21.66-1.85,1a7.94,7.94,0,0,1-1.07.46,2.29,2.29,0,0,1-.76.14,1.42,1.42,0,0,1-1-.44,2.57,2.57,0,0,1-.56-1.37c-.07-.39-.1-.74-.13-1.09l-.14-2.08-.27-4.13-.54-8.26L93.71,61.36l-2.16-33-1-16.52c0-.63-.26-1.3-.26-2.08a1.79,1.79,0,0,1,.41-1.17,1.42,1.42,0,0,1,1.18-.51,4.72,4.72,0,0,1,2,1c.54.35,1.19.68,1.77,1l7.21,4.05,14.45,8.08Z"/></g><g class="cls-6"><path class="cls-8" d="M129.85,4.82l-22.16.12-22.16.23L74.46,5.3a24.77,24.77,0,0,1-2.8,0c-.89-.08-1.89-.2-2.39.32a1.39,1.39,0,0,0-.36,1,2.33,2.33,0,0,0,.44,1.11c.47.71,1.17,1.44,1.62,2.26L82.63,28.83l23.18,37.77L117.4,85.48l5.8,9.44,2.9,4.72a23.55,23.55,0,0,0,1.47,2.21,2,2,0,0,0,.48.45,2.63,2.63,0,0,0,.52-.48l48-74.39L188.72,8.92c.57-.88,1.26-1.52,1.63-2.17a1.41,1.41,0,0,0,.24-.84,1.06,1.06,0,0,0-.36-.67c-.33-.32-1.23-.27-2.13-.15l-.73.07c-.27,0-.52,0-.74,0h-1.38l-11.08-.1L152,4.87Zm0-.2L152,4.37,174.16,4l11.08-.2,1.38,0,.65,0,.65-.08a10.64,10.64,0,0,1,1.48-.14,2.84,2.84,0,0,1,1.76.52,2.57,2.57,0,0,1,1,1.68,3,3,0,0,1-.38,1.81c-.54,1-1.22,1.61-1.64,2.3l-11.89,18.7-24.07,37.2L142,84.28,136,93.55l-3,4.64c-1,1.55-1.93,3.08-3.17,4.66a4.6,4.6,0,0,1-.61.6,1.87,1.87,0,0,1-1.09.44,1.81,1.81,0,0,1-1.13-.43,4.23,4.23,0,0,1-.61-.62,24.38,24.38,0,0,1-1.58-2.4l-2.87-4.74-5.73-9.48-11.46-19L81.77,29.35l-11.4-19c-.43-.81-1-1.43-1.58-2.26a3,3,0,0,1-.53-1.44,2,2,0,0,1,.56-1.51,2.14,2.14,0,0,1,1.48-.56,9.92,9.92,0,0,1,1.43.09,24.23,24.23,0,0,0,2.74.08H107.7Z"/></g><g class="cls-6"><path class="cls-7" d="M50.31,30.39l-14.5-8L21.26,14.52,14,10.6c-.61-.34-1.2-.62-1.83-1a4.47,4.47,0,0,0-1.67-.88.77.77,0,0,0-.64.3,1.13,1.13,0,0,0-.23.75c0,.61.22,1.27.29,2l1.3,16.5,2.46,33,1.23,16.5L15.51,86l.31,4.13.16,2c0,.33.07.67.12,1a1.85,1.85,0,0,0,.15.54c0-.05-.16-.07-.11-.07a.87.87,0,0,0,.25-.06,6.6,6.6,0,0,0,.83-.37c.59-.31,1.19-.65,1.79-1l3.61-2,7.23-4L44.3,78.11l14.47-8,14.52-7.94L87.92,54.3a8,8,0,0,0,1.64-.78.49.49,0,0,0,.2-.37.5.5,0,0,0-.11-.41,4.75,4.75,0,0,0-1.52-.82c-.37-.17-.67-.36-1-.53l-.9-.52-7.17-4.13L64.73,38.51Zm.1-.18L65,38.07,79.6,45.81l7.32,3.86.91.48c.32.16.61.33.86.43a5.48,5.48,0,0,1,2.08,1.14,2.05,2.05,0,0,1,.53,1.5,2.09,2.09,0,0,1-.66,1.45,7.36,7.36,0,0,1-2,1.11l-14.38,8.1-14.48,8L45.26,79.84l-14.54,7.9-7.27,3.95-3.64,2c-.61.33-1.21.66-1.85,1a7.94,7.94,0,0,1-1.07.46,2.29,2.29,0,0,1-.76.14,1.42,1.42,0,0,1-1-.44,2.57,2.57,0,0,1-.56-1.37c-.07-.39-.1-.74-.13-1.09l-.14-2.08L14,86.14l-.54-8.26L12.37,61.36l-2.16-33-1-16.52c0-.63-.26-1.3-.26-2.08a1.79,1.79,0,0,1,.41-1.17,1.42,1.42,0,0,1,1.18-.51,4.72,4.72,0,0,1,2,1c.54.35,1.19.68,1.77,1l7.21,4.05,14.45,8.08Z"/></g><g class="cls-6"><path class="cls-8" d="M48.51,4.82l-22.16.12L4.2,5.17-6.88,5.3a24.77,24.77,0,0,1-2.8,0c-.89-.08-1.89-.2-2.39.32a1.39,1.39,0,0,0-.36,1A2.33,2.33,0,0,0-12,7.72c.47.71,1.17,1.44,1.62,2.26L1.28,28.83,24.47,66.59,36.06,85.48l5.8,9.44,2.9,4.72a23.55,23.55,0,0,0,1.47,2.21,2,2,0,0,0,.48.45,2.63,2.63,0,0,0,.52-.48l48-74.39L107.38,8.92C108,8,108.64,7.4,109,6.75a1.41,1.41,0,0,0,.24-.84,1.06,1.06,0,0,0-.36-.67c-.33-.32-1.23-.27-2.13-.15l-.73.07c-.27,0-.52,0-.74,0H103.9l-11.08-.1L70.67,4.87Zm0-.2,22.16-.25L92.82,4l11.08-.2,1.38,0,.65,0,.65-.08a10.64,10.64,0,0,1,1.48-.14,2.84,2.84,0,0,1,1.76.52,2.57,2.57,0,0,1,1,1.68,3,3,0,0,1-.38,1.81c-.54,1-1.22,1.61-1.64,2.3L96.89,28.52,72.81,65.72,60.7,84.28l-6.06,9.28-3,4.64c-1,1.55-1.93,3.08-3.17,4.66a4.6,4.6,0,0,1-.61.6,1.87,1.87,0,0,1-1.09.44,1.81,1.81,0,0,1-1.13-.43,4.23,4.23,0,0,1-.61-.62,24.41,24.41,0,0,1-1.58-2.4l-2.87-4.74-5.73-9.48-11.46-19L.43,29.35l-11.4-19c-.43-.81-1-1.43-1.58-2.26a3,3,0,0,1-.53-1.44,2,2,0,0,1,.56-1.51A2.14,2.14,0,0,1-11,4.58a9.92,9.92,0,0,1,1.43.09,24.23,24.23,0,0,0,2.74.08H26.35Z"/></g><g class="cls-6"><path class="cls-7" d="M91.13,76.22l-14.5-8L62.08,60.36l-7.28-3.93c-.61-.34-1.2-.62-1.83-1a4.47,4.47,0,0,0-1.67-.88.77.77,0,0,0-.64.3,1.13,1.13,0,0,0-.23.75c0,.61.22,1.27.29,2L52,74.1l2.46,33,1.23,16.5.62,8.25.31,4.13.16,2c0,.33.07.67.12,1a1.84,1.84,0,0,0,.15.54c0-.05-.16-.07-.11-.07a.88.88,0,0,0,.25-.06A6.61,6.61,0,0,0,58,139c.58-.31,1.19-.65,1.79-1l3.61-2,7.23-4,14.45-8.06,14.47-8L114.11,108l14.63-7.84a8,8,0,0,0,1.64-.78.49.49,0,0,0,.2-.37.5.5,0,0,0-.11-.41,4.75,4.75,0,0,0-1.52-.82c-.37-.17-.67-.36-1-.53l-.9-.52-7.17-4.13-14.35-8.24Zm.1-.18,14.57,7.86,14.63,7.74,7.32,3.86.91.48c.32.16.61.33.86.43a5.48,5.48,0,0,1,2.08,1.14,2.05,2.05,0,0,1,.53,1.5,2.09,2.09,0,0,1-.66,1.45,7.36,7.36,0,0,1-2,1.11l-14.38,8.1-14.48,8-14.52,7.94-14.54,7.9-7.27,3.95-3.64,2c-.61.33-1.21.66-1.85,1a8,8,0,0,1-1.07.46,2.29,2.29,0,0,1-.76.14,1.42,1.42,0,0,1-1-.44,2.57,2.57,0,0,1-.56-1.37c-.07-.39-.1-.74-.13-1.09l-.14-2.08L54.81,132l-.54-8.26L53.18,107.2,51,74.17,50,57.65c0-.63-.26-1.3-.26-2.08a1.79,1.79,0,0,1,.41-1.17,1.42,1.42,0,0,1,1.18-.51,4.72,4.72,0,0,1,2,1c.54.35,1.19.68,1.77,1L62.28,60l14.45,8.08Z"/></g><g class="cls-6"><path class="cls-8" d="M89.33,50.65l-22.16.12L45,51l-11.08.13a24.77,24.77,0,0,1-2.8,0c-.89-.08-1.89-.2-2.39.32a1.39,1.39,0,0,0-.36,1,2.33,2.33,0,0,0,.44,1.11c.47.71,1.17,1.44,1.62,2.26L42.1,74.66l23.18,37.77,11.59,18.88,5.8,9.44,2.9,4.72A23.53,23.53,0,0,0,87,147.68a2,2,0,0,0,.48.45,2.64,2.64,0,0,0,.52-.48l48-74.39L148.2,54.76c.57-.88,1.26-1.52,1.63-2.17a1.41,1.41,0,0,0,.24-.84,1.06,1.06,0,0,0-.36-.67c-.33-.32-1.23-.27-2.13-.15l-.73.07c-.27,0-.52,0-.74,0h-1.38l-11.08-.1-22.16-.18Zm0-.2,22.16-.25,22.16-.38,11.08-.2,1.38,0,.65,0,.65-.08a10.64,10.64,0,0,1,1.48-.14,2.84,2.84,0,0,1,1.76.52,2.57,2.57,0,0,1,1,1.68,3,3,0,0,1-.38,1.81c-.54,1-1.22,1.61-1.64,2.3L137.7,74.35l-24.07,37.2-12.11,18.55-6.06,9.28-3,4.64c-1,1.55-1.93,3.08-3.17,4.66a4.59,4.59,0,0,1-.61.6,1.87,1.87,0,0,1-1.09.44,1.81,1.81,0,0,1-1.13-.43,4.22,4.22,0,0,1-.61-.62,24.38,24.38,0,0,1-1.58-2.4l-2.87-4.74-5.73-9.48-11.46-19L41.24,75.18l-11.4-19c-.43-.81-1-1.43-1.58-2.26a3,3,0,0,1-.53-1.44A2,2,0,0,1,28.29,51a2.14,2.14,0,0,1,1.48-.56,9.92,9.92,0,0,1,1.43.09,24.23,24.23,0,0,0,2.74.08H67.17Z"/></g><g class="cls-6"><path class="cls-7" d="M-22.15,245l2.13-8.93,2-9,2-9a11.3,11.3,0,0,1,.22-1.17,1.07,1.07,0,0,1,1.34-.87,1.39,1.39,0,0,1,.58.55c.11.17.21.35.3.46l.72.87,2.94,3.53L1.73,235.72l5.83,7.09,2.92,3.55a4.86,4.86,0,0,1,.77,1.15,1.37,1.37,0,0,1,.1.61,1.28,1.28,0,0,1-.21.63,2.51,2.51,0,0,1-.58.6c-.7.52-1.3.89-1.95,1.33C-1.58,257.48-11.7,264.37-22,271l-3.88,2.46c-.3.2-.7.43-.89.58s-.3.23-.51.38a1.79,1.79,0,0,1-1.06.36,1.27,1.27,0,0,1-.81-.34,1.41,1.41,0,0,1-.39-.61,2,2,0,0,1,0-1c.11-.5.28-.86.36-1.16l2.41-8.84C-25.21,256.87-23.6,251-22.15,245Zm.19,0c-1.39,6-2.61,12-3.83,18l-1.85,9c-.11.44-.24.79-.28,1a.45.45,0,1,1,0,.12.32.32,0,0,0-.08-.13.53.53,0,0,0-.3-.12c-.22,0-.1,0,0-.06l.4-.33c.41-.33.68-.48,1-.71l3.81-2.57C-12.94,262.47-2.57,256,7.73,249.34c.63-.41,1.33-.84,1.87-1.22a1.42,1.42,0,0,0,.23-.2s0,.22,0,.15a4.32,4.32,0,0,0-.52-.74l-2.86-3.59L.72,236.54l-11.43-14.37-2.84-3.61-.72-.92c-.14-.2-.22-.37-.31-.51a.82.82,0,0,0-.21-.25h0l-.09,0a.7.7,0,0,0-.18.31c-.1.3-.14.68-.23,1.08l-2.29,8.9-2.24,8.91Z"/></g><g class="cls-6"><path class="cls-8" d="M-29.75,235.52-23,225.34l6.68-10.25c2.19-3.42,4.48-6.84,6.6-10.26a7.83,7.83,0,0,1,.41-.69,1.6,1.6,0,0,1,.74-.64.91.91,0,0,1,.62,0,.92.92,0,0,1,.48.4,2.19,2.19,0,0,1,.27.89l.07.77a7.09,7.09,0,0,0,.11.72l.28,1.5,1.1,6L2.92,262l.54,3a11.19,11.19,0,0,1,.2,1.66,1.84,1.84,0,0,1-.43,1.29,1.93,1.93,0,0,1-1.19.55,15.06,15.06,0,0,1-1.63.09l-1.53,0-3.06.07-12.23.27-12.23.23-12.23.14h-8l-.28,0a4.81,4.81,0,0,1-.93.07,1.67,1.67,0,0,1-.73-.2,1.45,1.45,0,0,1-.61-.64,2,2,0,0,1-.15-1.3,4,4,0,0,1,.94-1.66c.16-.2.32-.38.43-.54l.44-.63.88-1.25,1.75-2.51,3.51-5,7-10Zm.17.11-6.64,10.27-6.53,10.35L-46,261.43-47.63,264l-.81,1.29-.41.65c-.17.26-.34.47-.49.67a2.66,2.66,0,0,0-.57,1,.37.37,0,0,0,0,.19.35.35,0,0,0-.1-.1c-.05,0-.05,0,0,0a3.91,3.91,0,0,0,.59-.08,4.17,4.17,0,0,1,.48-.05h.4l1.53,0,6.11-.18,12.23-.22,12.23-.13,12.23-.08,3.06,0H.39c.51,0,1,0,1.42,0,.2,0,.3-.09.2,0s0,0,0-.15a10.24,10.24,0,0,0-.16-1.38l-.49-3L-6.6,214l-1-6-.24-1.51a8,8,0,0,1-.1-.79l-.05-.75a1.54,1.54,0,0,0-.14-.58c0-.06-.06-.08-.09-.09a.17.17,0,0,0-.12,0c-.22.06-.54.56-.77,1-2.25,3.46-4.58,6.76-6.87,10.15l-6.86,10.12Z"/></g><g class="cls-6"><path class="cls-7" d="M-21.51,281.67l2.13-8.93,2-9,2-9a11.3,11.3,0,0,1,.22-1.17,1.07,1.07,0,0,1,1.34-.87,1.39,1.39,0,0,1,.58.55c.11.17.21.35.3.46l.72.87,2.94,3.53L2.37,272.38l5.83,7.09L11.12,283a4.86,4.86,0,0,1,.77,1.15,1.37,1.37,0,0,1,.1.61,1.28,1.28,0,0,1-.22.63,2.51,2.51,0,0,1-.58.6c-.7.52-1.3.89-1.95,1.33C-.94,294.13-11.06,301-21.38,307.62l-3.88,2.46c-.3.2-.7.43-.89.58s-.3.23-.51.38a1.79,1.79,0,0,1-1.06.36,1.27,1.27,0,0,1-.81-.34,1.41,1.41,0,0,1-.39-.61,1.94,1.94,0,0,1,0-1c.11-.5.28-.86.36-1.16l2.41-8.84C-24.57,293.52-23,287.61-21.51,281.67Zm.19,0c-1.39,6-2.61,12-3.83,18l-1.85,9c-.11.44-.24.79-.28,1a.45.45,0,1,1,0,.12.32.32,0,0,0-.08-.13.53.53,0,0,0-.3-.12c-.22,0-.1,0,0-.06l.4-.33c.41-.33.68-.48,1-.71l3.81-2.57C-12.3,299.13-1.93,292.61,8.37,286c.63-.41,1.33-.84,1.87-1.22a1.41,1.41,0,0,0,.23-.2s0,.22,0,.15a4.32,4.32,0,0,0-.52-.74l-2.86-3.59L1.36,273.2l-11.43-14.37-2.84-3.61-.72-.92c-.14-.2-.22-.37-.31-.51a.82.82,0,0,0-.21-.25h0l-.09,0a.7.7,0,0,0-.18.31c-.1.3-.14.68-.23,1.08l-2.29,8.9-2.24,8.91Z"/></g><g class="cls-6"><path class="cls-8" d="M-29.1,272.18-22.33,262l6.68-10.25c2.19-3.42,4.48-6.84,6.6-10.26a7.83,7.83,0,0,1,.41-.69,1.6,1.6,0,0,1,.74-.64.91.91,0,0,1,.62,0,.92.92,0,0,1,.48.4,2.19,2.19,0,0,1,.27.89l.07.77a7.07,7.07,0,0,0,.11.72l.28,1.5,1.1,6,8.54,48.17.54,3a11.19,11.19,0,0,1,.2,1.66,1.84,1.84,0,0,1-.43,1.29,1.93,1.93,0,0,1-1.19.55,15.06,15.06,0,0,1-1.63.09l-1.53,0-3.06.07-12.23.27-12.23.23-12.23.14h-8l-.28,0a4.81,4.81,0,0,1-.93.07,1.67,1.67,0,0,1-.73-.2,1.45,1.45,0,0,1-.61-.64,2,2,0,0,1-.15-1.3,4,4,0,0,1,.94-1.66c.16-.2.32-.38.43-.54l.44-.63.88-1.25,1.75-2.51,3.51-5,7-10Zm.17.11-6.64,10.27-6.53,10.35-3.26,5.18L-47,300.67-47.8,302l-.41.65c-.17.26-.34.47-.49.67a2.66,2.66,0,0,0-.57,1,.37.37,0,0,0,0,.19.35.35,0,0,0-.1-.1c-.05,0-.05,0,0,0a3.89,3.89,0,0,0,.59-.08,4.17,4.17,0,0,1,.48-.05h.4l1.53,0,6.11-.18,12.23-.22,12.23-.13,12.23-.08,3.06,0H1c.51,0,1,0,1.42,0,.2,0,.3-.09.2,0s0,0,0-.15a10.24,10.24,0,0,0-.16-1.38l-.49-3L-6,250.62l-1-6-.24-1.51a8,8,0,0,1-.1-.79l-.05-.75a1.54,1.54,0,0,0-.14-.58c0-.06-.06-.08-.09-.09a.17.17,0,0,0-.12,0c-.22.06-.54.56-.77,1-2.25,3.46-4.58,6.76-6.87,10.15l-6.86,10.12Z"/></g><g class="cls-6"><path class="cls-7" d="M179.48,248l-2.13-8.93-2.24-8.91-2.29-8.9c-.09-.4-.13-.78-.23-1.08a.7.7,0,0,0-.18-.31l-.09,0h0a.82.82,0,0,0-.21.25c-.09.15-.18.32-.31.51l-.72.92-2.84,3.61L156.8,239.53l-5.72,7.19-2.86,3.59a4.31,4.31,0,0,0-.52.74c0,.07,0-.16,0-.15a1.42,1.42,0,0,0,.23.2c.53.39,1.24.81,1.87,1.22,10.3,6.61,20.67,13.13,30.84,19.95l3.81,2.57c.33.23.6.38,1,.71l.4.33c.09.08.2.08,0,.06a.53.53,0,0,0-.3.12.32.32,0,0,0-.08.13.45.45,0,1,1,0-.12c0-.26-.17-.61-.28-1l-1.85-9C182.08,260,180.86,254,179.48,248Zm.19,0c1.45,5.95,3.06,11.86,4.67,17.77l2.41,8.84c.09.3.25.66.36,1.16a2,2,0,0,1,0,1,1.41,1.41,0,0,1-.39.61,1.27,1.27,0,0,1-.81.34,1.79,1.79,0,0,1-1.06-.36c-.21-.14-.37-.27-.51-.38s-.59-.38-.89-.58l-3.88-2.46c-10.32-6.6-20.44-13.49-30.62-20.28-.64-.44-1.25-.81-1.95-1.33a2.5,2.5,0,0,1-.58-.6,1.28,1.28,0,0,1-.21-.63,1.37,1.37,0,0,1,.1-.61,4.86,4.86,0,0,1,.77-1.15L150,245.8l5.83-7.09,11.67-14.18,2.94-3.53.72-.87c.09-.11.18-.28.3-.46a1.38,1.38,0,0,1,.58-.55,1.07,1.07,0,0,1,1.34.87,11.26,11.26,0,0,1,.22,1.17l2,9,2,9Z"/></g><g class="cls-6"><path class="cls-7" d="M178.83,284.7l-2.13-8.93-2.24-8.91-2.29-8.9c-.09-.4-.13-.78-.23-1.08a.7.7,0,0,0-.18-.31l-.09,0h0a.82.82,0,0,0-.21.25c-.09.15-.18.32-.31.51l-.72.92-2.84,3.61-11.43,14.37-5.72,7.19L147.59,287a4.32,4.32,0,0,0-.52.74c0,.07,0-.16,0-.15a1.42,1.42,0,0,0,.23.2c.53.39,1.24.81,1.87,1.22,10.3,6.61,20.67,13.13,30.84,19.95l3.81,2.57c.33.23.6.38,1,.71l.4.33c.09.08.2.08,0,.06a.53.53,0,0,0-.3.12.32.32,0,0,0-.08.13.44.44,0,1,1,0-.12c0-.26-.17-.61-.28-1l-1.85-9C181.44,296.66,180.22,290.66,178.83,284.7Zm.19,0c1.45,5.95,3.06,11.86,4.67,17.77l2.41,8.84c.09.3.25.66.36,1.16a1.94,1.94,0,0,1,0,1,1.41,1.41,0,0,1-.39.61,1.27,1.27,0,0,1-.81.34,1.79,1.79,0,0,1-1.06-.36c-.21-.14-.37-.27-.51-.38s-.59-.38-.89-.58l-3.88-2.46c-10.32-6.6-20.44-13.49-30.62-20.28-.64-.44-1.25-.81-1.95-1.33a2.5,2.5,0,0,1-.58-.6,1.28,1.28,0,0,1-.21-.63,1.37,1.37,0,0,1,.1-.61,4.86,4.86,0,0,1,.77-1.15l2.92-3.55,5.83-7.09,11.67-14.18,2.94-3.53.72-.87c.09-.11.18-.28.3-.46a1.38,1.38,0,0,1,.58-.55,1.07,1.07,0,0,1,1.34.87,11.33,11.33,0,0,1,.22,1.17l2,9,2,9Z"/></g><g class="cls-6"><path class="cls-8" d="M186.45,275.27l-6.77-10.18L172.82,255c-2.29-3.39-4.62-6.69-6.87-10.15-.23-.42-.55-.91-.77-1a.17.17,0,0,0-.12,0s-.05,0-.09.09a1.54,1.54,0,0,0-.14.57l-.05.75a7.93,7.93,0,0,1-.1.79l-.24,1.51-1,6-7.95,48.27-.49,3a10.25,10.25,0,0,0-.16,1.38c0,.19.06.25,0,.15s0,0,.2,0c.39,0,.91,0,1.42,0H158l3.06,0,12.23.08,12.23.13,12.23.22,6.11.18,1.53,0h.4a4.18,4.18,0,0,1,.48.05,3.92,3.92,0,0,0,.59.08c.05,0,.05,0,0,0a.35.35,0,0,0-.1.1.37.37,0,0,0,0-.19,2.66,2.66,0,0,0-.57-1c-.15-.2-.32-.41-.49-.67l-.41-.65-.81-1.29-1.63-2.59-3.26-5.18-6.53-10.35Zm.17-.11,6.89,10.1,7,10,3.51,5,1.75,2.51.88,1.25.44.63c.11.16.26.34.43.54a4,4,0,0,1,.94,1.66,2,2,0,0,1-.15,1.3,1.45,1.45,0,0,1-.61.64,1.68,1.68,0,0,1-.73.2A4.8,4.8,0,0,1,206,309l-.28,0h-8l-12.23-.14-12.23-.23L161,308.3l-3.06-.07-1.53,0a15,15,0,0,1-1.63-.09,1.93,1.93,0,0,1-1.19-.55,1.84,1.84,0,0,1-.43-1.29,11.21,11.21,0,0,1,.2-1.66l.54-3,8.54-48.17,1.1-6,.28-1.5a7,7,0,0,0,.11-.72l.07-.77a2.19,2.19,0,0,1,.27-.89.93.93,0,0,1,1.1-.41,1.6,1.6,0,0,1,.74.64,7.83,7.83,0,0,1,.41.69c2.12,3.42,4.41,6.84,6.6,10.26L179.85,265Z"/></g><g class="cls-6"><path class="cls-7" d="M182.46,70.89l-2.13,8.93-2,9-2,9a11.3,11.3,0,0,1-.22,1.17,1.07,1.07,0,0,1-1.34.87,1.39,1.39,0,0,1-.58-.55c-.11-.17-.21-.35-.3-.46l-.72-.87-2.94-3.53L158.58,80.18l-5.83-7.09-2.92-3.55a4.86,4.86,0,0,1-.77-1.15,1.37,1.37,0,0,1-.1-.61,1.28,1.28,0,0,1,.22-.63,2.51,2.51,0,0,1,.58-.6c.7-.52,1.3-.89,1.95-1.33,10.18-6.8,20.31-13.69,30.62-20.28l3.88-2.46c.3-.2.7-.43.89-.58s.3-.23.51-.38a1.79,1.79,0,0,1,1.06-.36,1.27,1.27,0,0,1,.81.34,1.41,1.41,0,0,1,.39.61,2,2,0,0,1,0,1c-.11.5-.28.86-.36,1.16l-2.41,8.84C185.51,59,183.9,64.94,182.46,70.89Zm-.19,0c1.39-6,2.61-12,3.83-18l1.85-9c.11-.44.24-.79.28-1a.44.44,0,1,1,0-.12.32.32,0,0,0,.08.13.53.53,0,0,0,.3.12c.22,0,.1,0,0,.06l-.4.33c-.41.33-.68.48-1,.71l-3.81,2.57c-10.17,6.81-20.54,13.33-30.84,19.95-.63.41-1.33.84-1.87,1.22a1.41,1.41,0,0,0-.23.2s0-.22,0-.15a4.33,4.33,0,0,0,.52.74l2.86,3.59,5.72,7.19L171,93.74l2.84,3.61.72.92c.14.2.22.37.31.51a.82.82,0,0,0,.21.25h0l.09,0a.7.7,0,0,0,.18-.31c.1-.3.14-.68.23-1.08l2.29-8.9,2.24-8.91Z"/></g><g class="cls-6"><path class="cls-7" d="M181.81,34.24l-2.13,8.93-2,9-2,9a11.3,11.3,0,0,1-.22,1.17,1.07,1.07,0,0,1-1.34.87,1.38,1.38,0,0,1-.58-.55c-.11-.17-.21-.35-.3-.46l-.72-.87-2.94-3.53L157.93,43.53l-5.83-7.09-2.92-3.55a4.86,4.86,0,0,1-.77-1.15,1.37,1.37,0,0,1-.1-.61,1.28,1.28,0,0,1,.21-.63,2.51,2.51,0,0,1,.58-.6c.7-.52,1.3-.89,1.95-1.33,10.18-6.8,20.31-13.69,30.62-20.28l3.88-2.46c.3-.2.7-.43.89-.58s.3-.23.51-.38A1.79,1.79,0,0,1,188,4.52a1.27,1.27,0,0,1,.81.34,1.41,1.41,0,0,1,.39.61,2,2,0,0,1,0,1c-.11.5-.28.86-.36,1.16l-2.41,8.84C184.87,22.38,183.26,28.29,181.81,34.24Zm-.19,0c1.39-6,2.61-12,3.83-18l1.85-9c.11-.44.24-.79.28-1a.46.46,0,1,1,0-.12.32.32,0,0,0,.08.13.53.53,0,0,0,.3.12c.22,0,.1,0,0,.06l-.4.33c-.41.33-.68.48-1,.71L182.77,10c-10.17,6.81-20.54,13.33-30.84,19.95-.63.41-1.33.84-1.87,1.22a1.41,1.41,0,0,0-.23.2s0-.22,0-.15a4.33,4.33,0,0,0,.52.74l2.86,3.59,5.72,7.19,11.43,14.37,2.84,3.61.72.92c.14.2.22.37.31.51a.82.82,0,0,0,.21.25h0l.09,0a.7.7,0,0,0,.18-.31c.1-.3.14-.68.23-1.08l2.29-8.9,2.24-8.91Z"/></g><g class="cls-6"><path class="cls-7" d="M-19.17,67.86-17,76.79l2.24,8.91,2.29,8.9c.09.4.13.78.23,1.08a.7.7,0,0,0,.18.31l.09,0h0a.82.82,0,0,0,.21-.25c.09-.15.18-.32.31-.51l.72-.92,2.84-3.61L3.5,76.38l5.72-7.19,2.86-3.59a4.32,4.32,0,0,0,.52-.74c0-.07,0,.16,0,.15a1.41,1.41,0,0,0-.23-.2c-.53-.39-1.24-.81-1.87-1.22C.21,57-10.15,50.45-20.33,43.63l-3.81-2.57c-.33-.23-.6-.38-1-.71l-.4-.33c-.09-.08-.2-.08,0-.06a.53.53,0,0,0,.3-.12.32.32,0,0,0,.08-.13.45.45,0,1,1,0,.12c0,.26.17.61.28,1l1.85,9C-21.78,55.9-20.56,61.9-19.17,67.86Zm-.19,0C-20.81,62-22.43,56.05-24,50.14l-2.41-8.84c-.09-.3-.25-.66-.36-1.16a2,2,0,0,1,0-1,1.41,1.41,0,0,1,.39-.61,1.27,1.27,0,0,1,.81-.34,1.79,1.79,0,0,1,1.06.36c.21.14.37.27.51.38s.59.38.89.58L-19.23,42c10.32,6.6,20.44,13.49,30.62,20.28.64.44,1.25.81,1.95,1.33a2.51,2.51,0,0,1,.58.6,1.28,1.28,0,0,1,.21.63,1.37,1.37,0,0,1-.1.61,4.86,4.86,0,0,1-.77,1.15L10.35,70.1,4.51,77.2-7.15,91.38l-2.94,3.53-.72.87c-.09.11-.18.28-.3.46a1.39,1.39,0,0,1-.58.55A1.07,1.07,0,0,1-13,95.92a11.31,11.31,0,0,1-.22-1.17l-2-9-2-9Z"/></g><g class="cls-6"><path class="cls-8" d="M-26.79,77.29-20,87.47l6.86,10.12c2.29,3.39,4.62,6.69,6.87,10.15.23.42.55.91.77,1a.17.17,0,0,0,.12,0s.05,0,.09-.09a1.54,1.54,0,0,0,.14-.57l.05-.75a7.94,7.94,0,0,1,.1-.79l.24-1.51,1-6L4.13,50.68l.49-3a10.23,10.23,0,0,0,.16-1.38c0-.19-.06-.25,0-.15s0,0-.2,0c-.39,0-.91,0-1.42,0H1.64l-3.06,0L-13.64,46l-12.23-.13-12.23-.22-6.11-.18-1.53,0h-.4a4.16,4.16,0,0,1-.48-.05,3.91,3.91,0,0,0-.59-.08c-.05,0-.05,0,0,0a.35.35,0,0,0,.1-.1.37.37,0,0,0,0,.19,2.66,2.66,0,0,0,.57,1c.15.2.32.41.49.67l.41.65.81,1.29,1.63,2.59L-40,56.67-33.43,67Zm-.17.11-6.89-10.1-7-10-3.51-5-1.75-2.51L-47,48.49l-.44-.63c-.11-.16-.26-.34-.43-.54a4,4,0,0,1-.94-1.66,2,2,0,0,1,.15-1.3,1.45,1.45,0,0,1,.61-.64,1.68,1.68,0,0,1,.73-.2,4.81,4.81,0,0,1,.93.07l.28,0h8l12.23.14,12.23.23,12.23.27,3.06.07,1.53,0a15,15,0,0,1,1.63.09A1.92,1.92,0,0,1,6,45a1.84,1.84,0,0,1,.43,1.29,11.2,11.2,0,0,1-.2,1.66l-.54,3L-2.83,99.12l-1.1,6-.28,1.5a7.06,7.06,0,0,0-.11.72l-.07.77a2.19,2.19,0,0,1-.27.89.92.92,0,0,1-.48.4.91.91,0,0,1-.62,0,1.6,1.6,0,0,1-.74-.64,7.83,7.83,0,0,1-.41-.69c-2.12-3.42-4.41-6.84-6.6-10.26l-6.68-10.25Z"/></g><g class="cls-6"><path class="cls-7" d="M-18.53,31.21l2.13,8.93L-14.16,49l2.29,8.9c.09.4.13.78.23,1.08a.7.7,0,0,0,.18.31l.09,0h0a.82.82,0,0,0,.21-.25c.09-.15.18-.32.31-.51l.72-.92,2.84-3.61L4.15,39.73l5.72-7.19,2.86-3.59a4.32,4.32,0,0,0,.52-.74c0-.07,0,.16,0,.15a1.42,1.42,0,0,0-.23-.2c-.53-.39-1.24-.81-1.87-1.22C.85,20.31-9.51,13.79-19.68,7l-3.81-2.57c-.33-.23-.6-.38-1-.71l-.4-.33c-.09-.08-.2-.08,0-.06a.53.53,0,0,0,.3-.12A.32.32,0,0,0-24.49,3a.47.47,0,1,1,0,.12c0,.26.17.61.28,1l1.85,9C-21.14,19.25-19.92,25.25-18.53,31.21Zm-.19,0c-1.45-5.95-3.06-11.86-4.67-17.77l-2.41-8.84c-.09-.3-.25-.66-.36-1.16a2,2,0,0,1,0-1,1.41,1.41,0,0,1,.39-.61,1.27,1.27,0,0,1,.81-.34,1.79,1.79,0,0,1,1.06.36c.21.14.37.27.51.38s.59.38.89.58l3.88,2.46C-8.27,11.9,1.85,18.79,12,25.59c.64.44,1.25.81,1.95,1.33a2.51,2.51,0,0,1,.58.6,1.28,1.28,0,0,1,.22.63,1.37,1.37,0,0,1-.1.61,4.86,4.86,0,0,1-.77,1.15L11,33.45,5.16,40.54-6.51,54.73l-2.94,3.53-.72.87c-.09.11-.18.28-.3.46a1.38,1.38,0,0,1-.58.55,1.07,1.07,0,0,1-1.34-.87,11.28,11.28,0,0,1-.22-1.17l-2-9-2-9Z"/></g><g class="cls-6"><path class="cls-8" d="M-26.15,40.63l6.77,10.18,6.86,10.12c2.29,3.39,4.62,6.69,6.87,10.15.23.42.55.91.77,1a.17.17,0,0,0,.12,0s.05,0,.09-.09a1.54,1.54,0,0,0,.14-.57l.05-.75a7.94,7.94,0,0,1,.1-.79l.24-1.51,1-6L4.77,14l.49-3a10.24,10.24,0,0,0,.16-1.38c0-.19-.06-.25,0-.15s0,0-.2,0c-.39,0-.91,0-1.42,0H2.29l-3.06,0L-13,9.31l-12.23-.13L-37.46,9l-6.11-.18-1.53,0h-.4A4.16,4.16,0,0,1-46,8.68a3.9,3.9,0,0,0-.59-.08c-.05,0-.05,0,0,0a.35.35,0,0,0,.1-.1.37.37,0,0,0,0,.19,2.66,2.66,0,0,0,.57,1c.15.2.32.41.49.67L-45,11l.81,1.29,1.63,2.59L-39.32,20l6.53,10.35Zm-.17.11-6.89-10.1-7-10-3.51-5-1.75-2.51-.88-1.25-.44-.63c-.11-.16-.26-.34-.43-.54A4,4,0,0,1-48.15,9,2,2,0,0,1-48,7.7a1.45,1.45,0,0,1,.61-.64,1.68,1.68,0,0,1,.73-.2,4.81,4.81,0,0,1,.93.07l.28,0h8l12.23.14L-13,7.33l12.23.27,3.06.07,1.53,0a15,15,0,0,1,1.63.09,1.92,1.92,0,0,1,1.19.55,1.84,1.84,0,0,1,.43,1.29,11.2,11.2,0,0,1-.2,1.66l-.54,3L-2.19,62.47l-1.1,6L-3.57,70a7.09,7.09,0,0,0-.11.72l-.07.77a2.19,2.19,0,0,1-.27.89.92.92,0,0,1-.48.4.91.91,0,0,1-.62,0,1.6,1.6,0,0,1-.74-.64,7.83,7.83,0,0,1-.41-.69c-2.12-3.42-4.41-6.84-6.6-10.26l-6.68-10.25Z"/></g></g></svg>