<svg id="Capa_1" data-name="Capa 1" xmlns="http://www.w3.org/2000/svg" viewBox="0 0 80.23 57"><defs><style>.cls-1{fill:#fff;}</style></defs><title>icono proveedores</title><path class="cls-1" d="M44.08,50.59a21.48,21.48,0,0,1-5.92-1.2c-.71-.21-.39-.55-.14-.91a3.65,3.65,0,0,0-.77-5.08,3.7,3.7,0,0,0-2-.79c-.44,0-.65-.17-.66-.7A3.76,3.76,0,0,0,31.45,38c-.57-.12-.76-.32-.75-.93a3.77,3.77,0,0,0-3.84-3.84,3.17,3.17,0,0,0-2.63,1.59c-.32.48-.55,1-1,0-1-2.29-4-2.79-5.45-1.32-.3.32-.54.27-.8-.06-.69-.86-1.37-1.72-2.09-2.55-.38-.45-.18-.82,0-1.22l6.74-12c.39-.7.79-1.4,1.18-2.1.22-.39.5-.5.87-.23a11.56,11.56,0,0,0,5.63,1.78c.89.11.93.26.44,1-1,1.4-2,2.76-2.83,4.22a5.76,5.76,0,0,0-.74,1.9c-.34,1.91.68,2.94,2.62,2.79a9.67,9.67,0,0,0,7-4.06A5.67,5.67,0,0,1,39.08,21a1.63,1.63,0,0,1,1.26.32A107.17,107.17,0,0,1,59.66,34.09c.35.28.7.55,1,.86a2.56,2.56,0,0,1,.57,3.51,2.7,2.7,0,0,1-3.61.59c-2.94-1.75-5.86-3.52-8.79-5.29L47.62,33a.53.53,0,0,0-.78.16A.52.52,0,0,0,47,34c.54.37,1.1.72,1.66,1.05,2.42,1.45,4.84,2.92,7.28,4.34.68.4,1.26.78,1.08,1.71a2.4,2.4,0,0,1-1.51,2.13,3.52,3.52,0,0,1-3.16-.27c-2.36-1.44-4.77-2.79-7.16-4.18a4.45,4.45,0,0,0-.48-.24.56.56,0,0,0-.78.22c-.2.33,0,.59.25.76.7.44,1.43.86,2.14,1.28,1.85,1.08,3.69,2.17,5.56,3.21a1,1,0,0,1,.57,1.31c-.45,2.06-2,2.61-4.29,1.77-2-.73-3.81-1.8-5.72-2.72a5.76,5.76,0,0,0-.82-.34.48.48,0,0,0-.61.24.5.5,0,0,0,.13.65,4.07,4.07,0,0,0,.75.46c1.71.83,3.42,1.67,5.14,2.48.62.29.72.58.23,1.12A4.08,4.08,0,0,1,44.08,50.59Z"/><path class="cls-1" d="M43.38,13.9c3.07-.22,6,.64,9,1.3a8,8,0,0,0,4.57-.13c.57-.2.79,0,1,.46q3.85,6.89,7.74,13.76a.91.91,0,0,1-.18,1.31,21.06,21.06,0,0,1-3.34,2.93,1.1,1.1,0,0,1-1.5-.1,109.08,109.08,0,0,0-20-13.21A2.39,2.39,0,0,0,38.42,20a7.12,7.12,0,0,1-1.28.4,2.73,2.73,0,0,0-1.55,1.11,10.61,10.61,0,0,1-4.94,3.95,6.11,6.11,0,0,1-2.19.37c-.92,0-1.22-.41-1.1-1.32A4.19,4.19,0,0,1,28,22.88c1.5-2.43,3.19-4.73,4.87-7A2.7,2.7,0,0,1,34.28,15a20,20,0,0,1,4.82-.86A27.44,27.44,0,0,1,43.38,13.9Z"/><path class="cls-1" d="M12,31.7c-.13-.06-.32-.15-.49-.25-1.35-.82-2.68-1.66-4-2.46-.66-.39-.72-.8-.35-1.46q5.11-9,10.17-18.12c.4-.71.82-.83,1.5-.39q1.91,1.23,3.87,2.38c.7.41.74.88.36,1.55q-4.44,7.84-8.84,15.7l-1.39,2.49C12.65,31.43,12.48,31.71,12,31.7Z"/><path class="cls-1" d="M62.68,8.72c.56.05.7.49.9.84q2.94,5.2,5.86,10.41c1.4,2.49,2.77,5,4.2,7.46.45.78.31,1.21-.45,1.64-1.32.75-2.6,1.56-3.87,2.38-.64.41-1,.25-1.35-.38Q62.9,22,57.79,13c-.37-.65-.38-1.14.34-1.56,1.38-.81,2.74-1.66,4.12-2.5A3.41,3.41,0,0,1,62.68,8.72Z"/><path class="cls-1" d="M29.58,36.91A2.78,2.78,0,0,1,29,38.56c-1.32,1.79-2.66,3.57-4,5.37a2.09,2.09,0,0,1-3,.61c-1.12-.71-1.68-2.28-1-3.25,1.51-2.17,3.08-4.3,4.69-6.39a1.75,1.75,0,0,1,2.22-.32A2.65,2.65,0,0,1,29.58,36.91Z"/><path class="cls-1" d="M25.69,45.64a2.33,2.33,0,0,1,.57-1.47c1-1.36,2-2.72,3-4.09a2,2,0,0,1,2.92-.62,2.45,2.45,0,0,1,1.09,3.21,46.49,46.49,0,0,1-3.71,5.1,1.79,1.79,0,0,1-2.21.37A2.7,2.7,0,0,1,25.69,45.64Z"/><path class="cls-1" d="M33.51,51.28a2.57,2.57,0,0,1-2.23-1.39,2.18,2.18,0,0,1,.16-2.58c.65-.85,1.25-1.73,1.88-2.59a2,2,0,0,1,3-.56,2.45,2.45,0,0,1,1.06,3.22c-.75,1.17-1.61,2.27-2.46,3.38A1.55,1.55,0,0,1,33.51,51.28Z"/><path class="cls-1" d="M19.26,40.22A2.52,2.52,0,0,1,17,38.82a2.19,2.19,0,0,1,.1-2.52c.37-.5.73-1,1.11-1.51a2.07,2.07,0,0,1,2.81-.74,2.65,2.65,0,0,1,1.38,3,9.35,9.35,0,0,1-2.09,2.86A1.38,1.38,0,0,1,19.26,40.22Z"/></svg>