<svg id="Capa_1" data-name="Capa 1" xmlns="http://www.w3.org/2000/svg" viewBox="0 0 205.39 57"><defs><style>.cls-1{fill:#fff;}</style></defs><title>texto proveedores</title><path class="cls-1" d="M8.52,35v7.9H7.23V20.1h6a7.53,7.53,0,0,1,4.43,2.17,7.46,7.46,0,0,1,0,10.53A7.14,7.14,0,0,1,12.39,35Zm0-13.58V33.68h3.87a5.92,5.92,0,0,0,4.33-1.8,6.14,6.14,0,0,0,0-8.69,5.94,5.94,0,0,0-4.33-1.79Z"/><path class="cls-1" d="M28.23,35H24v7.9H22.68V20.1h6a7.53,7.53,0,0,1,4.43,2.17,7.45,7.45,0,0,1,0,10.52,7.21,7.21,0,0,1-3.46,2l5.25,8.11H33.3ZM24,21.4V33.68h3.87A6.15,6.15,0,0,0,34,27.53a6.13,6.13,0,0,0-6.14-6.12Z"/><path class="cls-1" d="M57.29,23.2a11.25,11.25,0,0,1,3.42,8.26A11.69,11.69,0,0,1,49,43.15a11.69,11.69,0,0,1-11.68-11.7A11.69,11.69,0,0,1,49,19.77,11.27,11.27,0,0,1,57.29,23.2ZM49,21.08A10.4,10.4,0,0,0,38.64,31.46,10.4,10.4,0,0,0,49,41.85,10.4,10.4,0,0,0,59.4,31.46,10.4,10.4,0,0,0,49,21.08Z"/><path class="cls-1" d="M77.52,20.1h1.35L70.68,42.88H69.9L61.71,20.1h1.35L70.3,40.56Z"/><path class="cls-1" d="M92.07,20.1v1.29H82v9.46h10.1v1.29H82v9.46h10.1v1.29H80.67V20.1Z"/><path class="cls-1" d="M107.07,20.1v1.29H97v9.46h10.1v1.29H97v9.46h10.1v1.29H95.68V20.1Z"/><path class="cls-1" d="M114.9,20.1q5.62,0,8.72,3.14A11.28,11.28,0,0,1,127,31.49a11.26,11.26,0,0,1-3.42,8.27q-3.09,3.09-8.72,3.13h-4.22V20.1ZM112,21.43V41.56h2.92a10.69,10.69,0,0,0,7.75-2.74,10,10,0,0,0,3-7.33,10,10,0,0,0-3-7.33,10.73,10.73,0,0,0-7.75-2.72Z"/><path class="cls-1" d="M149,23.2a11.25,11.25,0,0,1,3.42,8.26,11.69,11.69,0,1,1-23.38,0,11.69,11.69,0,0,1,20-8.26Zm-8.27-2.12a10.4,10.4,0,0,0-10.38,10.38,10.38,10.38,0,1,0,17.72-7.33A10,10,0,0,0,140.71,21.08Z"/><path class="cls-1" d="M160.76,35H156.5v7.9h-1.29V20.1h6a7.53,7.53,0,0,1,4.43,2.17,7.45,7.45,0,0,1,0,10.52,7.21,7.21,0,0,1-3.46,2l5.25,8.11h-1.58ZM156.5,21.4V33.68h3.87a6.15,6.15,0,0,0,6.14-6.15,6.13,6.13,0,0,0-6.14-6.12Z"/><path class="cls-1" d="M182.06,20.1v1.29H172v9.46h10.1v1.29H172v9.46h10.1v1.29H170.67V20.1Z"/><path class="cls-1" d="M191.84,30.26A9.59,9.59,0,0,1,188,28a4.83,4.83,0,0,1,6.84-6.81,4.18,4.18,0,0,1,1.08,1.69l-1.16.45a3.54,3.54,0,0,0-.84-1.27,3.54,3.54,0,0,0-6,2.51,3.46,3.46,0,0,0,1,2.51,9.44,9.44,0,0,0,2.68,1.74,11.33,11.33,0,0,1,4.61,2.75,6.76,6.76,0,0,1,0,9.54,6.7,6.7,0,0,1-9.53,0,6.36,6.36,0,0,1-1.9-3.67L186,37a5.18,5.18,0,0,0,1.58,3.22,5.49,5.49,0,1,0,7.77-7.75A10.44,10.44,0,0,0,191.84,30.26Z"/></svg>