<svg id="Capa_1" data-name="Capa 1" xmlns="http://www.w3.org/2000/svg" viewBox="0 0 820 759.11"><defs><style>.cls-1{opacity:0.4;}.cls-2{fill:#3a9e99;}.cls-3{fill:#e6b64c;}</style></defs><title>inicio de sesi´´on 3</title><g class="cls-1"><path class="cls-2" d="M62.76,499.37,25,417.94,15.57,397.6l-2.37-5.08L12,390a26.84,26.84,0,0,0-1.25-2.48c-.46-.8-1-1.61-1.38-2.46a6.86,6.86,0,0,1-.83-2.8,3.9,3.9,0,0,1,1.1-2.78,3.67,3.67,0,0,1,2.81-1c2,.07,3.72.81,5.56.84l5.59.45,11.18.9,22.36,1.8,89.45,7.32,44.72,3.66,22.36,1.83a27.2,27.2,0,0,1,5.73.89l.76.35a4.23,4.23,0,0,1,.73.6,2.38,2.38,0,0,1,.49.87c0,.16.1.32.13.47l0,.44a8.65,8.65,0,0,1-.67,3c-.68,1.81-1.48,3.5-2.25,5.2l-2.34,5.1-37.45,81.56-37.61,81.48-9.48,20.33L127,605.67l-2.35,5.06a33.46,33.46,0,0,1-2.23,5.3,4.19,4.19,0,0,1-2.75,2,3.77,3.77,0,0,1-3.27-1,7.83,7.83,0,0,1-1.6-2.67c-.36-.91-.63-1.81-.94-2.68-.15-.43-.3-.86-.48-1.25l-.57-1.27-1.16-2.55-2.32-5.11L100.05,581,81.47,540.16Zm.18-.08,19,40.66L101,580.55l9.56,20.3,2.39,5.07,1.19,2.54.6,1.28c.21.46.38.91.54,1.36.32.9.61,1.78.95,2.6a6.37,6.37,0,0,0,1.27,2.1,2.14,2.14,0,0,0,1.88.58,2.55,2.55,0,0,0,1.63-1.26,34.27,34.27,0,0,0,2-5l2.33-5.14,4.66-10.2,9.33-20.41L177,492.86l37.8-81.4,2.36-5.09c.78-1.69,1.58-3.39,2.22-5.08a7.4,7.4,0,0,0,.58-2.43v-.26l-.07-.2c0-.15-.13-.23-.18-.34s-.24-.18-.35-.29l-.51-.23a26.69,26.69,0,0,0-5.33-.81l-22.35-1.91L146.5,391l-89.42-7.62-22.35-1.94-11.18-1L18,380c-1.92-.06-3.75-.82-5.51-.88a3,3,0,0,0-2.3.81,3.21,3.21,0,0,0-.92,2.28,6.23,6.23,0,0,0,.75,2.53c.4.82.89,1.62,1.35,2.43a27.5,27.5,0,0,1,1.25,2.54l1.17,2.55,2.34,5.1,9.34,20.4Z"/></g><g class="cls-1"><path class="cls-3" d="M-.22,493.91.22,373.44l.06-30.12,0-15.06c0-1.26,0-2.5-.07-3.74S0,322,0,320.76a11.86,11.86,0,0,1,.34-3.85,4.75,4.75,0,0,1,1-1.76A4.56,4.56,0,0,1,3,314a3.8,3.8,0,0,1,2-.22,5.8,5.8,0,0,1,1.87.72,18.23,18.23,0,0,1,3,2.39,26.73,26.73,0,0,0,2.83,2.41l3.05,2.2,12.21,8.82L52.36,348l97.57,70.66L198.72,454l24.39,17.66,12.2,8.83a48,48,0,0,1,6,4.82,7.06,7.06,0,0,1,1.24,1.71,3.48,3.48,0,0,1,.3,2.35,5.14,5.14,0,0,1-1,2,13,13,0,0,1-1.35,1.48c-1.89,1.79-3.91,3.28-5.89,4.83l-6,4.61-11.91,9.21-23.82,18.43-47.65,36.85L49.84,640.29l-23.92,18.3-12,9.15c-1,.76-2,1.54-2.94,2.28s-1.79,1.68-2.74,2.54A11.62,11.62,0,0,1,5,674.84a4.6,4.6,0,0,1-4.3-.36A5.62,5.62,0,0,1-1.75,671a13.61,13.61,0,0,1-.19-4c.09-1.28.26-2.53.37-3.76.06-.62.09-1.21.09-1.82v-1.88l.12-15.06.23-30.12.51-60.23Zm.2,0L-.1,554.14,0,614.38v47.06c0,.65,0,1.3-.09,1.94-.1,1.27-.26,2.51-.34,3.74a12.24,12.24,0,0,0,.18,3.52,4.07,4.07,0,0,0,1.76,2.55,3,3,0,0,0,2.9.21,10.2,10.2,0,0,0,2.82-2c.9-.83,1.77-1.74,2.76-2.6s2-1.56,3-2.35l11.89-9.24L48.62,638.7,144,565.16l47.76-36.7,23.88-18.35,11.94-9.17,6-4.59c2-1.53,4-3,5.77-4.7a6.33,6.33,0,0,0,1.9-2.64c.24-.84-.34-1.77-1.14-2.63a47.25,47.25,0,0,0-5.73-4.64l-12.17-8.86-24.35-17.73-48.7-35.45-97.4-70.9L27.44,331l-12.16-8.88-3-2.22a27.46,27.46,0,0,1-2.88-2.49,17.61,17.61,0,0,0-2.86-2.31,5.09,5.09,0,0,0-1.62-.64,3.08,3.08,0,0,0-1.66.17,3.87,3.87,0,0,0-1.42.93,4.06,4.06,0,0,0-.84,1.5,11.24,11.24,0,0,0-.32,3.61c.05,1.24.18,2.49.27,3.75s.05,2.54.05,3.79l-.1,15.06L.64,373.44Z"/></g><g class="cls-1"><path class="cls-2" d="M62.76,260.67,25,179.24,15.57,158.9l-2.37-5.08L12,151.28a26.83,26.83,0,0,0-1.25-2.48c-.46-.8-1-1.61-1.38-2.46a6.86,6.86,0,0,1-.83-2.8,3.9,3.9,0,0,1,1.1-2.78,3.67,3.67,0,0,1,2.81-1c2,.07,3.72.81,5.56.84l5.59.45,11.18.9,22.36,1.8L146.61,151l44.72,3.66,22.36,1.83a27.21,27.21,0,0,1,5.73.89l.76.35a4.23,4.23,0,0,1,.73.6,2.38,2.38,0,0,1,.49.87c0,.16.1.32.13.47l0,.44a8.65,8.65,0,0,1-.67,3c-.68,1.81-1.48,3.5-2.25,5.2l-2.34,5.1L178.84,255l-37.61,81.48-9.48,20.33L127,367,124.65,372a33.47,33.47,0,0,1-2.23,5.3,4.19,4.19,0,0,1-2.75,2,3.77,3.77,0,0,1-3.27-1,7.83,7.83,0,0,1-1.6-2.67c-.36-.91-.63-1.81-.94-2.68-.15-.43-.3-.86-.48-1.25l-.57-1.27-1.16-2.55-2.32-5.11-9.28-20.43L81.47,301.46Zm.18-.08,19,40.66L101,341.86l9.56,20.3,2.39,5.07,1.19,2.54.6,1.28c.21.46.38.91.54,1.36.32.9.61,1.78.95,2.6a6.37,6.37,0,0,0,1.27,2.1,2.14,2.14,0,0,0,1.88.58,2.55,2.55,0,0,0,1.63-1.26,34.27,34.27,0,0,0,2-5l2.33-5.14,4.66-10.2,9.33-20.41L177,254.16l37.8-81.4,2.36-5.09c.78-1.69,1.58-3.39,2.22-5.08a7.41,7.41,0,0,0,.58-2.43v-.26l-.07-.2c0-.15-.13-.23-.18-.34s-.24-.18-.35-.29l-.51-.23a26.69,26.69,0,0,0-5.33-.81l-22.35-1.91-44.71-3.81-89.42-7.62-22.35-1.94-11.18-1L18,141.3c-1.92-.06-3.75-.82-5.51-.88a3,3,0,0,0-2.3.81,3.21,3.21,0,0,0-.92,2.28A6.23,6.23,0,0,0,10,146c.4.82.89,1.62,1.35,2.43A27.51,27.51,0,0,1,12.58,151l1.17,2.55,2.34,5.1,9.34,20.4Z"/></g><g class="cls-1"><path class="cls-3" d="M-.22,255.21.22,134.74l.06-30.12,0-15.06c0-1.26,0-2.5-.07-3.74S0,83.33,0,82.06a11.86,11.86,0,0,1,.34-3.85,4.76,4.76,0,0,1,1-1.76A4.56,4.56,0,0,1,3,75.33a3.8,3.8,0,0,1,2-.22,5.8,5.8,0,0,1,1.87.72,18.23,18.23,0,0,1,3,2.39,26.73,26.73,0,0,0,2.83,2.41l3.05,2.2,12.21,8.82,24.41,17.64L149.93,180l48.79,35.33,24.39,17.66,12.2,8.83a48.06,48.06,0,0,1,6,4.82,7.06,7.06,0,0,1,1.24,1.71,3.48,3.48,0,0,1,.3,2.35,5.15,5.15,0,0,1-1,2,13,13,0,0,1-1.35,1.48c-1.89,1.79-3.91,3.28-5.89,4.83l-6,4.61-11.91,9.21-23.82,18.43L145.24,328,49.84,401.59l-23.92,18.3-12,9.15c-1,.76-2,1.54-2.94,2.28S9.22,433,8.27,433.85A11.62,11.62,0,0,1,5,436.14a4.6,4.6,0,0,1-4.3-.36,5.62,5.62,0,0,1-2.41-3.49,13.61,13.61,0,0,1-.19-4c.09-1.28.26-2.53.37-3.76.06-.62.09-1.21.09-1.82v-1.88l.12-15.06.23-30.12.51-60.23Zm.2,0L-.1,315.44,0,375.68v47.06c0,.65,0,1.3-.09,1.94-.1,1.27-.26,2.51-.34,3.74a12.24,12.24,0,0,0,.18,3.52,4.07,4.07,0,0,0,1.76,2.55,3,3,0,0,0,2.9.21,10.2,10.2,0,0,0,2.82-2c.9-.83,1.77-1.74,2.76-2.6s2-1.56,3-2.35l11.89-9.24L48.62,400,144,326.46l47.76-36.7,23.88-18.35,11.94-9.17,6-4.59c2-1.53,4-3,5.77-4.7a6.33,6.33,0,0,0,1.9-2.64c.24-.84-.34-1.77-1.14-2.63a47.24,47.24,0,0,0-5.73-4.64l-12.17-8.86-24.35-17.73L149.17,181l-97.4-70.9L27.44,92.35,15.28,83.47l-3-2.22a27.46,27.46,0,0,1-2.88-2.49,17.61,17.61,0,0,0-2.86-2.31,5.09,5.09,0,0,0-1.62-.64A3.08,3.08,0,0,0,3.21,76a3.87,3.87,0,0,0-1.42.93A4.06,4.06,0,0,0,1,78.42,11.24,11.24,0,0,0,.63,82c.05,1.24.18,2.49.27,3.75s.05,2.54.05,3.79l-.1,15.06L.64,134.74Z"/></g><g class="cls-1"><path class="cls-2" d="M175.61,380.44,137.88,299l-9.47-20.34L126,273.59,124.86,271a26.83,26.83,0,0,0-1.25-2.48c-.46-.8-1-1.61-1.38-2.46a6.86,6.86,0,0,1-.83-2.8,3.9,3.9,0,0,1,1.1-2.78,3.67,3.67,0,0,1,2.81-1c2,.07,3.72.81,5.56.84l5.59.45,11.18.9,22.36,1.8,89.45,7.32,44.72,3.66,22.36,1.83a27.2,27.2,0,0,1,5.73.89l.76.35a4.23,4.23,0,0,1,.73.6,2.38,2.38,0,0,1,.49.87c0,.16.1.32.13.47l0,.44a8.65,8.65,0,0,1-.67,3c-.68,1.81-1.48,3.5-2.25,5.2l-2.34,5.1-37.45,81.56-37.61,81.48-9.48,20.33-4.74,10.17-2.35,5.06a33.47,33.47,0,0,1-2.23,5.3,4.19,4.19,0,0,1-2.75,2,3.77,3.77,0,0,1-3.27-1,7.83,7.83,0,0,1-1.6-2.67c-.36-.91-.63-1.81-.94-2.68-.15-.43-.3-.86-.48-1.25l-.57-1.27-1.16-2.55-2.32-5.11-9.28-20.43-18.59-40.84Zm.18-.08,19,40.66,19.1,40.61,9.56,20.3,2.39,5.07,1.19,2.54.6,1.28c.21.46.38.91.54,1.36.32.9.61,1.78.95,2.6a6.37,6.37,0,0,0,1.27,2.1,2.14,2.14,0,0,0,1.88.58,2.55,2.55,0,0,0,1.63-1.26,34.26,34.26,0,0,0,2-5l2.33-5.14,4.66-10.2,9.33-20.41,37.63-81.47,37.8-81.4,2.36-5.09c.78-1.69,1.58-3.39,2.22-5.08a7.41,7.41,0,0,0,.58-2.43v-.26l-.07-.2c0-.15-.13-.23-.18-.34s-.24-.18-.35-.29l-.51-.23a26.69,26.69,0,0,0-5.33-.81l-22.35-1.91-44.71-3.81-89.42-7.62-22.35-1.94-11.18-1-5.59-.48c-1.92-.06-3.75-.82-5.51-.88a3,3,0,0,0-2.3.81,3.21,3.21,0,0,0-.92,2.28,6.24,6.24,0,0,0,.75,2.53c.4.82.89,1.62,1.35,2.43a27.5,27.5,0,0,1,1.25,2.54l1.17,2.55,2.34,5.1,9.34,20.4Z"/></g><g class="cls-1"><path class="cls-3" d="M112.63,375l.43-120.47.06-30.12,0-15.06c0-1.26,0-2.5-.07-3.74s-.23-2.49-.29-3.76a11.86,11.86,0,0,1,.34-3.85,4.76,4.76,0,0,1,1-1.76,4.56,4.56,0,0,1,1.69-1.12,3.8,3.8,0,0,1,2-.22,5.8,5.8,0,0,1,1.87.72,18.23,18.23,0,0,1,3,2.39,26.74,26.74,0,0,0,2.83,2.41l3.05,2.2,12.21,8.82,24.41,17.64,97.57,70.66,48.79,35.33L336,352.72l12.2,8.83a48.06,48.06,0,0,1,6,4.82,7.06,7.06,0,0,1,1.24,1.71,3.48,3.48,0,0,1,.3,2.35,5.15,5.15,0,0,1-1,2,13,13,0,0,1-1.35,1.48c-1.89,1.79-3.91,3.28-5.89,4.83l-6,4.61-11.91,9.21L305.74,411,258.09,447.8l-95.41,73.56-23.92,18.3-12,9.15c-1,.76-2,1.54-2.94,2.28s-1.79,1.68-2.74,2.54a11.62,11.62,0,0,1-3.31,2.29,4.6,4.6,0,0,1-4.3-.36,5.62,5.62,0,0,1-2.41-3.49,13.61,13.61,0,0,1-.19-4c.09-1.28.26-2.53.37-3.76.06-.62.09-1.21.09-1.82v-1.88l.12-15.06.23-30.12.51-60.23Zm.2,0-.08,60.24.05,60.24v47.06c0,.65,0,1.3-.09,1.94-.1,1.27-.26,2.51-.34,3.74a12.24,12.24,0,0,0,.18,3.52,4.07,4.07,0,0,0,1.76,2.55,3,3,0,0,0,2.9.21,10.2,10.2,0,0,0,2.82-2c.9-.83,1.77-1.74,2.76-2.6s2-1.56,3-2.35l11.89-9.24,23.78-18.48,95.42-73.54,47.76-36.7,23.88-18.35L340.47,382l6-4.59c2-1.53,4-3,5.77-4.7a6.33,6.33,0,0,0,1.9-2.64c.24-.84-.34-1.77-1.14-2.63a47.26,47.26,0,0,0-5.73-4.64L335.06,354l-24.35-17.73L262,300.78l-97.4-70.9-24.33-17.75-12.16-8.88-3-2.22a27.47,27.47,0,0,1-2.88-2.49,17.61,17.61,0,0,0-2.86-2.31,5.09,5.09,0,0,0-1.62-.64,3.08,3.08,0,0,0-1.66.17,3.87,3.87,0,0,0-1.42.93,4.06,4.06,0,0,0-.84,1.5,11.24,11.24,0,0,0-.32,3.61c.05,1.24.18,2.49.27,3.75s.05,2.54.05,3.79l-.1,15.06-.21,30.12Z"/></g><g class="cls-1"><path class="cls-2" d="M756.71,535.78l37.53-81.52,9.34-20.4,2.34-5.1,1.17-2.55a27.5,27.5,0,0,1,1.25-2.54c.46-.82.95-1.61,1.35-2.43a6.24,6.24,0,0,0,.75-2.53,3.21,3.21,0,0,0-.92-2.28,3,3,0,0,0-2.3-.81c-1.76.05-3.59.82-5.51.88l-5.59.48-11.18,1-22.35,1.94-89.42,7.62-44.71,3.81-22.35,1.91a26.69,26.69,0,0,0-5.33.81l-.51.23c-.11.11-.27.18-.35.29s-.17.19-.18.34l-.07.2v.26a7.41,7.41,0,0,0,.58,2.43c.64,1.69,1.44,3.39,2.22,5.08l2.36,5.09,37.8,81.4,37.63,81.47,9.33,20.41,4.66,10.2,2.33,5.14a34.28,34.28,0,0,0,2,5,2.55,2.55,0,0,0,1.63,1.26,2.14,2.14,0,0,0,1.88-.58,6.37,6.37,0,0,0,1.27-2.1c.34-.83.62-1.71.95-2.6.16-.45.33-.9.54-1.36l.6-1.28,1.19-2.54,2.39-5.07,9.56-20.3,19.1-40.61Zm.18.08-18.7,40.79L719.6,617.49l-9.28,20.43L708,643l-1.16,2.55-.57,1.27c-.17.4-.33.82-.48,1.25-.3.87-.58,1.77-.94,2.68a7.83,7.83,0,0,1-1.6,2.67,3.77,3.77,0,0,1-3.27,1,4.19,4.19,0,0,1-2.75-2,33.46,33.46,0,0,1-2.23-5.3l-2.35-5.06L687.92,632l-9.48-20.33-37.61-81.48-37.45-81.56-2.34-5.1c-.77-1.71-1.58-3.4-2.25-5.2a8.65,8.65,0,0,1-.67-3l0-.44c0-.16.08-.32.13-.47a2.38,2.38,0,0,1,.49-.87,4.23,4.23,0,0,1,.73-.6l.76-.35a27.21,27.21,0,0,1,5.73-.89l22.36-1.83,44.72-3.66,89.45-7.32,22.36-1.8,11.18-.9,5.59-.45c1.84,0,3.56-.78,5.56-.84a3.67,3.67,0,0,1,2.81,1,3.9,3.9,0,0,1,1.1,2.78,6.86,6.86,0,0,1-.83,2.8c-.43.86-.92,1.66-1.38,2.46a26.81,26.81,0,0,0-1.25,2.48L806.46,429l-2.37,5.08-9.47,20.34Z"/></g><g class="cls-1"><path class="cls-3" d="M819.67,530.4,819,409.93l-.21-30.12-.1-15.06c0-1.25-.05-2.52.05-3.79s.22-2.51.27-3.75a11.24,11.24,0,0,0-.32-3.61,4.06,4.06,0,0,0-.84-1.5,3.86,3.86,0,0,0-1.42-.93,3.08,3.08,0,0,0-1.66-.17,5.09,5.09,0,0,0-1.62.64A17.61,17.61,0,0,0,810.3,354a27.46,27.46,0,0,1-2.88,2.49l-3,2.22-12.16,8.88-24.33,17.75-97.4,70.9-48.7,35.45-24.35,17.73-12.17,8.86a47.25,47.25,0,0,0-5.73,4.64c-.81.86-1.38,1.79-1.14,2.63a6.34,6.34,0,0,0,1.9,2.64c1.77,1.66,3.79,3.16,5.77,4.7l6,4.59L604,546.6l23.88,18.35,47.76,36.7L771,675.19l23.78,18.48,11.89,9.24c1,.79,2,1.5,3,2.35s1.86,1.77,2.76,2.6a10.2,10.2,0,0,0,2.82,2,3,3,0,0,0,2.9-.21,4.07,4.07,0,0,0,1.76-2.55,12.24,12.24,0,0,0,.18-3.52c-.08-1.22-.23-2.46-.34-3.74-.05-.63-.08-1.29-.09-1.94V650.87l.05-60.24Zm.2,0,.38,60.23.51,60.23L821,681l.12,15.06v1.88c0,.61,0,1.2.09,1.82.11,1.23.28,2.48.37,3.76a13.62,13.62,0,0,1-.19,4A5.62,5.62,0,0,1,819,711a4.6,4.6,0,0,1-4.3.36,11.62,11.62,0,0,1-3.31-2.29c-.95-.86-1.83-1.76-2.74-2.54s-2-1.52-2.94-2.28l-12-9.15-23.92-18.3-95.41-73.56-47.65-36.85-23.82-18.43L591,538.73l-6-4.61c-2-1.55-4-3-5.89-4.83a13,13,0,0,1-1.35-1.48,5.14,5.14,0,0,1-1-2,3.48,3.48,0,0,1,.3-2.35,7.06,7.06,0,0,1,1.24-1.71,48.06,48.06,0,0,1,6-4.82l12.2-8.83,24.39-17.66,48.79-35.33,97.57-70.66,24.41-17.64L803.92,358l3.05-2.2a26.72,26.72,0,0,0,2.83-2.41,18.23,18.23,0,0,1,3-2.39,5.8,5.8,0,0,1,1.87-.72,3.8,3.8,0,0,1,2,.22,4.56,4.56,0,0,1,1.69,1.12,4.76,4.76,0,0,1,1,1.76,11.86,11.86,0,0,1,.34,3.85c-.06,1.27-.2,2.52-.29,3.76s-.06,2.48-.07,3.74l0,15.06.06,30.12Z"/></g><g class="cls-1"><path class="cls-2" d="M756.71,297.08l37.53-81.52,9.34-20.4,2.34-5.1,1.17-2.55a27.48,27.48,0,0,1,1.25-2.54c.46-.82.95-1.61,1.35-2.43a6.24,6.24,0,0,0,.75-2.53,3.21,3.21,0,0,0-.92-2.28,3,3,0,0,0-2.3-.81c-1.76.05-3.59.82-5.51.88l-5.59.48-11.18,1-22.35,1.94-89.42,7.62-44.71,3.81-22.35,1.91a26.69,26.69,0,0,0-5.33.81l-.51.23c-.11.11-.27.18-.35.29s-.17.19-.18.34l-.07.2v.26a7.41,7.41,0,0,0,.58,2.43c.64,1.69,1.44,3.39,2.22,5.08l2.36,5.09,37.8,81.4,37.63,81.47,9.33,20.41,4.66,10.2,2.33,5.14a34.28,34.28,0,0,0,2,5,2.55,2.55,0,0,0,1.63,1.26,2.14,2.14,0,0,0,1.88-.58,6.37,6.37,0,0,0,1.27-2.1c.34-.83.62-1.71.95-2.6.16-.45.33-.9.54-1.36l.6-1.28,1.19-2.54,2.39-5.07,9.56-20.3,19.1-40.61Zm.18.08L738.19,338,719.6,378.8l-9.28,20.43L708,404.33l-1.16,2.55-.57,1.27c-.17.4-.33.82-.48,1.25-.3.87-.58,1.77-.94,2.68a7.83,7.83,0,0,1-1.6,2.67,3.77,3.77,0,0,1-3.27,1,4.19,4.19,0,0,1-2.75-2,33.46,33.46,0,0,1-2.23-5.3l-2.35-5.06-4.74-10.17L678.44,373l-37.61-81.48-37.45-81.56-2.34-5.1c-.77-1.71-1.58-3.4-2.25-5.2a8.65,8.65,0,0,1-.67-3l0-.44c0-.16.08-.32.13-.47a2.38,2.38,0,0,1,.49-.87,4.23,4.23,0,0,1,.73-.6l.76-.35A27.2,27.2,0,0,1,606,193l22.36-1.83,44.72-3.66,89.45-7.32,22.36-1.8,11.18-.9,5.59-.45c1.84,0,3.56-.78,5.56-.84a3.67,3.67,0,0,1,2.81,1,3.9,3.9,0,0,1,1.1,2.78,6.86,6.86,0,0,1-.83,2.8c-.43.86-.92,1.66-1.38,2.46a26.83,26.83,0,0,0-1.25,2.48l-1.18,2.54-2.37,5.08-9.47,20.34Z"/></g><g class="cls-1"><path class="cls-3" d="M819.67,291.7,819,171.23l-.21-30.12-.1-15.06c0-1.25-.05-2.52.05-3.79s.22-2.51.27-3.75a11.24,11.24,0,0,0-.32-3.61,4.06,4.06,0,0,0-.84-1.5,3.87,3.87,0,0,0-1.42-.93,3.08,3.08,0,0,0-1.66-.17,5.09,5.09,0,0,0-1.62.64,17.61,17.61,0,0,0-2.86,2.31,27.46,27.46,0,0,1-2.88,2.49l-3,2.22-12.16,8.88-24.33,17.75-97.4,70.9-48.7,35.45-24.35,17.73-12.17,8.86a47.25,47.25,0,0,0-5.73,4.64c-.81.86-1.38,1.79-1.14,2.63a6.33,6.33,0,0,0,1.9,2.64c1.77,1.66,3.79,3.16,5.77,4.7l6,4.59L604,307.9l23.88,18.35L675.62,363,771,436.49,794.82,455l11.89,9.24c1,.79,2,1.5,3,2.35s1.86,1.77,2.76,2.6a10.2,10.2,0,0,0,2.82,2,3,3,0,0,0,2.9-.21,4.07,4.07,0,0,0,1.76-2.55,12.24,12.24,0,0,0,.18-3.52c-.08-1.22-.23-2.46-.34-3.74-.05-.63-.08-1.29-.09-1.94V412.17l.05-60.24Zm.2,0,.38,60.23.51,60.23.23,30.12.12,15.06v1.88c0,.61,0,1.2.09,1.82.11,1.23.28,2.48.37,3.76a13.62,13.62,0,0,1-.19,4,5.62,5.62,0,0,1-2.41,3.49,4.6,4.6,0,0,1-4.3.36,11.62,11.62,0,0,1-3.31-2.29c-.95-.86-1.83-1.76-2.74-2.54s-2-1.52-2.94-2.28l-12-9.15-23.92-18.3-95.41-73.56-47.65-36.85-23.82-18.43L591,300l-6-4.61c-2-1.55-4-3-5.89-4.83a13,13,0,0,1-1.35-1.48,5.14,5.14,0,0,1-1-2,3.48,3.48,0,0,1,.3-2.35,7.06,7.06,0,0,1,1.24-1.71,48.06,48.06,0,0,1,6-4.82l12.2-8.83,24.39-17.66,48.79-35.33,97.57-70.66,24.41-17.64,12.21-8.82,3.05-2.2a26.73,26.73,0,0,0,2.83-2.41,18.23,18.23,0,0,1,3-2.39,5.8,5.8,0,0,1,1.87-.72,3.8,3.8,0,0,1,2,.22,4.56,4.56,0,0,1,1.69,1.12,4.75,4.75,0,0,1,1,1.76,11.86,11.86,0,0,1,.34,3.85c-.06,1.27-.2,2.52-.29,3.76s-.06,2.48-.07,3.74l0,15.06.06,30.12Z"/></g><g class="cls-1"><path class="cls-2" d="M643.87,416.85l37.53-81.52,9.34-20.4,2.34-5.1,1.17-2.55a27.49,27.49,0,0,1,1.25-2.54c.46-.82.95-1.61,1.35-2.43a6.23,6.23,0,0,0,.75-2.53,3.21,3.21,0,0,0-.92-2.28,3,3,0,0,0-2.3-.81c-1.76.05-3.59.82-5.51.88l-5.59.48-11.18,1L649.73,301l-89.42,7.62-44.71,3.81-22.35,1.91a26.69,26.69,0,0,0-5.33.81l-.51.23c-.11.11-.27.18-.35.29s-.17.19-.18.34l-.07.2v.26a7.4,7.4,0,0,0,.58,2.43c.64,1.69,1.44,3.39,2.22,5.08L492,329l37.8,81.4L567.4,491.9l9.33,20.41,4.66,10.2,2.33,5.14a34.27,34.27,0,0,0,2,5,2.55,2.55,0,0,0,1.63,1.26,2.14,2.14,0,0,0,1.88-.58,6.37,6.37,0,0,0,1.27-2.1c.34-.83.62-1.71.95-2.6.16-.45.33-.9.54-1.36l.6-1.28,1.19-2.54,2.39-5.07,9.56-20.3,19.1-40.61Zm.18.08-18.7,40.79-18.59,40.84L597.47,519l-2.32,5.11L594,526.65l-.57,1.27c-.17.4-.33.82-.48,1.25-.3.87-.58,1.77-.94,2.68a7.82,7.82,0,0,1-1.6,2.67,3.77,3.77,0,0,1-3.27,1,4.19,4.19,0,0,1-2.75-2,33.46,33.46,0,0,1-2.23-5.3l-2.35-5.06-4.74-10.17-9.48-20.33L528,411.25l-37.45-81.56-2.34-5.1c-.77-1.71-1.58-3.4-2.25-5.2a8.65,8.65,0,0,1-.67-3l0-.44c0-.16.08-.32.13-.47a2.38,2.38,0,0,1,.49-.87,4.23,4.23,0,0,1,.73-.6l.76-.35a27.2,27.2,0,0,1,5.73-.89l22.36-1.83,44.72-3.66L649.65,300l22.36-1.8,11.18-.9,5.59-.45c1.84,0,3.57-.78,5.56-.84a3.67,3.67,0,0,1,2.81,1,3.9,3.9,0,0,1,1.1,2.78,6.86,6.86,0,0,1-.83,2.8c-.43.86-.92,1.66-1.38,2.46a26.83,26.83,0,0,0-1.25,2.48l-1.18,2.54-2.37,5.08-9.47,20.34Z"/></g><g class="cls-1"><path class="cls-3" d="M706.83,411.47,706.17,291,706,260.89l-.1-15.06c0-1.25-.05-2.52.05-3.79s.22-2.51.27-3.75a11.24,11.24,0,0,0-.32-3.61,4.06,4.06,0,0,0-.84-1.5,3.87,3.87,0,0,0-1.42-.93,3.08,3.08,0,0,0-1.66-.17,5.09,5.09,0,0,0-1.62.64,17.61,17.61,0,0,0-2.86,2.31,27.46,27.46,0,0,1-2.88,2.49l-3,2.22-12.16,8.88L655,266.37l-97.4,70.9-48.7,35.45-24.35,17.73-12.17,8.86a47.25,47.25,0,0,0-5.73,4.64c-.81.86-1.38,1.79-1.14,2.63a6.33,6.33,0,0,0,1.9,2.64c1.77,1.66,3.79,3.16,5.77,4.7l6,4.59,11.94,9.17L515,446l47.76,36.7,95.42,73.54L682,574.75,693.87,584c1,.79,2,1.5,3,2.35s1.86,1.77,2.76,2.6a10.2,10.2,0,0,0,2.82,2,3,3,0,0,0,2.9-.21,4.07,4.07,0,0,0,1.76-2.55,12.24,12.24,0,0,0,.18-3.52c-.08-1.22-.23-2.46-.34-3.74-.05-.63-.08-1.29-.09-1.94V531.94l.05-60.24Zm.2,0,.38,60.23.51,60.23.23,30.12.12,15.06V579c0,.61,0,1.2.09,1.82.11,1.23.28,2.48.37,3.76a13.61,13.61,0,0,1-.19,4,5.62,5.62,0,0,1-2.41,3.49,4.6,4.6,0,0,1-4.3.36,11.62,11.62,0,0,1-3.31-2.29c-.95-.86-1.83-1.76-2.74-2.54s-2-1.52-2.94-2.28l-12-9.15L657,557.85l-95.41-73.56-47.65-36.85L490.1,429l-11.91-9.21-6-4.61c-2-1.55-4-3-5.89-4.83a13,13,0,0,1-1.35-1.48,5.14,5.14,0,0,1-1-2,3.48,3.48,0,0,1,.3-2.35,7.06,7.06,0,0,1,1.24-1.71,48,48,0,0,1,6-4.82l12.2-8.83,24.39-17.66,48.79-35.33,97.57-70.66,24.41-17.64,12.21-8.82,3.05-2.2a26.75,26.75,0,0,0,2.83-2.41,18.22,18.22,0,0,1,3-2.39,5.8,5.8,0,0,1,1.87-.72,3.8,3.8,0,0,1,2,.22,4.56,4.56,0,0,1,1.69,1.12,4.75,4.75,0,0,1,1,1.76,11.86,11.86,0,0,1,.34,3.85c-.06,1.27-.2,2.52-.29,3.76s-.06,2.48-.07,3.74l0,15.06.06,30.12Z"/></g><g class="cls-1"><path class="cls-2" d="M509.86,691l-36,17.39L438,725.83l-17.94,8.76-4.49,2.19-2.24,1.1c-.72.36-1.41.82-2.13,1.25a12.21,12.21,0,0,1-2.29,1.15,3.55,3.55,0,0,1-2.68,0,4,4,0,0,1-1.12-.79,3.13,3.13,0,0,1-.69-1.21,5.82,5.82,0,0,1,0-2.63c.14-.84.35-1.65.47-2.45s.14-1.64.22-2.46l.38-5,.76-10,1.52-19.91,6.2-79.63,3.1-39.81,1.55-19.91.41-5a25.64,25.64,0,0,1,.34-2.55,7.78,7.78,0,0,1,.36-1.33,3.07,3.07,0,0,1,.92-1.35L421,546l.44-.15a2.48,2.48,0,0,1,.84-.1,5.42,5.42,0,0,1,1.42.25,19.62,19.62,0,0,1,2.43.93c1.54.69,3,1.42,4.54,2.14l72,34.6,71.91,34.77,17.94,8.77,9,4.39L606,633.8a19.36,19.36,0,0,0,2.21,1c.77.29,1.57.57,2.38.95a5.73,5.73,0,0,1,2.3,1.73,3.46,3.46,0,0,1,.62,1.49,3.84,3.84,0,0,1-.11,1.58,4,4,0,0,1-1.94,2.3,13.39,13.39,0,0,1-2.42,1.06c-.79.28-1.57.54-2.27.85l-2.25,1.06L600,647.94l-18,8.57-36.06,17.16Zm-.09-.18,35.87-17.55,35.81-17.67,17.9-8.84,4.48-2.21,2.25-1.11c.81-.38,1.62-.65,2.39-.94a12,12,0,0,0,2.13-1,2.43,2.43,0,0,0,1.21-1.4,2.25,2.25,0,0,0,0-.89,1.88,1.88,0,0,0-.34-.78,4.2,4.2,0,0,0-1.68-1.19c-.7-.32-1.47-.59-2.26-.88a21.2,21.2,0,0,1-2.37-1l-4.5-2.15-9-4.31-18-8.62-71.9-34.78L430,550.52c-1.5-.72-3-1.46-4.48-2.14a18.26,18.26,0,0,0-2.22-.86c-.73-.23-1.42-.28-1.68,0a3.25,3.25,0,0,0-.73,1.77c-.16.76-.24,1.58-.33,2.4l-.42,5-1.62,19.9-3.25,39.8-6.5,79.61-1.66,19.9-.83,9.95-.41,5c-.08.84-.11,1.64-.24,2.51s-.35,1.65-.49,2.45a5.17,5.17,0,0,0,0,2.31,2.44,2.44,0,0,0,.52.95,3.32,3.32,0,0,0,.91.64,2.88,2.88,0,0,0,2.19,0,11.64,11.64,0,0,0,2.17-1.07c.71-.42,1.42-.87,2.18-1.26l2.25-1.08,4.5-2.16,18-8.63,36-17.29Z"/></g><g class="cls-1"><path class="cls-3" d="M505.09,748.51,398,748.11l-26.78-.05c-4.46,0-8.95-.05-13.37,0-2.2.1-4.44.6-6.77.09a4.45,4.45,0,0,1-1.64-.74,4,4,0,0,1-1.09-4.94c1.05-2.13,2.85-3.58,4.12-5.34l3.8-5.5,7.6-11L379,698.55l60.91-88.13,30.46-44.07,15.23-22,7.62-11a46.48,46.48,0,0,1,4.15-5.42,7.07,7.07,0,0,1,1.48-1.18,3.11,3.11,0,0,1,2.14-.41,4.35,4.35,0,0,1,1.83.89,10.77,10.77,0,0,1,1.31,1.23c1.57,1.72,2.86,3.54,4.2,5.33l4,5.39,8,10.77,15.91,21.54L568,614.54l63.51,86.28,31.69,43.45c.85,2.72-1.5,5.51-4,5.76-2.45.41-4.69-.15-6.85-.28-4.37-.11-8.9-.1-13.34-.15l-26.78-.22-53.57-.5Zm0-.2,53.57.06,53.57-.07H639c4.48,0,8.88,0,13.44,0,2.27.14,4.5.62,6.48.25a4.53,4.53,0,0,0,1.34-.47,3.47,3.47,0,0,0,1.54-2.14,2.74,2.74,0,0,0-.07-1.3,7.26,7.26,0,0,0-1.56-2.56c-.69-.82-1.48-1.61-2.23-2.48s-1.41-1.82-2.08-2.7l-2-2.69-8-10.75-16-21.5-63.5-86.29-31.68-43.2-15.84-21.6L511,540.12l-4-5.4c-1.32-1.79-2.62-3.62-4.06-5.2a5.07,5.07,0,0,0-2.26-1.65c-.66-.16-1.47.4-2.2,1.13a45.64,45.64,0,0,0-4,5.2l-7.64,11-15.29,22-30.58,44-61.16,88-15.32,22-7.66,11L353,737.57c-1.36,1.84-3.13,3.29-4.08,5.2a3.24,3.24,0,0,0-.06,2.92,3.28,3.28,0,0,0,.93,1.18,3.77,3.77,0,0,0,1.39.63c2.08.47,4.33,0,6.57-.08,4.5,0,8.94,0,13.41.06l26.78.2Z"/></g><g class="cls-1"><path class="cls-2" d="M301.59,691l-36,17.39-35.9,17.49-17.94,8.76-4.49,2.19-2.24,1.1c-.72.36-1.41.82-2.13,1.25a12.21,12.21,0,0,1-2.29,1.15,3.55,3.55,0,0,1-2.68,0,4,4,0,0,1-1.12-.79,3.13,3.13,0,0,1-.69-1.21,5.82,5.82,0,0,1,0-2.63c.14-.84.35-1.65.47-2.45s.14-1.64.22-2.46l.38-5,.76-10,1.52-19.91,6.2-79.63,3.1-39.81,1.55-19.91.41-5a25.63,25.63,0,0,1,.34-2.55,7.78,7.78,0,0,1,.36-1.33,3.07,3.07,0,0,1,.92-1.35l.39-.27.44-.15a2.48,2.48,0,0,1,.84-.1,5.42,5.42,0,0,1,1.42.25,19.63,19.63,0,0,1,2.43.93c1.54.69,3,1.42,4.54,2.14l72,34.6,71.91,34.77,17.94,8.77,9,4.39,4.48,2.19a19.36,19.36,0,0,0,2.21,1c.77.29,1.57.57,2.38.95a5.73,5.73,0,0,1,2.3,1.73,3.46,3.46,0,0,1,.62,1.49,3.84,3.84,0,0,1-.11,1.58,4,4,0,0,1-1.94,2.3,13.39,13.39,0,0,1-2.42,1.06c-.79.28-1.57.54-2.27.85l-2.25,1.06-4.51,2.14-18,8.57L337.6,673.67Zm-.09-.18,35.87-17.55,35.81-17.67,17.9-8.84,4.48-2.21,2.25-1.11c.81-.38,1.62-.65,2.38-.94a12,12,0,0,0,2.13-1,2.43,2.43,0,0,0,1.21-1.4,2.25,2.25,0,0,0,0-.89,1.88,1.88,0,0,0-.34-.78,4.2,4.2,0,0,0-1.68-1.19c-.7-.32-1.47-.59-2.26-.88a21.2,21.2,0,0,1-2.37-1l-4.5-2.15-9-4.31-18-8.62-71.9-34.78L221.7,550.52c-1.5-.72-3-1.46-4.48-2.14a18.26,18.26,0,0,0-2.22-.86c-.73-.23-1.42-.28-1.68,0a3.25,3.25,0,0,0-.73,1.77c-.16.76-.24,1.58-.33,2.4l-.42,5-1.62,19.9L207,616.33l-6.5,79.61-1.66,19.9-.83,9.95-.41,5c-.08.84-.11,1.64-.24,2.51s-.35,1.65-.49,2.45a5.17,5.17,0,0,0,0,2.31,2.44,2.44,0,0,0,.52.95,3.32,3.32,0,0,0,.9.64,2.88,2.88,0,0,0,2.19,0,11.64,11.64,0,0,0,2.17-1.07c.71-.42,1.42-.87,2.18-1.26l2.25-1.08,4.5-2.16,18-8.63,36-17.29Z"/></g><g class="cls-1"><path class="cls-3" d="M296.82,748.51l-107.13-.4-26.78-.05c-4.46,0-8.95-.05-13.37,0-2.2.1-4.44.6-6.77.09a4.45,4.45,0,0,1-1.64-.74,4,4,0,0,1-1.09-4.94c1.05-2.13,2.85-3.58,4.12-5.34l3.8-5.5,7.6-11,15.2-22.05,60.91-88.13,30.46-44.07,15.23-22,7.62-11a46.48,46.48,0,0,1,4.15-5.42,7.07,7.07,0,0,1,1.48-1.18,3.11,3.11,0,0,1,2.14-.41,4.35,4.35,0,0,1,1.83.89,10.77,10.77,0,0,1,1.31,1.23c1.57,1.72,2.86,3.54,4.2,5.33l4,5.39,8,10.77,15.91,21.54,31.83,43.09,63.51,86.28,31.69,43.45c.85,2.72-1.5,5.51-4,5.76-2.45.41-4.69-.15-6.85-.28-4.37-.11-8.9-.1-13.34-.15l-26.78-.22-53.57-.5Zm0-.2,53.57.06,53.57-.07h26.78c4.48,0,8.88,0,13.44,0,2.27.14,4.5.62,6.48.25a4.53,4.53,0,0,0,1.34-.47,3.47,3.47,0,0,0,1.54-2.14,2.74,2.74,0,0,0-.07-1.3,7.26,7.26,0,0,0-1.56-2.56c-.69-.82-1.48-1.61-2.23-2.48s-1.41-1.82-2.08-2.7l-2-2.69-8-10.75-16-21.5-63.5-86.29-31.68-43.2-15.84-21.6-7.92-10.8-4-5.4c-1.32-1.79-2.62-3.62-4.06-5.2a5.07,5.07,0,0,0-2.26-1.65c-.66-.16-1.47.4-2.2,1.13a45.63,45.63,0,0,0-4,5.2l-7.64,11-15.29,22-30.58,44-61.16,88-15.32,22-7.66,11-3.84,5.49c-1.36,1.84-3.13,3.29-4.08,5.2a3.24,3.24,0,0,0-.06,2.92,3.28,3.28,0,0,0,.93,1.18,3.77,3.77,0,0,0,1.39.63c2.08.47,4.33,0,6.57-.08,4.5,0,8.94,0,13.41.06l26.78.2Z"/></g><g class="cls-1"><path class="cls-2" d="M406.1,587.82l-36,17.39-35.9,17.49-17.94,8.76-4.49,2.19-2.24,1.1c-.72.36-1.41.82-2.13,1.25a12.21,12.21,0,0,1-2.29,1.15,3.54,3.54,0,0,1-2.68,0,4,4,0,0,1-1.12-.79,3.13,3.13,0,0,1-.69-1.21,5.82,5.82,0,0,1,0-2.63c.14-.84.35-1.65.47-2.45s.14-1.64.22-2.46l.38-5,.76-10L304,592.72l6.2-79.63,3.1-39.81,1.55-19.91.41-5a25.62,25.62,0,0,1,.34-2.55,7.77,7.77,0,0,1,.36-1.33,3.07,3.07,0,0,1,.92-1.35l.39-.27.44-.15a2.48,2.48,0,0,1,.84-.1,5.42,5.42,0,0,1,1.42.25,19.63,19.63,0,0,1,2.43.93c1.54.69,3,1.42,4.54,2.14l72,34.6,71.91,34.77,17.94,8.77,9,4.39,4.48,2.19a19.36,19.36,0,0,0,2.21,1c.77.29,1.57.57,2.38.95a5.73,5.73,0,0,1,2.3,1.73,3.46,3.46,0,0,1,.62,1.49,3.84,3.84,0,0,1-.11,1.58,4,4,0,0,1-1.94,2.3,13.39,13.39,0,0,1-2.42,1.06c-.79.28-1.57.54-2.27.85l-2.25,1.06-4.51,2.14-18,8.57L442.1,570.55Zm-.09-.18,35.87-17.55,35.81-17.67,17.9-8.84,4.48-2.21,2.25-1.11c.81-.38,1.62-.65,2.39-.94a12,12,0,0,0,2.13-1,2.43,2.43,0,0,0,1.21-1.4,2.25,2.25,0,0,0,0-.89,1.88,1.88,0,0,0-.34-.78,4.2,4.2,0,0,0-1.68-1.19c-.7-.32-1.47-.59-2.26-.88a21.2,21.2,0,0,1-2.37-1l-4.5-2.15-9-4.31-18-8.62L398,482.34l-71.82-34.95c-1.5-.72-3-1.46-4.48-2.14a18.28,18.28,0,0,0-2.22-.86c-.73-.23-1.42-.28-1.68,0a3.25,3.25,0,0,0-.73,1.77c-.16.76-.24,1.58-.33,2.4l-.42,5-1.62,19.9-3.25,39.8L305,592.8l-1.66,19.9-.83,9.95-.41,5c-.08.84-.11,1.64-.24,2.51s-.35,1.65-.49,2.45a5.17,5.17,0,0,0,0,2.31,2.44,2.44,0,0,0,.52.95,3.32,3.32,0,0,0,.9.64,2.88,2.88,0,0,0,2.19,0,11.63,11.63,0,0,0,2.17-1.07c.71-.42,1.42-.87,2.18-1.26l2.25-1.08,4.5-2.16,18-8.63,36-17.29Z"/></g><g class="cls-1"><path class="cls-3" d="M401.32,645.38,294.19,645l-26.78-.05c-4.46,0-8.95-.05-13.37,0-2.2.1-4.44.6-6.77.09a4.45,4.45,0,0,1-1.64-.74,4,4,0,0,1-1.09-4.94c1.05-2.13,2.85-3.58,4.12-5.34l3.8-5.5,7.6-11,15.2-22.05,60.91-88.13,30.46-44.07,15.23-22,7.62-11a46.48,46.48,0,0,1,4.15-5.42,7.07,7.07,0,0,1,1.48-1.18,3.11,3.11,0,0,1,2.14-.41,4.35,4.35,0,0,1,1.83.89,10.77,10.77,0,0,1,1.31,1.23c1.57,1.72,2.85,3.54,4.2,5.33l4,5.39,8,10.77,15.91,21.54,31.83,43.09,63.51,86.28,31.69,43.45c.85,2.72-1.5,5.51-4,5.76-2.45.41-4.69-.15-6.85-.28-4.37-.11-8.9-.1-13.34-.15l-26.78-.22-53.57-.5Zm0-.2,53.57.06,53.57-.07h26.78c4.48,0,8.88,0,13.44,0,2.27.14,4.5.62,6.48.25a4.53,4.53,0,0,0,1.34-.47,3.47,3.47,0,0,0,1.54-2.14,2.74,2.74,0,0,0-.07-1.3,7.26,7.26,0,0,0-1.56-2.56c-.69-.82-1.48-1.61-2.23-2.48s-1.41-1.82-2.08-2.7l-2-2.69-8-10.75-16-21.5-63.5-86.29L431,469.39l-15.84-21.6L407.22,437l-4-5.4c-1.32-1.79-2.62-3.62-4.06-5.2a5.07,5.07,0,0,0-2.26-1.65c-.66-.16-1.47.4-2.2,1.13a45.64,45.64,0,0,0-4,5.2l-7.64,11-15.29,22-30.58,44-61.16,88-15.32,22-7.66,11-3.84,5.49c-1.36,1.84-3.13,3.29-4.08,5.2a3.24,3.24,0,0,0-.06,2.92,3.29,3.29,0,0,0,.93,1.18,3.78,3.78,0,0,0,1.39.63c2.08.47,4.33,0,6.57-.08,4.5,0,8.94,0,13.41.06l26.78.2Z"/></g><g class="cls-1"><path class="cls-2" d="M538.43,79.85,465.71,43.27l-18.2-9.11L443,31.89a25.55,25.55,0,0,1-2.27-1.21c-.73-.45-1.43-.92-2.16-1.31a5.2,5.2,0,0,0-2.25-.75,2.65,2.65,0,0,0-2,.89,3,3,0,0,0-.68,2.13,13.68,13.68,0,0,0,.35,2.45,17.29,17.29,0,0,1,.4,2.56l.2,2.54.41,5.07.81,10.14,1.62,20.28,6.35,81.15,3.18,40.58,1.59,20.29c.29,3.36.47,6.8.87,10.09a8.14,8.14,0,0,0,.55,2.22c.3.61.55.66,1.28.58a9.49,9.49,0,0,0,2.2-.74c.75-.33,1.51-.7,2.26-1.07l72.58-36.84,72.66-36.69,18.21-9.09,9.1-4.55,4.55-2.27c.78-.38,1.48-.75,2.31-1.14s1.63-.64,2.4-.94c1.52-.59,2.94-1.37,3-2.61a2.12,2.12,0,0,0-.51-1.73,5.43,5.43,0,0,0-1.84-1.2c-.74-.33-1.53-.6-2.34-.93-.4-.16-.82-.34-1.23-.55l-1.13-.58L629,126.3,610.86,117,574.67,98.36Zm.09-.18L574.9,97.91,611.35,116l18.23,9,4.56,2.26,1.14.57c.35.17.72.33,1.1.47.77.3,1.58.57,2.4.92a6.88,6.88,0,0,1,2.39,1.55,3.72,3.72,0,0,1,.94,3,3.86,3.86,0,0,1-1.58,2.66,10.51,10.51,0,0,1-2.43,1.29c-.81.33-1.61.61-2.33.94s-1.49.76-2.24,1.13L629,142.14l-9.06,4.62L601.81,156l-72.67,36.67-72.76,36.51c-.77.38-1.54.75-2.34,1.1a10.78,10.78,0,0,1-2.61.85,2.89,2.89,0,0,1-.8,0,2.47,2.47,0,0,1-.89-.21,2.78,2.78,0,0,1-.76-.57,3.93,3.93,0,0,1-.46-.71,9.36,9.36,0,0,1-.69-2.7c-.23-1.73-.33-3.42-.46-5.11L447,216.8l-1.51-20.29-3-40.59-6.05-81.17-1.48-20.3-.74-10.15-.37-5.07-.18-2.54a16.51,16.51,0,0,0-.37-2.47,14.27,14.27,0,0,1-.35-2.58,3.71,3.71,0,0,1,.87-2.59A3.32,3.32,0,0,1,436.31,28a5.8,5.8,0,0,1,2.53.84c.76.42,1.47.9,2.18,1.35a24.89,24.89,0,0,0,2.21,1.2l4.53,2.31,18.13,9.24Z"/></g><g class="cls-1"><path class="cls-3" d="M533.74,19.8l-109.11.65-27.28.21-6.82.05-3.42,0c-1.16,0-2.29-.16-3.42-.24a14,14,0,0,0-3.32,0,3.55,3.55,0,0,0-2.6,1.55,3.51,3.51,0,0,0-.39,3,9.3,9.3,0,0,0,1.68,2.79c.71.87,1.48,1.71,2.19,2.62s1.29,1.89,1.94,2.83L387,39l7.58,11.34L409.71,73l60.49,90.81,30.25,45.4,15.12,22.7,7.56,11.35a49.64,49.64,0,0,0,3.95,5.4c.71.78,1.55,1.42,2.2,1.29a4.72,4.72,0,0,0,2.26-1.66,67.15,67.15,0,0,0,4-5.37l3.92-5.58,7.84-11.16L563,203.84l31.36-44.64L657.25,70,673.07,47.8,681,36.68l4-5.56,1-1.4c.36-.49.74-.94,1.12-1.37.76-.87,1.53-1.69,2.17-2.55a5.79,5.79,0,0,0,1.27-2.69,3,3,0,0,0-.14-1.34c-.1-.21-.19-.43-.3-.64a4,4,0,0,0-.42-.57,3.84,3.84,0,0,0-2.56-1.18,15.31,15.31,0,0,0-3.24.07c-1.12.11-2.26.27-3.45.3H642.85l-54.56-.05Zm0-.2,54.55-.38,54.55-.51,27.28-.23,6.82-.06,3.39,0c1.08,0,2.2-.2,3.34-.33a16.61,16.61,0,0,1,3.56-.1,5.31,5.31,0,0,1,3.48,1.62,5.47,5.47,0,0,1,.6.8,8.73,8.73,0,0,1,.43.89,4.5,4.5,0,0,1,.24,2,7.22,7.22,0,0,1-1.54,3.43c-.71,1-1.49,1.81-2.22,2.66-.36.42-.72.85-1,1.28l-1,1.38-3.91,5.59-7.81,11.18L658.89,71.17,596,160.34l-31.52,44.53-15.76,22.27-7.88,11.13-3.94,5.57a68,68,0,0,1-4.17,5.51,10.65,10.65,0,0,1-1.33,1.27,4.06,4.06,0,0,1-1.9.89,3.21,3.21,0,0,1-2.15-.54,7.69,7.69,0,0,1-1.43-1.25,50.49,50.49,0,0,1-4.09-5.61l-7.53-11.37L499.24,210l-30.12-45.49-60.24-91-15-22.76-7.52-11.38-3.76-5.69c-.63-.93-1.24-1.93-1.9-2.8s-1.45-1.72-2.17-2.62a9.93,9.93,0,0,1-1.79-3,4.21,4.21,0,0,1,.48-3.55,3.82,3.82,0,0,1,1.34-1.27,5.11,5.11,0,0,1,1.72-.56,14.55,14.55,0,0,1,3.48,0c1.14.09,2.27.24,3.38.26h3.4l6.82,0L424.63,20Z"/></g><g class="cls-1"><path class="cls-2" d="M330.15,79.85,257.44,43.27l-18.2-9.11-4.55-2.28a25.55,25.55,0,0,1-2.27-1.21c-.73-.45-1.43-.92-2.16-1.31a5.2,5.2,0,0,0-2.25-.75,2.65,2.65,0,0,0-2,.89,3,3,0,0,0-.68,2.13,13.68,13.68,0,0,0,.35,2.45,17.27,17.27,0,0,1,.4,2.56l.2,2.54.41,5.07.81,10.14,1.62,20.28,6.35,81.15,3.18,40.58,1.59,20.29c.29,3.36.47,6.8.87,10.09a8.14,8.14,0,0,0,.55,2.22c.3.61.55.66,1.28.58a9.48,9.48,0,0,0,2.2-.74c.75-.33,1.51-.7,2.26-1.07L320,190.92l72.66-36.69,18.21-9.09,9.1-4.55,4.55-2.27c.78-.38,1.48-.75,2.31-1.14s1.63-.64,2.4-.94c1.52-.59,2.94-1.37,3-2.61a2.12,2.12,0,0,0-.51-1.73,5.43,5.43,0,0,0-1.84-1.2c-.73-.33-1.53-.6-2.34-.93-.4-.16-.82-.34-1.23-.55l-1.13-.58-4.52-2.33L402.59,117,366.4,98.36Zm.09-.18,36.39,18.23L403.08,116l18.23,9,4.56,2.26,1.14.57c.35.17.72.33,1.1.47.77.3,1.58.57,2.4.92a6.88,6.88,0,0,1,2.39,1.55,3.72,3.72,0,0,1,.94,3,3.86,3.86,0,0,1-1.58,2.66,10.51,10.51,0,0,1-2.43,1.29c-.81.33-1.61.61-2.33.94s-1.49.76-2.24,1.13l-4.53,2.31-9.06,4.62L393.54,156l-72.67,36.67-72.76,36.51c-.77.38-1.54.75-2.34,1.1a10.78,10.78,0,0,1-2.61.85,2.89,2.89,0,0,1-.8,0,2.47,2.47,0,0,1-.89-.21,2.78,2.78,0,0,1-.76-.57,3.93,3.93,0,0,1-.46-.71,9.36,9.36,0,0,1-.69-2.7c-.23-1.73-.33-3.42-.46-5.11l-.38-5.07-1.51-20.29-3-40.59-6.05-81.17-1.48-20.3-.74-10.15-.37-5.07-.18-2.54a16.51,16.51,0,0,0-.37-2.47,14.28,14.28,0,0,1-.35-2.58,3.71,3.71,0,0,1,.87-2.59A3.32,3.32,0,0,1,228,28a5.8,5.8,0,0,1,2.53.84c.76.42,1.47.9,2.18,1.35a24.89,24.89,0,0,0,2.21,1.2l4.53,2.31,18.13,9.24Z"/></g><g class="cls-1"><path class="cls-3" d="M325.47,19.8l-109.11.65-27.28.21-6.82.05-3.42,0c-1.16,0-2.29-.16-3.42-.24a14,14,0,0,0-3.32,0,3.55,3.55,0,0,0-2.6,1.55,3.51,3.51,0,0,0-.39,3,9.3,9.3,0,0,0,1.68,2.79c.71.87,1.48,1.71,2.19,2.62s1.29,1.89,1.94,2.83L178.71,39l7.58,11.34L201.44,73l60.49,90.81,30.25,45.4,15.12,22.7,7.56,11.35a49.64,49.64,0,0,0,3.95,5.4c.71.78,1.55,1.42,2.2,1.29a4.72,4.72,0,0,0,2.26-1.66,67.14,67.14,0,0,0,4-5.37l3.92-5.58,7.84-11.16,15.68-22.32L386.1,159.2,449,70,464.79,47.8l7.91-11.11,4-5.56,1-1.4c.36-.49.74-.94,1.12-1.37.76-.87,1.53-1.69,2.17-2.55a5.79,5.79,0,0,0,1.27-2.69,3,3,0,0,0-.14-1.34c-.1-.21-.19-.43-.3-.64a4,4,0,0,0-.42-.57,3.84,3.84,0,0,0-2.56-1.18,15.31,15.31,0,0,0-3.24.07c-1.12.11-2.26.27-3.45.3H434.58L380,19.72Zm0-.2L380,19.22l54.55-.51,27.28-.23,6.82-.06,3.39,0c1.08,0,2.2-.2,3.34-.33A16.61,16.61,0,0,1,479,18a5.31,5.31,0,0,1,3.48,1.62,5.47,5.47,0,0,1,.6.8,8.73,8.73,0,0,1,.43.89,4.5,4.5,0,0,1,.24,2,7.22,7.22,0,0,1-1.54,3.43c-.71,1-1.49,1.81-2.22,2.66-.36.42-.72.85-1,1.28L478,32l-3.91,5.59-7.81,11.18L450.61,71.17l-62.89,89.17-31.52,44.53-15.76,22.27-7.88,11.13-3.94,5.57a68,68,0,0,1-4.17,5.51,10.65,10.65,0,0,1-1.33,1.27,4.06,4.06,0,0,1-1.9.89,3.21,3.21,0,0,1-2.15-.54,7.69,7.69,0,0,1-1.43-1.25,50.48,50.48,0,0,1-4.09-5.61L306,232.74,291,210l-30.12-45.49-60.24-91-15-22.76-7.52-11.38L174.3,33.7c-.63-.93-1.24-1.93-1.9-2.8s-1.45-1.72-2.17-2.62a9.93,9.93,0,0,1-1.79-3,4.21,4.21,0,0,1,.48-3.55,3.82,3.82,0,0,1,1.34-1.27,5.11,5.11,0,0,1,1.72-.56,14.55,14.55,0,0,1,3.48,0c1.14.09,2.27.24,3.38.26h3.4l6.82,0L216.35,20Z"/></g><g class="cls-1"><path class="cls-2" d="M434.66,187.49l-72.71-36.58-18.2-9.11-4.55-2.28a25.57,25.57,0,0,1-2.27-1.21c-.73-.45-1.43-.92-2.16-1.31a5.2,5.2,0,0,0-2.25-.75,2.65,2.65,0,0,0-2,.89,3,3,0,0,0-.68,2.13,13.69,13.69,0,0,0,.35,2.45,17.27,17.27,0,0,1,.4,2.56l.2,2.54.41,5.07L332,162l1.62,20.28L340,263.46,343.16,304l1.59,20.29c.29,3.36.47,6.8.87,10.09a8.14,8.14,0,0,0,.55,2.22c.3.61.55.66,1.28.58a9.48,9.48,0,0,0,2.2-.74c.75-.33,1.51-.7,2.26-1.07l72.58-36.84,72.66-36.69,18.21-9.09,9.1-4.55L529,246c.78-.38,1.48-.75,2.31-1.14s1.63-.64,2.4-.94c1.52-.59,2.94-1.37,3-2.61a2.12,2.12,0,0,0-.51-1.73,5.43,5.43,0,0,0-1.84-1.2c-.73-.33-1.53-.61-2.34-.93-.4-.16-.82-.34-1.23-.55l-1.13-.58-4.52-2.33-18.09-9.32L470.91,206Zm.09-.18,36.39,18.23,36.45,18.12,18.23,9,4.56,2.26,1.14.57c.35.17.72.33,1.1.47.77.3,1.58.57,2.4.92a6.88,6.88,0,0,1,2.39,1.55,3.72,3.72,0,0,1,.94,3,3.86,3.86,0,0,1-1.58,2.66,10.51,10.51,0,0,1-2.43,1.29c-.81.33-1.61.61-2.33.94s-1.49.76-2.24,1.13l-4.53,2.31-9.06,4.62L498,263.65l-72.67,36.67-72.76,36.51c-.77.38-1.54.75-2.34,1.1a10.78,10.78,0,0,1-2.61.85,2.89,2.89,0,0,1-.8,0,2.47,2.47,0,0,1-.89-.21,2.78,2.78,0,0,1-.76-.57,3.94,3.94,0,0,1-.46-.71,9.36,9.36,0,0,1-.69-2.7c-.23-1.73-.33-3.42-.46-5.11l-.38-5.07-1.51-20.29-3-40.59-6.05-81.17-1.48-20.3-.74-10.15-.37-5.07-.18-2.54a16.52,16.52,0,0,0-.37-2.47,14.27,14.27,0,0,1-.35-2.58,3.71,3.71,0,0,1,.87-2.59,3.32,3.32,0,0,1,2.51-1.09,5.8,5.8,0,0,1,2.53.84c.76.42,1.47.9,2.18,1.35a24.91,24.91,0,0,0,2.21,1.2L344,141.3l18.13,9.24Z"/></g><g class="cls-1"><path class="cls-3" d="M430,127.44l-109.11.65-27.28.21-6.82.05-3.42,0c-1.16,0-2.29-.16-3.42-.24a14,14,0,0,0-3.32,0,3.55,3.55,0,0,0-2.6,1.55,3.51,3.51,0,0,0-.39,3,9.3,9.3,0,0,0,1.68,2.79c.71.87,1.48,1.71,2.19,2.62s1.29,1.89,1.94,2.83l3.79,5.67,7.58,11.34,15.15,22.68,60.49,90.81,30.25,45.4,15.12,22.7,7.56,11.35a49.63,49.63,0,0,0,3.95,5.4c.71.78,1.55,1.42,2.2,1.29a4.72,4.72,0,0,0,2.26-1.66,67.12,67.12,0,0,0,4-5.37l3.92-5.58,7.84-11.16,15.68-22.32,31.36-44.64,62.87-89.18,15.82-22.23,7.91-11.11,4-5.56,1-1.4c.36-.49.74-.94,1.12-1.37.76-.87,1.53-1.69,2.17-2.55a5.79,5.79,0,0,0,1.27-2.69,3,3,0,0,0-.14-1.34c-.1-.21-.19-.43-.3-.64a4,4,0,0,0-.42-.57A3.84,3.84,0,0,0,583.3,127a15.31,15.31,0,0,0-3.24.07c-1.12.11-2.26.27-3.45.3H539.08l-54.56-.05Zm0-.2,54.55-.38,54.55-.51,27.28-.23,6.82-.06,3.39,0c1.08,0,2.2-.2,3.34-.33a16.61,16.61,0,0,1,3.56-.1,5.31,5.31,0,0,1,3.48,1.62,5.47,5.47,0,0,1,.6.8,8.72,8.72,0,0,1,.43.89,4.5,4.5,0,0,1,.24,2,7.22,7.22,0,0,1-1.54,3.43c-.71,1-1.49,1.81-2.22,2.66-.36.42-.72.85-1,1.28l-1,1.38-3.91,5.59-7.81,11.18-15.63,22.36L492.23,268l-31.52,44.53L445,334.77l-7.88,11.13-3.94,5.57A68,68,0,0,1,429,357a10.64,10.64,0,0,1-1.33,1.27,4.06,4.06,0,0,1-1.9.89,3.21,3.21,0,0,1-2.15-.54,7.69,7.69,0,0,1-1.43-1.25,50.49,50.49,0,0,1-4.09-5.61l-7.53-11.37-15.06-22.74-30.12-45.49-60.24-91-15-22.76L282.56,147l-3.76-5.69c-.63-.93-1.24-1.93-1.9-2.8s-1.45-1.72-2.17-2.62a9.93,9.93,0,0,1-1.79-3,4.21,4.21,0,0,1,.48-3.55,3.82,3.82,0,0,1,1.34-1.27,5.11,5.11,0,0,1,1.72-.56,14.56,14.56,0,0,1,3.48,0c1.14.09,2.27.24,3.38.26h3.4l6.82,0,27.28-.06Z"/></g><g class="cls-1"><path class="cls-2" d="M72.55,684.41l5.6-21.55,5.5-21.58,2.73-10.79,1.37-5.4.68-2.7c.26-.91.38-1.76.56-2.71a5.81,5.81,0,0,1,.44-1.41,2.22,2.22,0,0,1,1.14-1.14,1.58,1.58,0,0,1,1.68.22,5,5,0,0,1,1,1.16,7.24,7.24,0,0,0,.8,1.07l.93,1,1.85,2.08,7.42,8.3L133.8,664.3,148.58,681c2.47,2.8,4.93,5.49,7.39,8.38a5.27,5.27,0,0,1,.85,1.38,2,2,0,0,1,.12,1.08,2.2,2.2,0,0,1-.18.54,4.37,4.37,0,0,1-.28.42,10.54,10.54,0,0,1-2.41,1.84l-4.77,2.89-38.09,23.09L73,743.51l-9.59,5.66L61,750.58c-.39.23-.83.48-1.15.69l-1.12.8a5.36,5.36,0,0,1-1.47.77,2.11,2.11,0,0,1-1.12.06,1.92,1.92,0,0,1-1-.61,2.23,2.23,0,0,1-.52-1,3.13,3.13,0,0,1,0-1,6.91,6.91,0,0,1,.36-1.54l.47-1.32c.07-.21.13-.41.19-.61l.18-.67.74-2.69L58,738.16l2.94-10.74,5.87-21.49Zm.19.05L67.3,706.06,62,727.68,59.34,738.5,58,743.91l-.66,2.7-.17.68c-.06.24-.13.49-.21.72l-.44,1.31c-.29.82-.37,1.68-.12,1.82.06.07.11.1.15.09a.44.44,0,0,0,.25,0,3.87,3.87,0,0,0,1-.55l1.13-.83c.45-.31.82-.51,1.22-.77l2.38-1.45L72,741.8l38.19-22.92,38.28-22.76,4.77-2.85a9.88,9.88,0,0,0,2-1.48c.19-.27.18-.27.1-.55a4,4,0,0,0-.61-1c-2.33-2.77-4.86-5.58-7.28-8.36l-14.67-16.75-29.35-33.51-7.31-8.4-1.83-2.1-.91-1.05a8.1,8.1,0,0,1-.85-1.17,4.33,4.33,0,0,0-.78-1,.8.8,0,0,0-.92-.13c-.7.25-1,1.15-1.18,2s-.33,1.86-.6,2.73l-.72,2.69-1.44,5.38-2.87,10.76-5.71,21.53Z"/></g><g class="cls-1"><path class="cls-3" d="M53.09,662.17l17.47-24.11L88,613.88l8.68-12.1,4.34-6,2.17-3c.36-.51.73-1,1.06-1.51l1-1.58a9.13,9.13,0,0,1,1.17-1.54,2.24,2.24,0,0,1,2-.76,2,2,0,0,1,1.55,1.48,8.56,8.56,0,0,1,.33,1.92c.05.62.09,1.24.18,1.82l.34,1.82.7,3.66,2.8,14.62,22.12,117c.23,1.22.47,2.44.66,3.7a12.32,12.32,0,0,1,.16,2l0,.56c0,.2-.09.41-.15.6a3.86,3.86,0,0,1-.32.62,2.79,2.79,0,0,1-.51.5,4.47,4.47,0,0,1-2.16.69c-.67.08-1.3.1-1.93.12l-3.73.07-14.89.25-29.78.5-59.55.81-14.89.11-3.72,0H4.57c-.32,0-.62,0-.87,0-.55,0-1.16.16-1.84.22a3.92,3.92,0,0,1-2.33-.37A2.48,2.48,0,0,1-1.42,739a3.41,3.41,0,0,1-.3-1.21,4.18,4.18,0,0,1,.56-2.23A9.93,9.93,0,0,1,0,734l1.21-1.4c.36-.43.72-.94,1.09-1.44l2.21-3,4.43-6,8.85-12,17.69-24Zm.16.12L35.92,686.5,18.69,710.79l-8.61,12.15L5.77,729l-2.15,3c-.36.5-.7,1-1.13,1.54L1.29,735c-1.67,1.72-2,4.25.41,3.72.56-.05,1.17-.17,1.85-.24.37,0,.69,0,1,0l.93,0,3.72-.07,14.89-.29,59.55-.79,29.78-.31,14.89-.15,3.71,0c.61,0,1.22,0,1.78-.1a3.09,3.09,0,0,0,1.37-.37c.49-.2.41-1.59.24-2.73s-.4-2.41-.62-3.63L113.25,612.81l-2.66-14.65-.66-3.66-.33-1.84c-.1-.65-.13-1.27-.17-1.89a7.9,7.9,0,0,0-.28-1.74c-.17-.54-.47-.93-1-1a1.5,1.5,0,0,0-1.34.54,8.49,8.49,0,0,0-1.08,1.41l-1,1.58c-.35.54-.73,1-1.09,1.53l-2.2,3-4.4,6-8.8,12-17.56,24Z"/></g><g class="cls-1"><path class="cls-2" d="M144.68,584l5.6-21.55,5.5-21.58,2.73-10.79,1.37-5.4.68-2.7c.26-.91.38-1.76.56-2.71a5.81,5.81,0,0,1,.44-1.41,2.22,2.22,0,0,1,1.14-1.14,1.58,1.58,0,0,1,1.68.22,5,5,0,0,1,1,1.16,7.24,7.24,0,0,0,.8,1.07l.93,1,1.85,2.08,7.42,8.3,29.57,33.31,14.79,16.65c2.47,2.8,4.93,5.49,7.39,8.38a5.27,5.27,0,0,1,.85,1.38,2,2,0,0,1,.12,1.08,2.2,2.2,0,0,1-.18.54,4.38,4.38,0,0,1-.28.42,10.54,10.54,0,0,1-2.41,1.84l-4.77,2.89-38.09,23.09-38.18,22.93-9.59,5.66-2.4,1.41c-.39.23-.83.48-1.15.69l-1.12.8a5.36,5.36,0,0,1-1.47.77,2.11,2.11,0,0,1-1.12.06,1.92,1.92,0,0,1-1-.61,2.23,2.23,0,0,1-.52-1,3.13,3.13,0,0,1,0-1,6.91,6.91,0,0,1,.36-1.54l.47-1.32c.07-.21.13-.41.19-.61l.18-.67.74-2.69,1.47-5.37L133.08,627l5.87-21.49Zm.19.05-5.44,21.59-5.32,21.63-2.65,10.82-1.32,5.41-.66,2.7-.17.68c-.06.24-.13.49-.21.72l-.44,1.31c-.29.82-.37,1.68-.12,1.82.06.07.11.1.15.09a.44.44,0,0,0,.25,0,3.87,3.87,0,0,0,1-.55l1.13-.83c.45-.31.82-.51,1.22-.77l2.38-1.45,9.5-5.81,38.19-22.92,38.28-22.76,4.77-2.85a9.88,9.88,0,0,0,2-1.48c.19-.27.18-.27.1-.55a4,4,0,0,0-.61-1c-2.34-2.77-4.86-5.58-7.28-8.36L205,564.78l-29.35-33.51-7.31-8.4-1.83-2.1-.91-1.05a8.1,8.1,0,0,1-.85-1.17,4.33,4.33,0,0,0-.78-1,.8.8,0,0,0-.92-.13c-.7.25-1,1.15-1.18,2s-.33,1.86-.6,2.73l-.72,2.69-1.44,5.38L156.19,541l-5.71,21.53Z"/></g><g class="cls-1"><path class="cls-3" d="M125.22,561.8l17.47-24.11,17.39-24.18,8.68-12.1,4.34-6,2.17-3c.36-.51.73-1,1.06-1.51l1-1.58a9.13,9.13,0,0,1,1.17-1.54,2.24,2.24,0,0,1,2-.76,2,2,0,0,1,1.55,1.48,8.56,8.56,0,0,1,.33,1.92c.05.62.09,1.24.18,1.82l.34,1.82.7,3.66,2.8,14.62,22.12,117c.23,1.22.47,2.44.66,3.7a12.32,12.32,0,0,1,.16,2l0,.56c0,.2-.09.41-.15.6a3.86,3.86,0,0,1-.32.62,2.79,2.79,0,0,1-.51.5,4.47,4.47,0,0,1-2.16.69c-.67.08-1.3.1-1.93.12l-3.73.07-14.89.25-29.78.5-59.55.81-14.89.11-3.72,0H76.7c-.32,0-.62,0-.87,0-.55,0-1.16.16-1.84.22a3.92,3.92,0,0,1-2.33-.37,2.48,2.48,0,0,1-.94-1.06,3.41,3.41,0,0,1-.3-1.21,4.18,4.18,0,0,1,.56-2.23,9.93,9.93,0,0,1,1.18-1.65l1.21-1.4c.36-.43.72-.94,1.09-1.44l2.21-3,4.43-6,8.85-12,17.69-24Zm.16.12L108,586.13,90.82,610.42l-8.61,12.15-4.3,6.08-2.15,3c-.36.5-.7,1-1.13,1.54l-1.21,1.43c-1.67,1.72-2,4.25.41,3.72.56-.05,1.17-.17,1.85-.24.37,0,.69,0,1,0l.93,0,3.72-.07,14.89-.29,59.55-.79,29.78-.31,14.89-.15,3.71,0c.61,0,1.22,0,1.78-.1a3.09,3.09,0,0,0,1.37-.37c.49-.2.41-1.59.24-2.73s-.4-2.41-.62-3.63L185.38,512.44l-2.66-14.65-.66-3.66-.33-1.84c-.1-.65-.13-1.27-.17-1.89a7.9,7.9,0,0,0-.28-1.74c-.17-.54-.47-.93-1-1a1.5,1.5,0,0,0-1.34.54,8.49,8.49,0,0,0-1.08,1.41l-1,1.58c-.35.54-.73,1-1.09,1.53l-2.2,3-4.4,6-8.8,12-17.56,24Z"/></g><g class="cls-1"><path class="cls-2" d="M146.33,670.12l5.6-21.55,5.5-21.58,2.73-10.79,1.37-5.4.68-2.7c.26-.91.38-1.76.56-2.71a5.81,5.81,0,0,1,.44-1.41,2.22,2.22,0,0,1,1.14-1.14,1.58,1.58,0,0,1,1.68.22,5,5,0,0,1,1,1.16,7.24,7.24,0,0,0,.8,1.07l.93,1,1.85,2.08,7.42,8.3L207.57,650l14.79,16.65c2.47,2.8,4.93,5.49,7.39,8.38a5.27,5.27,0,0,1,.85,1.38,2,2,0,0,1,.12,1.08,2.21,2.21,0,0,1-.18.54,4.37,4.37,0,0,1-.28.42,10.54,10.54,0,0,1-2.41,1.84l-4.77,2.89L185,706.29l-38.18,22.93-9.59,5.66-2.4,1.41c-.39.23-.83.48-1.15.69l-1.12.8a5.36,5.36,0,0,1-1.47.77,2.11,2.11,0,0,1-1.12.06,1.92,1.92,0,0,1-1-.61,2.24,2.24,0,0,1-.52-1,3.13,3.13,0,0,1,0-1,6.91,6.91,0,0,1,.36-1.54l.47-1.32c.07-.21.13-.41.19-.61l.18-.67.74-2.69,1.47-5.37,2.94-10.74,5.87-21.49Zm.19.05-5.44,21.59-5.32,21.63-2.65,10.82-1.32,5.41-.66,2.7L131,733c-.06.24-.13.49-.21.72L130.3,735c-.29.82-.37,1.68-.12,1.82.06.06.11.1.15.09a.44.44,0,0,0,.25,0,3.87,3.87,0,0,0,1-.55l1.13-.83c.45-.31.82-.51,1.22-.77l2.38-1.45,9.5-5.81L184,704.59l38.28-22.76L227,679a9.88,9.88,0,0,0,2-1.48c.19-.27.18-.27.1-.55a4,4,0,0,0-.61-1c-2.34-2.77-4.86-5.58-7.28-8.36L206.6,650.87l-29.35-33.51-7.31-8.4-1.83-2.1-.91-1a8.1,8.1,0,0,1-.85-1.17,4.33,4.33,0,0,0-.78-1,.8.8,0,0,0-.92-.13c-.7.25-1,1.15-1.18,2s-.33,1.86-.6,2.73l-.72,2.69-1.44,5.38-2.87,10.76-5.71,21.53Z"/></g><g class="cls-1"><path class="cls-3" d="M126.87,647.88l17.47-24.11,17.39-24.18,8.68-12.1,4.34-6,2.17-3c.36-.51.73-1,1.06-1.51l1-1.58a9.13,9.13,0,0,1,1.17-1.54,2.24,2.24,0,0,1,2-.76,2,2,0,0,1,1.55,1.48,8.56,8.56,0,0,1,.33,1.92c.05.62.09,1.24.18,1.82l.34,1.82.7,3.66,2.8,14.62,22.12,117c.23,1.22.47,2.44.66,3.7a12.32,12.32,0,0,1,.16,2l0,.56c0,.2-.09.41-.15.6a3.86,3.86,0,0,1-.32.62,2.79,2.79,0,0,1-.51.5,4.47,4.47,0,0,1-2.16.69c-.67.08-1.3.1-1.93.12l-3.73.07-14.89.25-29.78.5-59.55.81L83,725.91l-3.72,0h-.93c-.32,0-.62,0-.87,0-.55,0-1.16.16-1.84.22a3.92,3.92,0,0,1-2.33-.37,2.48,2.48,0,0,1-.94-1.06,3.41,3.41,0,0,1-.3-1.21,4.18,4.18,0,0,1,.56-2.23,9.94,9.94,0,0,1,1.18-1.65l1.21-1.4c.36-.43.72-.94,1.09-1.44l2.21-3,4.43-6,8.85-12,17.69-24Zm.16.12-17.34,24.21L92.46,696.5l-8.61,12.15-4.3,6.08-2.15,3c-.36.5-.7,1-1.13,1.54l-1.21,1.43c-1.67,1.72-2,4.25.41,3.72.56-.05,1.17-.17,1.85-.24.37,0,.69,0,1,0l.93,0,3.72-.07,14.89-.29,59.55-.79,29.78-.31,14.89-.15,3.71,0c.61,0,1.22,0,1.78-.1a3.09,3.09,0,0,0,1.37-.37c.49-.2.41-1.59.24-2.73s-.4-2.41-.62-3.63L187,598.52l-2.66-14.65-.66-3.66-.33-1.84c-.1-.65-.13-1.27-.17-1.89a7.9,7.9,0,0,0-.28-1.74c-.17-.54-.47-.93-1-1a1.5,1.5,0,0,0-1.34.54,8.48,8.48,0,0,0-1.08,1.41l-1,1.58c-.35.54-.73,1-1.09,1.53l-2.2,3-4.4,6-8.8,12-17.56,24Z"/></g><g class="cls-1"><path class="cls-2" d="M733.08,691.47l-5.6-21.55-5.71-21.53-2.87-10.76-1.44-5.38-.72-2.69c-.27-.88-.43-1.87-.6-2.73s-.48-1.76-1.18-2a.8.8,0,0,0-.92.13,4.32,4.32,0,0,0-.78,1,8.11,8.11,0,0,1-.85,1.17l-.91,1-1.83,2.1-7.31,8.4L673,672.16l-14.67,16.75c-2.42,2.79-4.95,5.6-7.28,8.36a4,4,0,0,0-.61,1c-.08.28-.09.29.1.55a9.88,9.88,0,0,0,2,1.48l4.77,2.85,38.28,22.76,38.19,22.92,9.5,5.81,2.38,1.45c.4.25.77.46,1.22.77l1.13.83a3.87,3.87,0,0,0,1,.55.44.44,0,0,0,.25,0s.08,0,.15-.09c.26-.14.17-1-.12-1.82l-.44-1.31c-.08-.23-.15-.48-.21-.72l-.17-.68-.66-2.7-1.32-5.41-2.65-10.82-5.32-21.63Zm.19-.05L739,712.94l5.87,21.49,2.94,10.74,1.47,5.37.74,2.69.18.67c.06.2.12.4.19.61l.47,1.32a6.91,6.91,0,0,1,.36,1.54,3.13,3.13,0,0,1,0,1,2.24,2.24,0,0,1-.52,1,1.92,1.92,0,0,1-1,.61,2.11,2.11,0,0,1-1.12-.06,5.36,5.36,0,0,1-1.47-.77l-1.12-.8c-.31-.21-.76-.46-1.15-.69l-2.4-1.41-9.59-5.66-38.18-22.93L656.52,704.5l-4.77-2.89a10.54,10.54,0,0,1-2.41-1.84,4.37,4.37,0,0,1-.28-.42,2.2,2.2,0,0,1-.18-.54,2,2,0,0,1,.12-1.08,5.27,5.27,0,0,1,.85-1.38c2.47-2.89,4.93-5.58,7.39-8.38L672,671.3,701.6,638l7.42-8.3,1.85-2.08.93-1a7.24,7.24,0,0,0,.8-1.07,5,5,0,0,1,1-1.16,1.58,1.58,0,0,1,1.68-.22,2.22,2.22,0,0,1,1.14,1.14,5.81,5.81,0,0,1,.44,1.41c.18,1,.3,1.8.56,2.71l.68,2.7,1.37,5.4,2.73,10.79,5.5,21.58Z"/></g><g class="cls-1"><path class="cls-3" d="M752.57,669.29,735.1,645.18l-17.56-24-8.8-12-4.4-6-2.2-3c-.36-.5-.74-1-1.09-1.53l-1-1.58a8.49,8.49,0,0,0-1.08-1.41,1.5,1.5,0,0,0-1.34-.54c-.48.06-.79.45-1,1a7.9,7.9,0,0,0-.28,1.74c0,.61-.07,1.24-.17,1.88l-.33,1.84-.66,3.66-2.66,14.65L671,737c-.22,1.22-.46,2.44-.62,3.63s-.25,2.52.24,2.73a3.09,3.09,0,0,0,1.37.37c.57.06,1.18.08,1.78.1l3.71,0,14.89.15,29.78.31,59.55.79,14.89.29,3.72.07.93,0c.3,0,.62,0,1,0,.68.06,1.29.19,1.85.24,2.38.54,2.08-2,.41-3.72l-1.21-1.43c-.43-.52-.77-1-1.13-1.54l-2.15-3-4.3-6.08-8.61-12.15L769.91,693.5Zm.16-.12,17.58,24,17.69,24,8.85,12,4.43,6,2.21,3c.37.5.73,1,1.09,1.44l1.21,1.4a9.94,9.94,0,0,1,1.18,1.65,4.18,4.18,0,0,1,.56,2.23,3.42,3.42,0,0,1-.3,1.21,2.48,2.48,0,0,1-.94,1.06,3.92,3.92,0,0,1-2.33.37c-.68-.06-1.29-.17-1.84-.22-.25,0-.55,0-.87,0h-.93l-3.72,0-14.89-.11-59.55-.81-29.78-.5-14.89-.25-3.73-.07c-.63,0-1.26,0-1.93-.12a4.47,4.47,0,0,1-2.16-.69,2.79,2.79,0,0,1-.51-.5,3.86,3.86,0,0,1-.32-.62c-.05-.2-.11-.41-.15-.6l0-.56a12.32,12.32,0,0,1,.16-2c.19-1.26.43-2.48.66-3.7l22.12-117L694.4,605l.7-3.66.34-1.82c.1-.58.13-1.2.18-1.82a8.56,8.56,0,0,1,.33-1.92,2,2,0,0,1,1.55-1.48,2.24,2.24,0,0,1,2,.76,9.13,9.13,0,0,1,1.17,1.54l1,1.58c.32.51.7,1,1.05,1.51l2.17,3,4.34,6,8.68,12.1,17.39,24.18Z"/></g><g class="cls-1"><path class="cls-2" d="M661,591.1l-5.6-21.55L649.64,548l-2.87-10.76-1.44-5.38-.72-2.69c-.27-.88-.43-1.87-.6-2.73s-.48-1.76-1.18-2a.8.8,0,0,0-.92.13,4.32,4.32,0,0,0-.78,1,8.1,8.1,0,0,1-.85,1.17l-.91,1-1.83,2.1-7.31,8.4-29.35,33.51L586.2,588.54c-2.42,2.79-4.95,5.6-7.28,8.36a4,4,0,0,0-.61,1c-.08.28-.09.29.1.55a9.88,9.88,0,0,0,2,1.48l4.77,2.85,38.28,22.76,38.19,22.92,9.5,5.81,2.38,1.45c.4.25.77.46,1.22.77l1.13.83a3.87,3.87,0,0,0,1,.55.44.44,0,0,0,.25,0s.08,0,.15-.09c.26-.14.17-1-.12-1.82l-.44-1.31c-.08-.23-.15-.48-.21-.72l-.17-.68-.66-2.7-1.32-5.41-2.65-10.82-5.32-21.63Zm.19-.05,5.74,21.52,5.87,21.49,2.94,10.74,1.47,5.37.74,2.69.18.67c.06.2.12.4.19.61l.47,1.32a6.91,6.91,0,0,1,.36,1.54,3.13,3.13,0,0,1,0,1,2.24,2.24,0,0,1-.52,1,1.92,1.92,0,0,1-1,.61,2.11,2.11,0,0,1-1.12-.06,5.36,5.36,0,0,1-1.47-.77l-1.12-.8c-.31-.21-.76-.46-1.15-.69l-2.4-1.41-9.59-5.66-38.18-22.93-38.09-23.09-4.77-2.89a10.54,10.54,0,0,1-2.41-1.84,4.37,4.37,0,0,1-.28-.42,2.21,2.21,0,0,1-.18-.54,2,2,0,0,1,.12-1.08,5.27,5.27,0,0,1,.85-1.38c2.47-2.89,4.93-5.58,7.39-8.38l14.79-16.65,29.57-33.31,7.42-8.3,1.85-2.08.93-1a7.23,7.23,0,0,0,.8-1.07,5,5,0,0,1,1-1.16,1.58,1.58,0,0,1,1.68-.22,2.22,2.22,0,0,1,1.14,1.14,5.81,5.81,0,0,1,.44,1.41c.18,1,.3,1.8.56,2.71l.68,2.7,1.37,5.4L650,547.91l5.5,21.58Z"/></g><g class="cls-1"><path class="cls-3" d="M680.44,568.92,663,544.81l-17.56-24-8.8-12-4.4-6-2.2-3c-.36-.5-.74-1-1.09-1.53l-1-1.58a8.49,8.49,0,0,0-1.08-1.41,1.5,1.5,0,0,0-1.34-.54c-.48.06-.79.45-1,1a7.9,7.9,0,0,0-.28,1.74c0,.61-.07,1.24-.17,1.88l-.33,1.84-.66,3.66-2.66,14.65L598.92,636.6c-.22,1.22-.46,2.44-.62,3.63s-.25,2.52.24,2.73a3.09,3.09,0,0,0,1.37.37c.57.06,1.18.08,1.78.1l3.71,0,14.89.15,29.78.31,59.55.79,14.89.29,3.72.07.93,0c.3,0,.62,0,1,0,.68.06,1.29.19,1.85.24,2.38.54,2.08-2,.41-3.72l-1.21-1.43c-.43-.52-.77-1-1.13-1.54l-2.15-3-4.3-6.08L715,617.42l-17.23-24.29Zm.16-.12,17.58,24,17.69,24,8.85,12,4.43,6,2.21,3c.37.5.73,1,1.09,1.44l1.21,1.4a9.93,9.93,0,0,1,1.18,1.65,4.18,4.18,0,0,1,.56,2.23,3.41,3.41,0,0,1-.3,1.21,2.48,2.48,0,0,1-.94,1.06,3.92,3.92,0,0,1-2.33.37c-.68-.06-1.29-.17-1.84-.22-.25,0-.55,0-.87,0h-.93l-3.72,0-14.89-.11L650,645.91l-29.78-.5-14.89-.25-3.73-.07c-.63,0-1.26,0-1.93-.12a4.47,4.47,0,0,1-2.16-.69,2.79,2.79,0,0,1-.51-.5,3.86,3.86,0,0,1-.32-.62c-.05-.2-.11-.41-.15-.6l0-.56a12.32,12.32,0,0,1,.16-2c.19-1.26.43-2.48.66-3.7l22.12-117,2.8-14.62L623,501l.34-1.82c.1-.58.13-1.2.18-1.82a8.56,8.56,0,0,1,.33-1.92,2,2,0,0,1,1.55-1.48,2.24,2.24,0,0,1,2,.76,9.12,9.12,0,0,1,1.17,1.54l1,1.58c.32.51.7,1,1.06,1.51l2.17,3,4.34,6,8.68,12.1,17.39,24.18Z"/></g><g class="cls-1"><path class="cls-2" d="M659.31,677.18l-5.6-21.55L648,634.1l-2.87-10.76L643.68,618l-.72-2.69c-.27-.88-.43-1.87-.6-2.73s-.48-1.76-1.18-2a.8.8,0,0,0-.92.13,4.33,4.33,0,0,0-.78,1,8.1,8.1,0,0,1-.85,1.17l-.91,1.05-1.83,2.1-7.31,8.4-29.35,33.51-14.67,16.75c-2.42,2.79-4.95,5.6-7.28,8.36a4,4,0,0,0-.61,1c-.08.28-.09.29.1.55a9.88,9.88,0,0,0,2,1.48l4.77,2.85,38.28,22.76L660,734.51l9.5,5.8,2.38,1.45c.4.25.77.46,1.22.77l1.13.83a3.87,3.87,0,0,0,1,.55.44.44,0,0,0,.25,0s.08,0,.15-.09c.26-.14.17-1-.12-1.82l-.44-1.31c-.08-.23-.15-.48-.21-.72l-.17-.68-.66-2.7-1.32-5.41-2.65-10.82-5.32-21.63Zm.19-.05,5.74,21.52,5.87,21.49L674,730.87l1.47,5.37.74,2.69.18.67c.06.2.12.4.19.61l.47,1.32a6.91,6.91,0,0,1,.36,1.54,3.13,3.13,0,0,1,0,1,2.24,2.24,0,0,1-.52,1,1.92,1.92,0,0,1-1,.61,2.11,2.11,0,0,1-1.12-.06,5.36,5.36,0,0,1-1.47-.77l-1.12-.8c-.31-.21-.76-.46-1.15-.69l-2.4-1.41L659,736.23,620.84,713.3l-38.09-23.09L578,687.32a10.54,10.54,0,0,1-2.41-1.84,4.39,4.39,0,0,1-.28-.42,2.2,2.2,0,0,1-.18-.54,2,2,0,0,1,.12-1.08,5.27,5.27,0,0,1,.85-1.38c2.47-2.89,4.93-5.58,7.39-8.38L598.26,657l29.57-33.31,7.42-8.3,1.85-2.08.93-1a7.24,7.24,0,0,0,.8-1.07,5,5,0,0,1,1-1.16,1.58,1.58,0,0,1,1.68-.22,2.22,2.22,0,0,1,1.14,1.14,5.81,5.81,0,0,1,.44,1.41c.18,1,.3,1.8.56,2.71l.68,2.7,1.37,5.4L648.4,634l5.5,21.58Z"/></g><g class="cls-1"><path class="cls-3" d="M678.8,655l-17.48-24.11-17.56-24-8.8-12-4.4-6-2.2-3c-.36-.5-.74-1-1.09-1.53l-1-1.58a8.49,8.49,0,0,0-1.08-1.41,1.5,1.5,0,0,0-1.34-.54c-.48.06-.79.45-1,1a7.9,7.9,0,0,0-.28,1.74c0,.61-.07,1.24-.17,1.89l-.33,1.84-.66,3.66-2.66,14.65L597.27,722.68c-.22,1.22-.46,2.44-.62,3.63s-.25,2.52.24,2.73a3.09,3.09,0,0,0,1.37.37c.57.06,1.18.08,1.78.1l3.71,0,14.89.15,29.78.31,59.55.79,14.89.29,3.72.07.93,0c.3,0,.62,0,1,0,.68.06,1.29.19,1.85.24,2.38.54,2.08-2,.41-3.72l-1.21-1.43c-.43-.52-.77-1-1.13-1.54l-2.15-3-4.3-6.08-8.61-12.15-17.23-24.29Zm.16-.12,17.58,24,17.69,24,8.85,12,4.43,6,2.21,3c.37.5.73,1,1.09,1.44l1.21,1.4a9.94,9.94,0,0,1,1.18,1.65,4.18,4.18,0,0,1,.56,2.23,3.41,3.41,0,0,1-.3,1.21,2.48,2.48,0,0,1-.94,1.06,3.92,3.92,0,0,1-2.33.37c-.68-.06-1.29-.17-1.84-.22-.25,0-.55,0-.87,0h-.93l-3.72,0-14.89-.11L648.39,732l-29.78-.5-14.89-.25-3.73-.07c-.63,0-1.26,0-1.93-.12a4.47,4.47,0,0,1-2.16-.69,2.78,2.78,0,0,1-.51-.5,3.85,3.85,0,0,1-.32-.62c-.05-.2-.11-.41-.15-.6l0-.56a12.31,12.31,0,0,1,.16-2c.19-1.26.43-2.48.66-3.7l22.12-117,2.8-14.62.7-3.66.34-1.82c.1-.58.13-1.19.18-1.82a8.56,8.56,0,0,1,.33-1.92,2,2,0,0,1,1.55-1.48,2.24,2.24,0,0,1,2,.76,9.13,9.13,0,0,1,1.17,1.54l1,1.58c.32.51.7,1,1.05,1.51l2.17,3,4.34,6,8.68,12.1,17.39,24.18Z"/></g><g class="cls-1"><path class="cls-2" d="M740.41,74.7l-5.6,21.55-5.5,21.58-2.73,10.79-1.37,5.4-.68,2.7c-.26.91-.38,1.76-.56,2.71a5.81,5.81,0,0,1-.44,1.41,2.22,2.22,0,0,1-1.14,1.14,1.58,1.58,0,0,1-1.68-.22,5,5,0,0,1-1-1.16,7.24,7.24,0,0,0-.8-1.07l-.93-1-1.85-2.08-7.42-8.3L679.17,94.81,664.38,78.16c-2.47-2.8-4.93-5.49-7.39-8.38a5.27,5.27,0,0,1-.85-1.38,2,2,0,0,1-.12-1.08,2.2,2.2,0,0,1,.18-.54,4.36,4.36,0,0,1,.28-.42,10.54,10.54,0,0,1,2.41-1.84l4.77-2.89,38.09-23.09L739.93,15.6l9.59-5.66,2.4-1.41c.39-.23.83-.48,1.15-.69l1.12-.8a5.36,5.36,0,0,1,1.47-.77,2.11,2.11,0,0,1,1.12-.06,1.92,1.92,0,0,1,1,.61,2.24,2.24,0,0,1,.52,1,3.13,3.13,0,0,1,0,1A6.91,6.91,0,0,1,758,10.3l-.47,1.32c-.07.21-.13.41-.19.61l-.18.67-.74,2.69L755,21,752,31.69l-5.87,21.49Zm-.19-.05,5.44-21.59L751,31.43l2.65-10.82L755,15.2l.66-2.7.17-.68c.06-.24.13-.49.21-.72l.44-1.31c.29-.82.37-1.68.12-1.82-.06-.07-.11-.1-.15-.09a.44.44,0,0,0-.25,0,3.87,3.87,0,0,0-1,.55l-1.13.83c-.45.31-.82.51-1.22.77l-2.38,1.45L741,17.31,702.76,40.23,664.48,63l-4.77,2.85a9.88,9.88,0,0,0-2,1.48c-.19.27-.18.27-.1.55a4,4,0,0,0,.61,1c2.33,2.77,4.86,5.58,7.28,8.36L680.14,94l29.35,33.51,7.31,8.4,1.83,2.1.91,1a8.11,8.11,0,0,1,.85,1.17,4.32,4.32,0,0,0,.78,1,.8.8,0,0,0,.92.13c.7-.25,1-1.15,1.18-2s.33-1.86.6-2.73l.72-2.69,1.44-5.38,2.87-10.76,5.71-21.53Z"/></g><g class="cls-1"><path class="cls-3" d="M759.87,96.94l-17.47,24.11L725,145.23l-8.68,12.1-4.34,6-2.17,3c-.36.51-.73,1-1.05,1.51l-1,1.58a9.13,9.13,0,0,1-1.17,1.54,2.24,2.24,0,0,1-2,.76,2,2,0,0,1-1.55-1.48,8.56,8.56,0,0,1-.33-1.92c-.05-.62-.09-1.24-.18-1.82l-.34-1.82-.7-3.66-2.8-14.62-22.12-117c-.23-1.22-.47-2.44-.66-3.7a12.32,12.32,0,0,1-.16-2l0-.56c0-.2.09-.41.15-.6a3.86,3.86,0,0,1,.32-.62,2.79,2.79,0,0,1,.51-.5,4.47,4.47,0,0,1,2.16-.69c.67-.08,1.3-.1,1.93-.12l3.73-.07,14.89-.25,29.78-.5L788.85,19l14.89-.11,3.72,0h.93c.32,0,.62,0,.87,0,.55,0,1.16-.16,1.84-.22a3.92,3.92,0,0,1,2.33.37,2.48,2.48,0,0,1,.94,1.06,3.42,3.42,0,0,1,.3,1.21,4.18,4.18,0,0,1-.56,2.23,9.94,9.94,0,0,1-1.18,1.65l-1.21,1.4c-.36.43-.72.94-1.09,1.44l-2.21,3L804,37l-8.85,12-17.69,24Zm-.16-.12L777,72.61l17.23-24.29,8.61-12.15,4.3-6.08,2.15-3c.36-.5.7-1,1.13-1.54l1.21-1.43c1.67-1.72,2-4.25-.41-3.72-.56.05-1.17.17-1.85.24-.37,0-.69,0-1,0l-.93,0-3.72.07L788.88,21l-59.55.79-29.78.31-14.89.15-3.71,0c-.61,0-1.22,0-1.78.1a3.09,3.09,0,0,0-1.37.37c-.49.2-.41,1.59-.24,2.73s.4,2.41.62,3.63L699.71,146.3l2.66,14.65.66,3.66.33,1.84c.1.65.13,1.27.17,1.88a7.9,7.9,0,0,0,.28,1.74c.17.54.47.93,1,1a1.5,1.5,0,0,0,1.34-.54,8.49,8.49,0,0,0,1.08-1.41l1-1.58c.35-.54.73-1,1.09-1.53l2.2-3,4.4-6,8.8-12,17.56-24Z"/></g><g class="cls-1"><path class="cls-2" d="M668.28,175.07l-5.6,21.55-5.5,21.58L654.44,229l-1.37,5.4-.68,2.7c-.26.91-.38,1.76-.56,2.71a5.81,5.81,0,0,1-.44,1.41,2.22,2.22,0,0,1-1.14,1.14,1.58,1.58,0,0,1-1.68-.22,5,5,0,0,1-1-1.16,7.23,7.23,0,0,0-.8-1.07l-.93-1L644,236.8l-7.42-8.3L607,195.19l-14.79-16.65c-2.47-2.8-4.93-5.49-7.39-8.38a5.27,5.27,0,0,1-.85-1.38,2,2,0,0,1-.12-1.08,2.21,2.21,0,0,1,.18-.54,4.37,4.37,0,0,1,.28-.42,10.54,10.54,0,0,1,2.41-1.84l4.77-2.89,38.09-23.09L667.8,116l9.59-5.66,2.4-1.41c.39-.23.83-.48,1.15-.69l1.12-.8a5.36,5.36,0,0,1,1.47-.77,2.11,2.11,0,0,1,1.12-.06,1.92,1.92,0,0,1,1,.61,2.24,2.24,0,0,1,.52,1,3.13,3.13,0,0,1,0,1,6.91,6.91,0,0,1-.36,1.54l-.47,1.32c-.07.21-.13.41-.19.61l-.18.67-.74,2.69-1.47,5.37-2.94,10.74L674,153.55Zm-.19-.05,5.44-21.59,5.32-21.63L681.5,121l1.32-5.41.66-2.7.17-.68c.06-.24.13-.49.21-.72l.44-1.31c.29-.82.37-1.68.12-1.82-.06-.07-.11-.1-.15-.09a.44.44,0,0,0-.25,0,3.87,3.87,0,0,0-1,.55l-1.13.83c-.45.31-.82.51-1.22.77l-2.38,1.45-9.5,5.81L630.63,140.6l-38.28,22.76-4.77,2.85a9.88,9.88,0,0,0-2,1.48c-.19.27-.18.27-.1.55a4,4,0,0,0,.61,1c2.34,2.77,4.86,5.58,7.28,8.36L608,194.33l29.35,33.51,7.31,8.4,1.83,2.1.91,1a8.1,8.1,0,0,1,.85,1.17,4.33,4.33,0,0,0,.78,1,.8.8,0,0,0,.92.13c.7-.25,1-1.15,1.18-2s.33-1.86.6-2.73l.72-2.69,1.44-5.38,2.87-10.76,5.71-21.53Z"/></g><g class="cls-1"><path class="cls-3" d="M687.74,197.31l-17.47,24.11-17.39,24.18-8.68,12.1-4.34,6-2.17,3c-.36.51-.73,1-1.06,1.51l-1,1.58a9.12,9.12,0,0,1-1.17,1.54,2.24,2.24,0,0,1-2,.76,2,2,0,0,1-1.55-1.48,8.56,8.56,0,0,1-.33-1.92c-.05-.62-.09-1.24-.18-1.82l-.34-1.82-.7-3.66-2.8-14.62-22.12-117c-.23-1.22-.47-2.44-.66-3.7a12.32,12.32,0,0,1-.16-2l0-.56c0-.2.09-.41.15-.6a3.86,3.86,0,0,1,.32-.62,2.79,2.79,0,0,1,.51-.5,4.47,4.47,0,0,1,2.16-.69c.67-.08,1.3-.1,1.93-.12l3.73-.07,14.89-.25,29.78-.5,59.55-.81,14.89-.11,3.72,0h.93c.32,0,.62,0,.87,0,.55,0,1.16-.16,1.84-.22a3.92,3.92,0,0,1,2.33.37,2.48,2.48,0,0,1,.94,1.06,3.41,3.41,0,0,1,.3,1.21,4.18,4.18,0,0,1-.56,2.23,9.93,9.93,0,0,1-1.18,1.65l-1.21,1.4c-.36.43-.72.94-1.09,1.44l-2.21,3-4.43,6-8.85,12-17.69,24Zm-.16-.12L704.91,173l17.23-24.29,8.61-12.15,4.3-6.08,2.15-3c.36-.5.7-1,1.13-1.54l1.21-1.43c1.67-1.72,2-4.25-.41-3.72-.56.05-1.17.17-1.85.24-.37,0-.69,0-1,0l-.93,0-3.72.07-14.89.29-59.55.79-29.78.31-14.89.15-3.71,0c-.61,0-1.22,0-1.78.1a3.09,3.09,0,0,0-1.37.37c-.49.2-.41,1.59-.24,2.73s.4,2.41.62,3.63l21.53,117.16,2.66,14.65.66,3.66.33,1.84c.1.65.13,1.27.17,1.88a7.9,7.9,0,0,0,.28,1.74c.17.54.47.93,1,1a1.5,1.5,0,0,0,1.34-.54,8.49,8.49,0,0,0,1.08-1.41l1-1.58c.35-.54.73-1,1.09-1.53l2.2-3,4.4-6,8.8-12,17.56-24Z"/></g><g class="cls-1"><path class="cls-2" d="M666.63,89,661,110.54l-5.5,21.58-2.73,10.79-1.37,5.4-.68,2.7c-.26.91-.38,1.76-.56,2.71a5.81,5.81,0,0,1-.44,1.41,2.22,2.22,0,0,1-1.14,1.14,1.58,1.58,0,0,1-1.68-.22,5,5,0,0,1-1-1.16,7.24,7.24,0,0,0-.8-1.07l-.93-1-1.85-2.08-7.42-8.3L605.39,109.1,590.6,92.45c-2.47-2.8-4.93-5.49-7.39-8.38a5.27,5.27,0,0,1-.85-1.38,2,2,0,0,1-.12-1.08,2.2,2.2,0,0,1,.18-.54,4.37,4.37,0,0,1,.28-.42,10.54,10.54,0,0,1,2.41-1.84l4.77-2.89L628,52.82l38.18-22.93,9.59-5.66,2.4-1.41c.39-.23.83-.48,1.15-.69l1.12-.8a5.36,5.36,0,0,1,1.47-.77A2.11,2.11,0,0,1,683,20.5a1.92,1.92,0,0,1,1,.61,2.24,2.24,0,0,1,.52,1,3.13,3.13,0,0,1,0,1,6.91,6.91,0,0,1-.36,1.54l-.47,1.32c-.07.21-.13.41-.19.61l-.18.67-.74,2.69-1.47,5.37L678.24,46l-5.87,21.49Zm-.19-.05,5.44-21.59,5.32-21.63,2.65-10.82,1.32-5.41.66-2.7.17-.68c.06-.24.13-.49.21-.72l.44-1.31c.29-.82.37-1.68.12-1.82-.06-.07-.11-.1-.15-.09a.44.44,0,0,0-.25,0,3.87,3.87,0,0,0-1,.55l-1.13.83c-.45.31-.82.51-1.22.77l-2.38,1.45-9.5,5.81L629,54.52,590.7,77.28l-4.77,2.85a9.88,9.88,0,0,0-2,1.48c-.19.27-.18.27-.1.55a4,4,0,0,0,.61,1c2.33,2.77,4.86,5.58,7.28,8.36l14.67,16.75,29.35,33.51,7.31,8.4,1.83,2.1.91,1a8.11,8.11,0,0,1,.85,1.17,4.32,4.32,0,0,0,.78,1,.8.8,0,0,0,.92.13c.7-.25,1-1.15,1.18-2s.33-1.86.6-2.73l.72-2.69,1.44-5.38L655.12,132l5.71-21.53Z"/></g><g class="cls-1"><path class="cls-3" d="M686.09,111.23l-17.47,24.11-17.39,24.18-8.68,12.1-4.34,6-2.17,3c-.36.51-.73,1-1.05,1.51l-1,1.58a9.13,9.13,0,0,1-1.17,1.54,2.24,2.24,0,0,1-2,.76,2,2,0,0,1-1.55-1.48,8.56,8.56,0,0,1-.33-1.92c-.05-.62-.09-1.24-.18-1.82l-.34-1.82-.7-3.66L625,160.77l-22.12-117c-.23-1.22-.47-2.44-.66-3.7a12.31,12.31,0,0,1-.16-2l0-.56c0-.2.09-.41.15-.6a3.85,3.85,0,0,1,.32-.62,2.79,2.79,0,0,1,.51-.5,4.47,4.47,0,0,1,2.16-.69c.67-.08,1.3-.1,1.93-.12l3.73-.07,14.89-.25,29.78-.5,59.55-.81L730,33.2l3.72,0h.93c.32,0,.62,0,.87,0,.55,0,1.16-.16,1.84-.22a3.92,3.92,0,0,1,2.33.37,2.48,2.48,0,0,1,.94,1.06,3.42,3.42,0,0,1,.3,1.21,4.18,4.18,0,0,1-.56,2.23,9.94,9.94,0,0,1-1.18,1.65L738,40.84c-.36.43-.72.94-1.09,1.44l-2.21,3-4.43,6-8.85,12-17.69,24Zm-.16-.12L703.27,86.9,720.5,62.61l8.61-12.15,4.3-6.08,2.15-3c.36-.5.7-1,1.13-1.54l1.21-1.43c1.67-1.72,2-4.25-.41-3.72-.56.05-1.17.17-1.85.24-.37,0-.69,0-1,0l-.93,0L730,35l-14.89.29-59.55.79-29.78.31-14.89.15-3.71,0c-.61,0-1.22,0-1.78.1a3.09,3.09,0,0,0-1.37.37c-.49.2-.41,1.59-.24,2.73s.4,2.41.62,3.63l21.53,117.16,2.66,14.65.66,3.66.33,1.84c.1.65.13,1.27.17,1.88a7.9,7.9,0,0,0,.28,1.74c.17.54.47.93,1,1a1.5,1.5,0,0,0,1.34-.54,8.49,8.49,0,0,0,1.08-1.41l1-1.58c.35-.54.73-1,1.09-1.53l2.2-3,4.4-6,8.8-12,17.56-24Z"/></g><g class="cls-1"><path class="cls-2" d="M79.88,67.64l5.6,21.55,5.71,21.53,2.87,10.76,1.44,5.38.72,2.69c.27.88.43,1.87.6,2.73s.48,1.76,1.18,2a.8.8,0,0,0,.92-.13,4.33,4.33,0,0,0,.78-1,8.11,8.11,0,0,1,.85-1.17l.91-1,1.83-2.1,7.31-8.4L140,86.95l14.67-16.75c2.42-2.79,4.95-5.6,7.28-8.36a4,4,0,0,0,.61-1c.08-.28.09-.29-.1-.55a9.88,9.88,0,0,0-2-1.48L155.62,56,117.33,33.22,79.14,10.31,69.64,4.5,67.26,3c-.4-.25-.77-.46-1.22-.77l-1.13-.83a3.87,3.87,0,0,0-1-.55.44.44,0,0,0-.25,0s-.08,0-.15.09c-.26.14-.17,1,.12,1.82l.44,1.31c.08.23.15.48.21.72l.17.68.66,2.7,1.32,5.41,2.65,10.82L74.44,46Zm-.19.05L73.95,46.17,68.08,24.69,65.14,13.95,63.67,8.58l-.74-2.69-.18-.67c-.06-.2-.12-.4-.19-.61l-.47-1.32a6.91,6.91,0,0,1-.36-1.54,3.13,3.13,0,0,1,0-1,2.24,2.24,0,0,1,.52-1,1.92,1.92,0,0,1,1-.61,2.11,2.11,0,0,1,1.12.06A5.36,5.36,0,0,1,65.91,0L67,.83c.31.21.76.46,1.15.69l2.4,1.41,9.59,5.66,38.18,22.93,38.09,23.09,4.77,2.89a10.54,10.54,0,0,1,2.41,1.84,4.37,4.37,0,0,1,.28.42,2.2,2.2,0,0,1,.18.54,2,2,0,0,1-.12,1.08,5.27,5.27,0,0,1-.85,1.38c-2.47,2.89-4.93,5.58-7.39,8.38L140.93,87.81l-29.57,33.31-7.42,8.3-1.85,2.08-.93,1a7.23,7.23,0,0,0-.8,1.07,5,5,0,0,1-1,1.16,1.58,1.58,0,0,1-1.68.22,2.22,2.22,0,0,1-1.14-1.14,5.81,5.81,0,0,1-.44-1.41c-.18-1-.3-1.8-.56-2.71l-.68-2.7-1.37-5.4-2.73-10.79-5.5-21.58Z"/></g><g class="cls-1"><path class="cls-3" d="M60.39,89.82l17.48,24.11,17.56,24,8.8,12,4.4,6,2.2,3c.36.5.74,1,1.09,1.53l1,1.58a8.49,8.49,0,0,0,1.08,1.41,1.5,1.5,0,0,0,1.34.54c.48-.06.79-.45,1-1a7.9,7.9,0,0,0,.28-1.74c0-.61.07-1.24.17-1.88l.33-1.84.66-3.66,2.66-14.65L141.91,22.14c.22-1.22.46-2.44.62-3.63s.25-2.52-.24-2.73a3.09,3.09,0,0,0-1.37-.37c-.57-.06-1.18-.08-1.78-.1l-3.71,0-14.89-.15-29.78-.31L31.22,14l-14.89-.29-3.72-.07-.93,0c-.3,0-.62,0-1,0-.68-.06-1.29-.19-1.85-.24-2.38-.54-2.08,2-.41,3.72l1.21,1.43c.43.52.77,1,1.13,1.54l2.15,3,4.3,6.08,8.61,12.15L43.05,65.61Zm-.16.12-17.58-24L25,41.94,16.1,30l-4.43-6L9.46,21c-.37-.5-.73-1-1.09-1.44l-1.21-1.4A9.94,9.94,0,0,1,6,16.5a4.18,4.18,0,0,1-.56-2.23,3.41,3.41,0,0,1,.3-1.21A2.48,2.48,0,0,1,6.66,12,3.92,3.92,0,0,1,9,11.63c.68.06,1.29.17,1.84.22.25,0,.55,0,.87,0h.93l3.72,0L31.24,12l59.55.81,29.78.5,14.89.25,3.73.07c.63,0,1.26,0,1.93.12a4.47,4.47,0,0,1,2.16.69,2.79,2.79,0,0,1,.51.5,3.86,3.86,0,0,1,.32.62c.05.2.11.41.15.6l0,.56a12.32,12.32,0,0,1-.16,2c-.19,1.26-.43,2.48-.66,3.7l-22.12,117-2.8,14.62-.7,3.66-.34,1.82c-.1.58-.13,1.2-.18,1.82a8.56,8.56,0,0,1-.33,1.92,2,2,0,0,1-1.55,1.48,2.24,2.24,0,0,1-2-.76,9.12,9.12,0,0,1-1.17-1.54l-1-1.58c-.32-.51-.7-1-1.06-1.51l-2.17-3-4.34-6-8.68-12.1L77.7,114Z"/></g><g class="cls-1"><path class="cls-2" d="M152,168l5.6,21.55,5.71,21.53,2.87,10.76,1.44,5.38.72,2.69c.27.88.43,1.87.6,2.73s.48,1.76,1.18,2a.8.8,0,0,0,.92-.13,4.33,4.33,0,0,0,.78-1,8.11,8.11,0,0,1,.85-1.17l.91-1,1.83-2.1,7.31-8.4,29.35-33.51,14.67-16.75c2.42-2.79,4.95-5.6,7.28-8.36a4,4,0,0,0,.61-1c.08-.28.09-.29-.1-.55a9.88,9.88,0,0,0-2-1.48l-4.77-2.85-38.28-22.76-38.19-22.92-9.5-5.81-2.38-1.45c-.4-.25-.77-.46-1.22-.77l-1.13-.83a3.87,3.87,0,0,0-1-.55.44.44,0,0,0-.25,0s-.08,0-.15.09c-.26.14-.17,1,.12,1.82l.44,1.31c.08.23.15.48.21.72l.17.68.66,2.7L138.6,114l2.65,10.82,5.32,21.63Zm-.19.05-5.74-21.52-5.87-21.49-2.94-10.74-1.47-5.37-.74-2.69-.18-.67c-.06-.2-.12-.4-.19-.61l-.47-1.32a6.91,6.91,0,0,1-.36-1.54,3.13,3.13,0,0,1,0-1,2.24,2.24,0,0,1,.52-1,1.92,1.92,0,0,1,1-.61,2.11,2.11,0,0,1,1.12.06,5.36,5.36,0,0,1,1.47.77l1.12.8c.31.21.76.46,1.15.69l2.4,1.41L152.3,109l38.18,22.93L228.57,155l4.77,2.89a10.54,10.54,0,0,1,2.41,1.84,4.38,4.38,0,0,1,.28.42,2.21,2.21,0,0,1,.18.54,2,2,0,0,1-.12,1.08,5.27,5.27,0,0,1-.85,1.38c-2.47,2.89-4.93,5.58-7.39,8.38l-14.79,16.65-29.57,33.31-7.42,8.3-1.85,2.08-.93,1a7.24,7.24,0,0,0-.8,1.07,5,5,0,0,1-1,1.16,1.58,1.58,0,0,1-1.68.22,2.22,2.22,0,0,1-1.14-1.14,5.81,5.81,0,0,1-.44-1.41c-.18-1-.3-1.8-.56-2.71l-.68-2.7-1.37-5.4-2.73-10.79-5.5-21.58Z"/></g><g class="cls-1"><path class="cls-3" d="M132.52,190.19,150,214.3l17.56,24,8.8,12,4.4,6,2.2,3c.36.5.74,1,1.09,1.53l1,1.58a8.49,8.49,0,0,0,1.08,1.41,1.5,1.5,0,0,0,1.34.54c.48-.06.79-.45,1-1a7.9,7.9,0,0,0,.28-1.74c0-.61.07-1.24.17-1.88l.33-1.84.66-3.66,2.66-14.65L214,122.51c.22-1.22.46-2.44.62-3.63s.25-2.52-.24-2.73a3.09,3.09,0,0,0-1.37-.37c-.57-.06-1.18-.08-1.78-.1l-3.71,0-14.89-.15-29.78-.31-59.55-.79-14.89-.29L84.74,114l-.93,0c-.3,0-.62,0-1,0-.68-.06-1.29-.19-1.85-.24-2.38-.54-2.08,2-.41,3.72l1.21,1.43c.43.52.77,1,1.13,1.54l2.15,3,4.3,6.08L98,141.69,115.18,166Zm-.16.12-17.58-24-17.69-24-8.85-12-4.43-6-2.21-3c-.37-.5-.73-1-1.09-1.44l-1.21-1.4a9.94,9.94,0,0,1-1.18-1.65,4.18,4.18,0,0,1-.56-2.23,3.41,3.41,0,0,1,.3-1.21,2.48,2.48,0,0,1,.94-1.06,3.92,3.92,0,0,1,2.33-.37c.68.06,1.29.17,1.84.22.25,0,.55,0,.87,0h.93l3.72,0,14.89.11,59.55.81,29.78.5,14.89.25,3.73.07c.63,0,1.26,0,1.93.12a4.47,4.47,0,0,1,2.16.69,2.79,2.79,0,0,1,.51.5,3.86,3.86,0,0,1,.32.62c.05.2.11.41.15.6l0,.56a12.32,12.32,0,0,1-.16,2c-.19,1.26-.43,2.48-.66,3.7l-22.12,117-2.8,14.62-.7,3.66-.34,1.82c-.1.58-.13,1.2-.18,1.82a8.56,8.56,0,0,1-.33,1.92,2,2,0,0,1-1.55,1.48,2.24,2.24,0,0,1-2-.76,9.12,9.12,0,0,1-1.17-1.54l-1-1.58c-.32-.51-.7-1-1.06-1.51l-2.17-3-4.34-6-8.68-12.1-17.39-24.18Z"/></g><g class="cls-1"><path class="cls-2" d="M153.66,81.93l5.6,21.55L165,125l2.87,10.76,1.44,5.38.72,2.69c.27.88.43,1.87.6,2.73s.48,1.76,1.18,2a.8.8,0,0,0,.92-.13,4.33,4.33,0,0,0,.78-1,8.1,8.1,0,0,1,.85-1.17l.91-1,1.83-2.1,7.31-8.4,29.35-33.51L228.4,84.49c2.42-2.79,4.95-5.6,7.28-8.36a4,4,0,0,0,.61-1c.08-.28.09-.29-.1-.55a9.88,9.88,0,0,0-2-1.48l-4.77-2.85L191.11,47.51,152.91,24.6l-9.5-5.81L141,17.34c-.4-.25-.77-.46-1.22-.77l-1.13-.83a3.87,3.87,0,0,0-1-.55.44.44,0,0,0-.25,0s-.08,0-.15.09c-.26.14-.17,1,.12,1.82l.44,1.31c.08.23.15.48.21.72l.17.68.66,2.7,1.32,5.41,2.65,10.82,5.32,21.63Zm-.19.05-5.74-21.52L141.86,39l-2.94-10.74-1.47-5.37-.74-2.69-.18-.67c-.06-.2-.12-.4-.19-.61l-.47-1.32A6.91,6.91,0,0,1,135.5,16a3.13,3.13,0,0,1,0-1,2.24,2.24,0,0,1,.52-1,1.92,1.92,0,0,1,1-.61,2.11,2.11,0,0,1,1.12.06,5.36,5.36,0,0,1,1.47.77l1.12.8c.31.21.76.46,1.15.69l2.4,1.41,9.59,5.66,38.18,22.93L230.22,68.9,235,71.79a10.54,10.54,0,0,1,2.41,1.84,4.38,4.38,0,0,1,.28.42,2.21,2.21,0,0,1,.18.54,2,2,0,0,1-.12,1.08,5.27,5.27,0,0,1-.85,1.38c-2.47,2.89-4.93,5.58-7.39,8.38L214.71,102.1l-29.57,33.31-7.42,8.3-1.85,2.08-.93,1a7.24,7.24,0,0,0-.8,1.07,5,5,0,0,1-1,1.16,1.58,1.58,0,0,1-1.68.22,2.22,2.22,0,0,1-1.14-1.14,5.81,5.81,0,0,1-.44-1.41c-.18-1-.3-1.8-.56-2.71l-.68-2.7-1.37-5.4-2.73-10.79-5.5-21.58Z"/></g><g class="cls-1"><path class="cls-3" d="M134.16,104.11l17.48,24.11,17.56,24,8.8,12,4.4,6,2.2,3c.36.5.74,1,1.09,1.53l1,1.58a8.49,8.49,0,0,0,1.08,1.41,1.5,1.5,0,0,0,1.34.54c.48-.06.79-.45,1-1a7.9,7.9,0,0,0,.28-1.74c0-.61.07-1.24.17-1.88l.33-1.84.66-3.66,2.66-14.65L215.69,36.43c.22-1.22.46-2.44.62-3.63s.25-2.52-.24-2.73a3.09,3.09,0,0,0-1.37-.37c-.57-.06-1.18-.08-1.78-.1l-3.71,0-14.89-.15-29.78-.31L105,28.31,90.11,28,86.38,28l-.93,0c-.3,0-.62,0-1,0-.68-.06-1.29-.19-1.85-.24-2.38-.54-2.08,2-.41,3.72L83.4,32.8c.43.52.77,1,1.13,1.54l2.15,3L91,43.46,99.6,55.61,116.83,79.9Zm-.16.12-17.58-24-17.69-24-8.85-12-4.43-6-2.21-3c-.37-.5-.73-1-1.09-1.44l-1.21-1.4a9.94,9.94,0,0,1-1.18-1.65,4.18,4.18,0,0,1-.56-2.23,3.41,3.41,0,0,1,.3-1.21,2.48,2.48,0,0,1,.94-1.06,3.92,3.92,0,0,1,2.33-.37c.68.06,1.29.17,1.84.22.25,0,.55,0,.87,0h.93l3.72,0,14.89.11,59.55.81,29.78.5,14.89.25,3.73.07c.63,0,1.26,0,1.93.12a4.47,4.47,0,0,1,2.16.69,2.79,2.79,0,0,1,.51.5,3.86,3.86,0,0,1,.32.62c.05.2.11.41.15.6l0,.56a12.32,12.32,0,0,1-.16,2c-.19,1.26-.43,2.48-.66,3.7l-22.12,117-2.8,14.62-.7,3.66-.34,1.82c-.1.58-.13,1.2-.18,1.82a8.56,8.56,0,0,1-.33,1.92,2,2,0,0,1-1.55,1.48,2.24,2.24,0,0,1-2-.76,9.12,9.12,0,0,1-1.17-1.54l-1-1.58c-.32-.51-.7-1-1.06-1.51l-2.17-3-4.34-6-8.68-12.1-17.39-24.18Z"/></g></svg>